<?xml version="1.0" encoding="UTF-8" standalone="no" ?>
<!DOCTYPE svg PUBLIC "-//W3C//DTD SVG 1.1//EN" "http://www.w3.org/Graphics/SVG/1.1/DTD/svg11.dtd">
<svg xmlns="http://www.w3.org/2000/svg" xmlns:xlink="http://www.w3.org/1999/xlink" version="1.1" width="1280" height="1024" viewBox="0 0 1280 1024" xml:space="preserve">
<desc>Created with Fabric.js 4.4.0</desc>
<defs>
</defs>
<g transform="matrix(1 0 0 1 640 512)" id="background-logo"  >
<rect style="stroke: none; stroke-width: 0; stroke-dasharray: none; stroke-linecap: butt; stroke-dashoffset: 0; stroke-linejoin: miter; stroke-miterlimit: 4; fill: rgb(255,255,255); fill-opacity: 0; fill-rule: nonzero; opacity: 1;"  paint-order="stroke"  x="-640" y="-512" rx="0" ry="0" width="1280" height="1024" />
</g>
<g transform="matrix(1.9211538461538462 0 0 1.9211538461538462 629.9348110387532 494.8475689368267)" id="logo-logo"  >
<g style=""  paint-order="stroke"   >
		<g transform="matrix(0.3241821743733114 0 0 -0.3241821743733114 -1.8145815738733404 -2.842171e-14)"  >
<path style="stroke: none; stroke-width: 1; stroke-dasharray: none; stroke-linecap: butt; stroke-dashoffset: 0; stroke-linejoin: miter; stroke-miterlimit: 4; fill: rgb(35,31,32); fill-rule: evenodd; opacity: 1;"  paint-order="stroke"  transform=" translate(-3054.4025868251974, -3960)" d="M 2688.35 4221.37 L 3054.54 4362.01 L 3420.73 4216.070000000001 C 3420.73 4216.070000000001 3422.46 4162.290000000001 3406.83 4081.8600000000006 C 3304.23 4147.51 3182.27 4185.570000000001 3051.42 4185.570000000001 C 2921.37 4185.570000000001 2800.13 4147.960000000001 2697.92 4083.0500000000006 C 2690.4500000000003 4126.580000000001 2686.86 4172.68 2688.35 4221.370000000001 z M 3307.96 3818.85 C 3254.52 3727.88 3175.8 3635.29 3059.85 3557.99 C 3059.85 3557.99 2892.54 3658.3999999999996 2782.39 3850.81 C 2872.2999999999997 3804.98 2974.0699999999997 3779.12 3081.8999999999996 3779.12 C 3161.3199999999997 3779.12 3237.45 3793.15 3307.9599999999996 3818.85" stroke-linecap="round" />
</g>
		<g transform="matrix(0.3241821743733114 0 0 -0.3241821743733114 -1.813728769723582 -2.842171e-14)"  >
<path style="stroke: none; stroke-width: 1; stroke-dasharray: none; stroke-linecap: butt; stroke-dashoffset: 0; stroke-linejoin: miter; stroke-miterlimit: 4; fill: rgb(56,53,54); fill-rule: evenodd; opacity: 1;"  paint-order="stroke"  transform=" translate(-3054.405217457654, -3960)" d="M 2748.04 4178.75 L 3054.52 4296.45 L 3361 4174.3099999999995 C 3361 4174.3099999999995 3361.78 4150.129999999999 3357.05 4110.73 C 3265.6600000000003 4158.53 3161.7000000000003 4185.57 3051.42 4185.57 C 2942.71 4185.57 2840.15 4159.299999999999 2749.7200000000003 4112.759999999999 C 2747.96 4134.089999999999 2747.3500000000004 4156.089999999999 2748.0400000000004 4178.749999999999 z M 3238.33 3797.77 C 3195.3199999999997 3736.32 3137.29 3675.77 3058.96 3623.55 C 3058.96 3623.55 2948.41 3689.9100000000003 2859.09 3817.67 C 2928.7000000000003 3792.7200000000003 3003.71 3779.12 3081.9 3779.12 C 3135.8 3779.12 3188.1800000000003 3785.5899999999997 3238.33 3797.77" stroke-linecap="round" />
</g>
		<g transform="matrix(0.3241821743733114 0 0 -0.3241821743733114 47.83761481981628 -2.842171e-14)"  >
<path style="stroke: none; stroke-width: 1; stroke-dasharray: none; stroke-linecap: butt; stroke-dashoffset: 0; stroke-linejoin: miter; stroke-miterlimit: 4; fill: rgb(79,76,76); fill-rule: evenodd; opacity: 1;"  paint-order="stroke"  transform=" translate(-3207.5639890203493, -3960)" d="M 3054.52 4296.45 L 3361 4174.31 C 3361 4174.31 3361.78 4150.13 3357.05 4110.7300000000005 C 3266.3900000000003 4158.14 3163.38 4185.13 3054.08 4185.570000000001 L 3054.08 4185.570000000001 z M 3057.61 3779.56 L 3058.96 3623.55 C 3137.29 3675.77 3195.32 3736.32 3238.33 3797.77 C 3188.18 3785.59 3135.7999999999997 3779.12 3081.9 3779.12 C 3073.77 3779.12 3065.67 3779.2599999999998 3057.61 3779.56" stroke-linecap="round" />
</g>
		<g transform="matrix(0.3241821743733114 0 0 -0.3241821743733114 -5.684342e-14 -7.879247748143513)"  >
<path style="stroke: none; stroke-width: 1; stroke-dasharray: none; stroke-linecap: butt; stroke-dashoffset: 0; stroke-linejoin: miter; stroke-miterlimit: 4; fill: rgb(101,98,99); fill-rule: evenodd; opacity: 1;"  paint-order="stroke"  transform=" translate(-3060, -3984.3050000000003)" d="M 2629.09 3998.65 C 2736.81 4103.59 2883.94 4168.26 3046.2000000000003 4168.26 C 3222.7900000000004 4168.26 3381.46 4091.6800000000003 3490.9100000000003 3969.9500000000003 C 3383.1900000000005 3865.0200000000004 3236.0600000000004 3800.3500000000004 3073.8 3800.3500000000004 C 2897.21 3800.3500000000004 2738.53 3876.9200000000005 2629.09 3998.6500000000005" stroke-linecap="round" />
</g>
		<g transform="matrix(0.3241821743733114 0 0 -0.3241821743733114 -5.684342e-14 -7.877626837271663)"  >
<path style="stroke: none; stroke-width: 1; stroke-dasharray: none; stroke-linecap: butt; stroke-dashoffset: 0; stroke-linejoin: miter; stroke-miterlimit: 4; fill: rgb(35,31,32); fill-rule: evenodd; opacity: 1;"  paint-order="stroke"  transform=" translate(-3060, -3984.3)" d="M 3060 4151.8 C 3161.21 4151.8 3243.27 4076.8100000000004 3243.27 3984.3 C 3243.27 3891.79 3161.21 3816.8 3060 3816.8 C 2958.79 3816.8 2876.73 3891.79 2876.73 3984.3 C 2876.73 4076.8100000000004 2958.79 4151.8 3060 4151.8" stroke-linecap="round" />
</g>
		<g transform="matrix(0.3241821743733114 0 0 -0.3241821743733114 -28.515064057876543 -26.516480952865095)"  >
<path style="stroke: none; stroke-width: 1; stroke-dasharray: none; stroke-linecap: butt; stroke-dashoffset: 0; stroke-linejoin: miter; stroke-miterlimit: 4; fill: rgb(237,28,36); fill-rule: evenodd; opacity: 1;"  paint-order="stroke"  transform=" translate(-2972.04, -4041.795)" d="M 2972.04 4065.94 C 2985.69 4065.94 2996.7599999999998 4055.13 2996.7599999999998 4041.79 C 2996.7599999999998 4028.46 2985.6899999999996 4017.65 2972.04 4017.65 C 2958.39 4017.65 2947.32 4028.46 2947.32 4041.79 C 2947.32 4055.13 2958.3900000000003 4065.94 2972.04 4065.94" stroke-linecap="round" />
</g>
		<g transform="matrix(0.3241821743733114 0 0 -0.3241821743733114 6.678713755812737 -1.612606011470973)"  >
<path style="stroke: none; stroke-width: 1; stroke-dasharray: none; stroke-linecap: butt; stroke-dashoffset: 0; stroke-linejoin: miter; stroke-miterlimit: 4; fill: rgb(56,53,54); fill-rule: evenodd; opacity: 1;"  paint-order="stroke"  transform=" translate(-3080.6017303965696, -3964.9743821189063)" d="M 2943.87 3901.52 C 3054.25 3896.93 3158.87 3940.62 3165.77 4093.5299999999997 C 3328.23 3953.93 3065.74 3722.79 2943.87 3901.5199999999995" stroke-linecap="round" />
</g>
		<g transform="matrix(0.3241821743733114 0 0 -0.3241821743733114 -44.738760974388924 -38.82891993556353)"  >
<path style="stroke: none; stroke-width: 1; stroke-dasharray: none; stroke-linecap: butt; stroke-dashoffset: 0; stroke-linejoin: miter; stroke-miterlimit: 4; fill: rgb(255,255,255); fill-rule: evenodd; opacity: 1;"  paint-order="stroke"  transform=" translate(-2921.995, -4079.775)" d="M 2922 4146.46 L 2932.48 4092.45 L 2977.18 4079.77 L 2932.48 4067.11 L 2922 4013.09 L 2911.51 4067.11 L 2866.8100000000004 4079.77 L 2911.51 4092.45 L 2922 4146.46" stroke-linecap="round" />
</g>
</g>
</g>
<g transform="matrix(0.10038826374695806 1.9185292015222462 -1.9185292015222462 0.10038826374695806 1054.0341801689585 453.45201868044325)" id="00be26b9-d414-40ee-b4c4-8b4da889e777-path-group"  >
<g style=""  paint-order="stroke"   >
		<g transform="matrix(1 0 0 1.0000000000000002 0 0)" id="2341541e-c5be-449c-8bce-f68454cc423d-path-0"  >
<path style="stroke: none; stroke-width: 0; stroke-dasharray: none; stroke-linecap: butt; stroke-dashoffset: 0; stroke-linejoin: miter; stroke-miterlimit: 4; fill: rgb(35,31,32); fill-rule: nonzero; opacity: 1;"  paint-order="stroke"  transform=" translate(-10.255, 10.85)" d="M 15.05 0 L 18.62 0 L 18.62 -21.7 L 14.28 -21.7 L 14.28 -8.68 L 5.43 -21.7 L 1.89 -21.7 L 1.89 0 L 6.23 0 L 6.23 -13.02 Z" stroke-linecap="round" />
</g>
</g>
</g>
<g transform="matrix(0.3000683520987096 1.897575053762164 -1.8975750537621643 0.3000683520987096 1049.5258829649206 410.4279287691488)" id="1db6f6cd-604c-41c2-8390-ae0eff81fb33-path-group"  >
<g style=""  paint-order="stroke"   >
		<g transform="matrix(0.9999999999999998 0 0 1 0 0)" id="c18183da-5f0c-4b82-88ed-e2fc82daf33f-path-0"  >
<path style="stroke: none; stroke-width: 0; stroke-dasharray: none; stroke-linecap: butt; stroke-dashoffset: 0; stroke-linejoin: miter; stroke-miterlimit: 4; fill: rgb(35,31,32); fill-rule: nonzero; opacity: 1;"  paint-order="stroke"  transform=" translate(-10.255, 10.85)" d="M 13.02 -17.5 C 13.34 -17.5 13.51 -17.36 13.51 -17.01 L 13.51 -4.69 C 13.51 -4.34 13.34 -4.2 13.02 -4.2 L 7.49 -4.2 C 7.18 -4.2 7 -4.34 7 -4.69 L 7 -17.01 C 7 -17.36 7.18 -17.5 7.49 -17.5 Z M 1.89 -5.11 C 1.89 -1.51 3.92 0.35 8.02 0.35 L 12.46 0.35 C 16.56 0.35 18.62 -1.51 18.62 -5.11 L 18.62 -16.59 C 18.62 -20.2 16.56 -22.05 12.46 -22.05 L 8.02 -22.05 C 3.92 -22.05 1.89 -20.2 1.89 -16.59 Z" stroke-linecap="round" />
</g>
</g>
</g>
<g transform="matrix(0.4473784127359022 1.8683374043276073 -1.8683374043276075 0.44737841273590223 1043.2284174622782 378.6874698943452)" id="ef0444ce-1969-4e90-9e21-0bf11406066b-path-group"  >
<g style=""  paint-order="stroke"   >
		<g transform="matrix(1 0 0 1 0 0)" id="7fbf45fd-40e2-4bee-ad3c-dd65b070f8d3-path-0"  >
<path style="stroke: none; stroke-width: 0; stroke-dasharray: none; stroke-linecap: butt; stroke-dashoffset: 0; stroke-linejoin: miter; stroke-miterlimit: 4; fill: rgb(35,31,32); fill-rule: nonzero; opacity: 1;"  paint-order="stroke"  transform=" translate(-5.095000000000001, 10.85)" d="M 7.63 0 L 7.63 -21.7 L 2.56 -21.7 L 2.56 0 Z" stroke-linecap="round" />
</g>
</g>
</g>
<g transform="matrix(0.5674026878166482 1.8354526118781052 -1.8354526118781054 0.5674026878166483 1036.1442895640537 352.82861538985884)" id="4ad96cec-d8e7-41fa-a230-7667886c22d9-path-group"  >
<g style=""  paint-order="stroke"   >
		<g transform="matrix(0.9999999999999996 0 -5.551e-17 1.0000000000000002 0 0)" id="71220ba3-d780-48a3-a5c7-ffb3d33554fa-path-0"  >
<path style="stroke: none; stroke-width: 0; stroke-dasharray: none; stroke-linecap: butt; stroke-dashoffset: 0; stroke-linejoin: miter; stroke-miterlimit: 4; fill: rgb(35,31,32); fill-rule: nonzero; opacity: 1;"  paint-order="stroke"  transform=" translate(-7.635, 10.85)" d="M 10.15 0 L 10.15 -17.29 L 15.09 -17.29 L 15.09 -21.7 L 0.18 -21.7 L 0.18 -17.29 L 5.11 -17.29 L 5.11 0 Z" stroke-linecap="round" />
</g>
</g>
</g>
<g transform="matrix(0.7058509084290905 1.7867866676415354 -1.7867866676415356 0.7058509084290905 1026.1676904108924 324.27786044157114)" id="66341ac4-46c6-4ab4-91df-dcf9da601c20-path-group"  >
<g style=""  paint-order="stroke"   >
		<g transform="matrix(1 0 0 1 0 0)" id="3ae33b23-1c36-4ef4-a7ae-56a4079c2e53-path-0"  >
<path style="stroke: none; stroke-width: 0; stroke-dasharray: none; stroke-linecap: butt; stroke-dashoffset: 0; stroke-linejoin: miter; stroke-miterlimit: 4; fill: rgb(35,31,32); fill-rule: nonzero; opacity: 1;"  paint-order="stroke"  transform=" translate(-8.35, 10.85)" d="M 14.88 -4.55 L 7.42 -4.55 C 7.11 -4.55 6.93 -4.69 6.93 -5.04 L 6.93 -16.7 C 6.93 -17.05 7.11 -17.15 7.42 -17.15 L 14.88 -17.15 L 14.88 -21.7 L 7.98 -21.7 C 3.89 -21.7 1.82 -19.85 1.82 -16.24 L 1.82 -5.46 C 1.82 -1.86 3.89 0 7.98 0 L 14.88 0 Z" stroke-linecap="round" />
</g>
</g>
</g>
<g transform="matrix(0.8482768321494161 1.723733887997294 -1.7237338879972943 0.8482768321494162 1012.5621970072106 293.2865000472249)" id="6a635300-993d-400f-ba94-38123e1a6702-path-group"  >
<g style=""  paint-order="stroke"   >
		<g transform="matrix(1 0 0 1 0 0)" id="6f9d046e-e6b0-4b3d-8b9a-d3761053c2c3-path-0"  >
<path style="stroke: none; stroke-width: 0; stroke-dasharray: none; stroke-linecap: butt; stroke-dashoffset: 0; stroke-linejoin: miter; stroke-miterlimit: 4; fill: rgb(35,31,32); fill-rule: nonzero; opacity: 1;"  paint-order="stroke"  transform=" translate(-8.86, 10.85)" d="M 15.51 0 L 15.51 -4.41 L 7.28 -4.41 L 7.28 -8.82 L 14.67 -8.82 L 14.67 -13.16 L 7.28 -13.16 L 7.28 -17.29 L 15.33 -17.29 L 15.33 -21.7 L 2.21 -21.7 L 2.21 0 Z" stroke-linecap="round" />
</g>
</g>
</g>
<g transform="matrix(0.9851268122160416 1.649350558384959 -1.649350558384959 0.9851268122160416 996.0541148611537 262.8209129161709)" id="ee334047-0722-41ea-b225-d814090af8fb-path-group"  >
<g style=""  paint-order="stroke"   >
		<g transform="matrix(1 0 0 1 0 0)" id="c5df2ef3-629a-49c0-9496-0619dfb435a9-path-0"  >
<path style="stroke: none; stroke-width: 0; stroke-dasharray: none; stroke-linecap: butt; stroke-dashoffset: 0; stroke-linejoin: miter; stroke-miterlimit: 4; fill: rgb(35,31,32); fill-rule: nonzero; opacity: 1;"  paint-order="stroke"  transform=" translate(-7.635, 10.85)" d="M 10.15 0 L 10.15 -17.29 L 15.09 -17.29 L 15.09 -21.7 L 0.18 -21.7 L 0.18 -17.29 L 5.11 -17.29 L 5.11 0 Z" stroke-linecap="round" />
</g>
</g>
</g>
<g transform="matrix(1.1311695257461032 1.5528321237709672 -1.5528321237709672 1.1311695257461032 975.2611096115738 231.3523419308632)" id="7d5e873a-672e-479d-90d0-cdcfe7d302a6-path-group"  >
<g style=""  paint-order="stroke"   >
		<g transform="matrix(1 0 0 1 0 0)" id="68bc8adb-6e3c-4017-b7cc-4597264c3593-path-0"  >
<path style="stroke: none; stroke-width: 0; stroke-dasharray: none; stroke-linecap: butt; stroke-dashoffset: 0; stroke-linejoin: miter; stroke-miterlimit: 4; fill: rgb(35,31,32); fill-rule: nonzero; opacity: 1;"  paint-order="stroke"  transform=" translate(-10.255, 10.85)" d="M 13.02 -17.5 C 13.34 -17.5 13.51 -17.36 13.51 -17.01 L 13.51 -4.69 C 13.51 -4.34 13.34 -4.2 13.02 -4.2 L 7.49 -4.2 C 7.18 -4.2 7 -4.34 7 -4.69 L 7 -17.01 C 7 -17.36 7.18 -17.5 7.49 -17.5 Z M 1.89 -5.11 C 1.89 -1.51 3.92 0.35 8.02 0.35 L 12.46 0.35 C 16.56 0.35 18.62 -1.51 18.62 -5.11 L 18.62 -16.59 C 18.62 -20.2 16.56 -22.05 12.46 -22.05 L 8.02 -22.05 C 3.92 -22.05 1.89 -20.2 1.89 -16.59 Z" stroke-linecap="round" />
</g>
</g>
</g>
<g transform="matrix(1.28162805258607 1.431174914333029 -1.431174914333029 1.2816280525860702 950.245306024385 200.01191467708088)" id="f06de448-3117-4f6a-9442-8828de07cead-path-group"  >
<g style=""  paint-order="stroke"   >
		<g transform="matrix(0.9999999999999998 0 0 0.9999999999999998 0 0)" id="69e7e1dc-ef50-420d-ab52-130bcacedcbb-path-0"  >
<path style="stroke: none; stroke-width: 0; stroke-dasharray: none; stroke-linecap: butt; stroke-dashoffset: 0; stroke-linejoin: miter; stroke-miterlimit: 4; fill: rgb(35,31,32); fill-rule: nonzero; opacity: 1;"  paint-order="stroke"  transform=" translate(-10.605, 10.940848163959446)" d="M 7.46 0 L 7.46 -7.77 L 10.85 -7.77 C 11.27 -7.77 11.27 -7.6 11.41 -7.21 L 13.79 0 L 18.83 0 L 16.73 -6.02 C 16.28 -7.25 15.72 -7.98 14.91 -8.47 C 16.94 -9.45 17.96 -11.41 17.96 -13.62 L 17.96 -16.24 C 17.96 -19.85 15.72 -21.95 11.62 -21.88 L 2.38 -21.7 L 2.38 0 Z M 12.36 -17.47 C 12.67 -17.47 12.81 -17.33 12.81 -16.98 L 12.81 -12.6 C 12.81 -12.25 12.67 -12.15 12.36 -12.15 L 7.46 -12.15 L 7.46 -17.47 Z" stroke-linecap="round" />
</g>
</g>
</g>
<g transform="matrix(1.4138671333817427 1.3006966709170167 -1.3006966709170167 1.4138671333817427 922.3436173998182 171.49694876799725)" id="6581a47c-306c-4ac5-9564-f4f2dd8a7759-path-group"  >
<g style=""  paint-order="stroke"   >
		<g transform="matrix(0.9999999999999999 0 0 1.0000000000000002 0 0)" id="380d3a19-748e-458e-b059-f36f7f929ca1-path-0"  >
<path style="stroke: none; stroke-width: 0; stroke-dasharray: none; stroke-linecap: butt; stroke-dashoffset: 0; stroke-linejoin: miter; stroke-miterlimit: 4; fill: rgb(35,31,32); fill-rule: nonzero; opacity: 1;"  paint-order="stroke"  transform=" translate(-10.115000000000002, 10.940848163959446)" d="M 7.46 0 L 7.46 -7.14 L 11.52 -7.14 C 15.61 -7.14 17.85 -9.7 17.85 -12.95 L 17.85 -16.24 C 17.85 -19.85 15.61 -21.95 11.52 -21.88 L 2.38 -21.7 L 2.38 0 Z M 12.25 -17.47 C 12.57 -17.47 12.71 -17.33 12.71 -16.98 L 12.71 -12.04 C 12.71 -11.69 12.57 -11.55 12.25 -11.55 L 7.46 -11.55 L 7.46 -17.47 Z" stroke-linecap="round" />
</g>
</g>
</g>
<g transform="matrix(1.4945733336107812 1.2070967861158746 -1.2070967861158746 1.4945733336107814 892.7608921717024 173.36056645479266)" id="2fe106b1-85e1-4edb-96a2-ff417461de20-path-group"  >
<g style=""  paint-order="stroke"   >
		<g transform="matrix(1 0 0 1 0 0)" id="53a14202-6994-416f-9a47-d6808d7ac5a9-path-0"  >
<path style="stroke: none; stroke-width: 0; stroke-dasharray: none; stroke-linecap: butt; stroke-dashoffset: 0; stroke-linejoin: miter; stroke-miterlimit: 4; fill: rgb(35,31,32); fill-rule: nonzero; opacity: 1;"  paint-order="stroke"  transform=" translate(0, 0)" d="" stroke-linecap="round" />
</g>
</g>
</g>
<g transform="matrix(1.5708259075065354 1.1060461423005752 -1.1060461423005754 1.5708259075065356 878.9641697874807 136.58798001276693)" id="59035d04-a5de-47c5-8091-5b21de9b040b-path-group"  >
<g style=""  paint-order="stroke"   >
		<g transform="matrix(0.9999999999999997 0 -5.551e-17 1.0000000000000002 0 0)" id="5429a7cb-6dc6-45dc-9986-713be9762c92-path-0"  >
<path style="stroke: none; stroke-width: 0; stroke-dasharray: none; stroke-linecap: butt; stroke-dashoffset: 0; stroke-linejoin: miter; stroke-miterlimit: 4; fill: rgb(35,31,32); fill-rule: nonzero; opacity: 1;"  paint-order="stroke"  transform=" translate(-9.49, 10.85)" d="M 11.94 0 L 11.94 -7.56 C 13.55 -7.91 14.07 -8.82 14.91 -11.1 L 18.8 -21.7 L 13.79 -21.7 L 10.5 -12.25 C 10.4 -11.9 10.26 -11.8 9.94 -11.8 L 9.24 -11.8 C 8.89 -11.8 8.79 -11.9 8.68 -12.25 L 5.46 -21.7 L 0.18 -21.7 L 3.92 -11.13 C 4.66 -9.1 5.29 -8.12 6.86 -7.67 L 6.86 0 Z" stroke-linecap="round" />
</g>
</g>
</g>
<g transform="matrix(1.6613305422879443 0.9647864685270836 -0.9647864685270836 1.6613305422879443 849.7633042496848 117.80630465317023)" id="bb5072ba-5b4f-4efe-9030-7b2cf95b6a2f-path-group"  >
<g style=""  paint-order="stroke"   >
		<g transform="matrix(1 0 0 1 0 0)" id="880acc6e-c0bb-4085-8a2b-7b0ec3bc3dea-path-0"  >
<path style="stroke: none; stroke-width: 0; stroke-dasharray: none; stroke-linecap: butt; stroke-dashoffset: 0; stroke-linejoin: miter; stroke-miterlimit: 4; fill: rgb(35,31,32); fill-rule: nonzero; opacity: 1;"  paint-order="stroke"  transform=" translate(-8.35, 10.85)" d="M 14.88 -4.55 L 7.42 -4.55 C 7.11 -4.55 6.93 -4.69 6.93 -5.04 L 6.93 -16.7 C 6.93 -17.05 7.11 -17.15 7.42 -17.15 L 14.88 -17.15 L 14.88 -21.7 L 7.98 -21.7 C 3.89 -21.7 1.82 -19.85 1.82 -16.24 L 1.82 -5.46 C 1.82 -1.86 3.89 0 7.98 0 L 14.88 0 Z" stroke-linecap="round" />
</g>
</g>
</g>
<g transform="matrix(1.7395307834336564 0.8153923927032961 -0.8153923927032962 1.7395307834336566 816.5356822885202 100.14161386552883)" id="d7898760-818a-4b44-a174-9b758379baf3-path-group"  >
<g style=""  paint-order="stroke"   >
		<g transform="matrix(1 0 0 1 0 0)" id="f6cbcaf8-74b6-4ced-b85b-18e9c26a8e65-path-0"  >
<path style="stroke: none; stroke-width: 0; stroke-dasharray: none; stroke-linecap: butt; stroke-dashoffset: 0; stroke-linejoin: miter; stroke-miterlimit: 4; fill: rgb(35,31,32); fill-rule: nonzero; opacity: 1;"  paint-order="stroke"  transform=" translate(-9.645, 10.943416714864588)" d="M 19.04 0 L 14.46 -21.7 L 9.52 -21.88 C 6.37 -21.98 5.46 -21 4.69 -17.78 L 0.25 0 L 4.97 0 L 6.06 -4.83 L 13.06 -4.83 L 14 0 Z M 8.82 -16.87 C 8.89 -17.22 8.96 -17.36 9.31 -17.36 L 10.61 -17.36 L 12.22 -9.17 L 7.04 -9.17 Z" stroke-linecap="round" />
</g>
</g>
</g>
<g transform="matrix(1.809865452600984 0.6443750026755781 -0.6443750026755781 1.809865452600984 779.4925070838852 85.23743963377495)" id="e7d8018f-af6c-4fed-af68-58159394cbb2-path-group"  >
<g style=""  paint-order="stroke"   >
		<g transform="matrix(1 0 5.551e-17 1.0000000000000007 0 0)" id="68791432-ea0a-4eb4-8e42-f3c19d2ed83a-path-0"  >
<path style="stroke: none; stroke-width: 0; stroke-dasharray: none; stroke-linecap: butt; stroke-dashoffset: 0; stroke-linejoin: miter; stroke-miterlimit: 4; fill: rgb(35,31,32); fill-rule: nonzero; opacity: 1;"  paint-order="stroke"  transform=" translate(-9.295, 10.778373002598153)" d="M 14.35 -3.92 L 18.41 -21.7 L 13.69 -21.7 L 10.08 -4.9 C 10.01 -4.55 9.94 -4.41 9.59 -4.41 L 8.4 -4.41 L 5.15 -21.7 L 0.18 -21.7 L 4.48 0 L 9.91 0.14 C 12.99 0.21 13.62 -0.84 14.35 -3.92 Z" stroke-linecap="round" />
</g>
</g>
</g>
<g transform="matrix(1.8521849651199243 0.5101401332726347 -0.5101401332726349 1.8521849651199245 750.6179127030551 75.98663952670614)" id="41e4362f-d0ab-41f3-9dbc-a7931637c0eb-path-group"  >
<g style=""  paint-order="stroke"   >
		<g transform="matrix(0.9999999999999996 0 0 1 0 0)" id="de3bde48-5279-4453-8170-823bb8a24434-path-0"  >
<path style="stroke: none; stroke-width: 0; stroke-dasharray: none; stroke-linecap: butt; stroke-dashoffset: 0; stroke-linejoin: miter; stroke-miterlimit: 4; fill: rgb(35,31,32); fill-rule: nonzero; opacity: 1;"  paint-order="stroke"  transform=" translate(-5.095000000000001, 10.85)" d="M 7.63 0 L 7.63 -21.7 L 2.56 -21.7 L 2.56 0 Z" stroke-linecap="round" />
</g>
</g>
</g>
<g transform="matrix(1.8854745466502614 0.3685347127825382 -0.3685347127825382 1.8854745466502616 721.7070943657127 68.95078804299118)" id="998c9237-93e2-4736-a5eb-5992a84640f0-path-group"  >
<g style=""  paint-order="stroke"   >
		<g transform="matrix(1 0 0 1 0 0)" id="559cd152-5508-4293-bdb4-f7339445be48-path-0"  >
<path style="stroke: none; stroke-width: 0; stroke-dasharray: none; stroke-linecap: butt; stroke-dashoffset: 0; stroke-linejoin: miter; stroke-miterlimit: 4; fill: rgb(35,31,32); fill-rule: nonzero; opacity: 1;"  paint-order="stroke"  transform=" translate(-10.605, 10.940848163959446)" d="M 7.46 0 L 7.46 -7.77 L 10.85 -7.77 C 11.27 -7.77 11.27 -7.6 11.41 -7.21 L 13.79 0 L 18.83 0 L 16.73 -6.02 C 16.28 -7.25 15.72 -7.98 14.91 -8.47 C 16.94 -9.45 17.96 -11.41 17.96 -13.62 L 17.96 -16.24 C 17.96 -19.85 15.72 -21.95 11.62 -21.88 L 2.38 -21.7 L 2.38 0 Z M 12.36 -17.47 C 12.67 -17.47 12.81 -17.33 12.81 -16.98 L 12.81 -12.6 C 12.81 -12.25 12.67 -12.15 12.36 -12.15 L 7.46 -12.15 L 7.46 -17.47 Z" stroke-linecap="round" />
</g>
</g>
</g>
<g transform="matrix(1.9122545293585707 0.18470169338516454 -0.18470169338516454 1.9122545293585707 682.2554230699803 63.03625239688955)" id="58a52628-62a1-46e3-9b14-82c524498eb4-path-group"  >
<g style=""  paint-order="stroke"   >
		<g transform="matrix(1 0 0 1 0 -3.55271e-15)" id="47e33bc6-6d9b-4981-b1db-22fe09a2567a-path-0"  >
<path style="stroke: none; stroke-width: 0; stroke-dasharray: none; stroke-linecap: butt; stroke-dashoffset: 0; stroke-linejoin: miter; stroke-miterlimit: 4; fill: rgb(35,31,32); fill-rule: nonzero; opacity: 1;"  paint-order="stroke"  transform=" translate(-10.115000000000002, 10.940848163959446)" d="M 7.46 0 L 7.46 -7.14 L 11.52 -7.14 C 15.61 -7.14 17.85 -9.7 17.85 -12.95 L 17.85 -16.24 C 17.85 -19.85 15.61 -21.95 11.52 -21.88 L 2.38 -21.7 L 2.38 0 Z M 12.25 -17.47 C 12.57 -17.47 12.71 -17.33 12.71 -16.98 L 12.71 -12.04 C 12.71 -11.69 12.57 -11.55 12.25 -11.55 L 7.46 -11.55 L 7.46 -17.47 Z" stroke-linecap="round" />
</g>
</g>
</g>
<g transform="matrix(1.9201735149123003 0.061365896237715836 -0.061365896237715836 1.9201735149123003 659.7742544277343 82.36212019106847)" id="738cc876-3618-44de-b7b6-48932c7e9a5b-path-group"  >
<g style=""  paint-order="stroke"   >
		<g transform="matrix(0.9999999999999979 0 -6.245e-17 1 0 0)" id="80d27931-e9af-4070-ba63-19fc7f9e32b3-path-0"  >
<path style="stroke: none; stroke-width: 0; stroke-dasharray: none; stroke-linecap: butt; stroke-dashoffset: 0; stroke-linejoin: miter; stroke-miterlimit: 4; fill: rgb(35,31,32); fill-rule: nonzero; opacity: 1;"  paint-order="stroke"  transform=" translate(0, 0)" d="" stroke-linecap="round" />
</g>
</g>
</g>
<g transform="matrix(1.9206353030679941 -0.044633319399645204 0.04463331939964521 1.9206353030679943 633.055811741557 61.18351495187244)" id="8c6dc8b1-04d4-4b0a-846c-a0f9f11e5b8a-path-group"  >
<g style=""  paint-order="stroke"   >
		<g transform="matrix(1 0 0 1 0 0)" id="272acddc-73a4-4fbd-9fd5-42ce93ab23b9-path-0"  >
<path style="stroke: none; stroke-width: 0; stroke-dasharray: none; stroke-linecap: butt; stroke-dashoffset: 0; stroke-linejoin: miter; stroke-miterlimit: 4; fill: rgb(35,31,32); fill-rule: nonzero; opacity: 1;"  paint-order="stroke"  transform=" translate(-8.440000000000001, 10.85)" d="M 14.67 -4.41 L 7.28 -4.41 L 7.28 -21.7 L 2.21 -21.7 L 2.21 0 L 14.67 0 Z" stroke-linecap="round" />
</g>
</g>
</g>
<g transform="matrix(1.9095599178725773 -0.21074396941832613 0.21074396941832615 1.9095599178725775 595.360834973601 63.426493618293364)" id="25befb7a-ef23-4a43-8ecb-51feadf1096a-path-group"  >
<g style=""  paint-order="stroke"   >
		<g transform="matrix(1 0 0 1 0 0)" id="03d5edf1-b5c9-46a0-ac83-f1a791c716ce-path-0"  >
<path style="stroke: none; stroke-width: 0; stroke-dasharray: none; stroke-linecap: butt; stroke-dashoffset: 0; stroke-linejoin: miter; stroke-miterlimit: 4; fill: rgb(35,31,32); fill-rule: nonzero; opacity: 1;"  paint-order="stroke"  transform=" translate(-9.645, 10.943416714864588)" d="M 19.04 0 L 14.46 -21.7 L 9.52 -21.88 C 6.37 -21.98 5.46 -21 4.69 -17.78 L 0.25 0 L 4.97 0 L 6.06 -4.83 L 13.06 -4.83 L 14 0 Z M 8.82 -16.87 C 8.89 -17.22 8.96 -17.36 9.31 -17.36 L 10.61 -17.36 L 12.22 -9.17 L 7.04 -9.17 Z" stroke-linecap="round" />
</g>
</g>
</g>
<g transform="matrix(1.8784971138139994 -0.4025924663778362 0.40259246637783624 1.8784971138139996 553.9611647129892 70.29989825714455)" id="9ac3abe5-a840-4c0f-b4b5-9530682ec50b-path-group"  >
<g style=""  paint-order="stroke"   >
		<g transform="matrix(0.9999999999999999 0 0 1 0 0)" id="0686f897-dfb5-4812-a5a4-f796742683be-path-0"  >
<path style="stroke: none; stroke-width: 0; stroke-dasharray: none; stroke-linecap: butt; stroke-dashoffset: 0; stroke-linejoin: miter; stroke-miterlimit: 4; fill: rgb(35,31,32); fill-rule: nonzero; opacity: 1;"  paint-order="stroke"  transform=" translate(-10.255, 10.85)" d="M 15.05 0 L 18.62 0 L 18.62 -21.7 L 14.28 -21.7 L 14.28 -8.68 L 5.43 -21.7 L 1.89 -21.7 L 1.89 0 L 6.23 0 L 6.23 -13.02 Z" stroke-linecap="round" />
</g>
</g>
</g>
<g transform="matrix(1.8262218806350563 -0.5964442499357949 0.5964442499357949 1.8262218806350565 512.1946125270875 81.55959140732477)" id="70a716f7-a12a-4370-b3f2-1efd669b013e-path-group"  >
<g style=""  paint-order="stroke"   >
		<g transform="matrix(1 0 0 1 0 0)" id="43f9849a-5ad0-46bc-be93-f699e5c533d6-path-0"  >
<path style="stroke: none; stroke-width: 0; stroke-dasharray: none; stroke-linecap: butt; stroke-dashoffset: 0; stroke-linejoin: miter; stroke-miterlimit: 4; fill: rgb(35,31,32); fill-rule: nonzero; opacity: 1;"  paint-order="stroke"  transform=" translate(-10.255, 10.85)" d="M 13.02 -17.5 C 13.34 -17.5 13.51 -17.36 13.51 -17.01 L 13.51 -4.69 C 13.51 -4.34 13.34 -4.2 13.02 -4.2 L 7.49 -4.2 C 7.18 -4.2 7 -4.34 7 -4.69 L 7 -17.01 C 7 -17.36 7.18 -17.5 7.49 -17.5 Z M 1.89 -5.11 C 1.89 -1.51 3.92 0.35 8.02 0.35 L 12.46 0.35 C 16.56 0.35 18.62 -1.51 18.62 -5.11 L 18.62 -16.59 C 18.62 -20.2 16.56 -22.05 12.46 -22.05 L 8.02 -22.05 C 3.92 -22.05 1.89 -20.2 1.89 -16.59 Z" stroke-linecap="round" />
</g>
</g>
</g>
<g transform="matrix(1.761449131156247 -0.7668957288579842 0.7668957288579843 1.7614491311562472 475.51604818333954 95.49407135816028)" id="f0505fa7-3d14-47f3-b0e2-7c6c2e464e88-path-group"  >
<g style=""  paint-order="stroke"   >
		<g transform="matrix(1 0 0 1 0 0)" id="c44662a1-609f-4b2f-b4c6-7894e175a94b-path-0"  >
<path style="stroke: none; stroke-width: 0; stroke-dasharray: none; stroke-linecap: butt; stroke-dashoffset: 0; stroke-linejoin: miter; stroke-miterlimit: 4; fill: rgb(35,31,32); fill-rule: nonzero; opacity: 1;"  paint-order="stroke"  transform=" translate(-8.4, 10.85000739534679)" d="M 6.55 -13.2 C 6.23 -13.2 6.06 -13.34 6.06 -13.69 L 6.06 -16.8 C 6.06 -17.15 6.23 -17.29 6.55 -17.29 L 15.09 -17.29 L 15.09 -21.7 L 7.25 -21.88 C 3.15 -21.98 0.91 -19.85 0.91 -16.24 L 0.91 -14.35 C 0.91 -10.75 3.15 -8.61 7.25 -8.61 L 10.29 -8.61 C 10.61 -8.61 10.78 -8.47 10.78 -8.12 L 10.78 -4.9 C 10.78 -4.55 10.61 -4.41 10.29 -4.41 L 1.47 -4.41 L 1.47 0 L 9.56 0.18 C 13.65 0.28 15.89 -1.86 15.89 -5.46 L 15.89 -7.46 C 15.89 -11.06 13.65 -13.2 9.56 -13.2 Z" stroke-linecap="round" />
</g>
</g>
</g>
<g transform="matrix(1.6839167945066966 -0.9248006973234871 0.9248006973234871 1.6839167945066966 442.7623665242865 111.30070302826834)" id="ae651376-defc-47bc-83ee-ecc81d4cd27a-path-group"  >
<g style=""  paint-order="stroke"   >
		<g transform="matrix(1 0 0 1 0 0)" id="9d3400ab-edf7-4cd5-b9a7-b804e8660aa5-path-0"  >
<path style="stroke: none; stroke-width: 0; stroke-dasharray: none; stroke-linecap: butt; stroke-dashoffset: 0; stroke-linejoin: miter; stroke-miterlimit: 4; fill: rgb(35,31,32); fill-rule: nonzero; opacity: 1;"  paint-order="stroke"  transform=" translate(-10.605, 10.940848163959446)" d="M 7.46 0 L 7.46 -7.77 L 10.85 -7.77 C 11.27 -7.77 11.27 -7.6 11.41 -7.21 L 13.79 0 L 18.83 0 L 16.73 -6.02 C 16.28 -7.25 15.72 -7.98 14.91 -8.47 C 16.94 -9.45 17.96 -11.41 17.96 -13.62 L 17.96 -16.24 C 17.96 -19.85 15.72 -21.95 11.62 -21.88 L 2.38 -21.7 L 2.38 0 Z M 12.36 -17.47 C 12.67 -17.47 12.81 -17.33 12.81 -16.98 L 12.81 -12.6 C 12.81 -12.25 12.67 -12.15 12.36 -12.15 L 7.46 -12.15 L 7.46 -17.47 Z" stroke-linecap="round" />
</g>
</g>
</g>
<g transform="matrix(1.591785434529527 -1.0756631587125047 1.0756631587125045 1.5917854345295268 409.84613334223496 131.4510120468516)" id="f857eb74-3ae5-4ee6-ab8f-a707053e22e2-path-group"  >
<g style=""  paint-order="stroke"   >
		<g transform="matrix(1 0 0 1 0 0)" id="5882829e-7d63-4b5a-8682-5c87a40be80f-path-0"  >
<path style="stroke: none; stroke-width: 0; stroke-dasharray: none; stroke-linecap: butt; stroke-dashoffset: 0; stroke-linejoin: miter; stroke-miterlimit: 4; fill: rgb(35,31,32); fill-rule: nonzero; opacity: 1;"  paint-order="stroke"  transform=" translate(-8.86, 10.85)" d="M 15.51 0 L 15.51 -4.41 L 7.28 -4.41 L 7.28 -8.82 L 14.67 -8.82 L 14.67 -13.16 L 7.28 -13.16 L 7.28 -17.29 L 15.33 -17.29 L 15.33 -21.7 L 2.21 -21.7 L 2.21 0 Z" stroke-linecap="round" />
</g>
</g>
</g>
<g transform="matrix(1.4913318353023528 -1.2110992765274993 1.2110992765274995 1.4913318353023528 381.0061470624694 152.47156571123503)" id="9b2e97fb-99f5-40de-9108-ab2dbf23e62c-path-group"  >
<g style=""  paint-order="stroke"   >
		<g transform="matrix(1 0 0 1 0 0)" id="88210821-61b8-44f2-9d55-c95d8e523fe8-path-0"  >
<path style="stroke: none; stroke-width: 0; stroke-dasharray: none; stroke-linecap: butt; stroke-dashoffset: 0; stroke-linejoin: miter; stroke-miterlimit: 4; fill: rgb(35,31,32); fill-rule: nonzero; opacity: 1;"  paint-order="stroke"  transform=" translate(-10.115000000000002, 10.940848163959446)" d="M 7.46 0 L 7.46 -7.14 L 11.52 -7.14 C 15.61 -7.14 17.85 -9.7 17.85 -12.95 L 17.85 -16.24 C 17.85 -19.85 15.61 -21.95 11.52 -21.88 L 2.38 -21.7 L 2.38 0 Z M 12.25 -17.47 C 12.57 -17.47 12.71 -17.33 12.71 -16.98 L 12.71 -12.04 C 12.71 -11.69 12.57 -11.55 12.25 -11.55 L 7.46 -11.55 L 7.46 -17.47 Z" stroke-linecap="round" />
</g>
</g>
</g>
<g transform="matrix(1.410374991503395 -1.3044824582697596 1.3044824582697596 1.4103749915033952 378.5748728554741 182.0172397123966)" id="9b5ecba9-df4e-4492-9898-9817f9cb6279-path-group"  >
<g style=""  paint-order="stroke"   >
		<g transform="matrix(1 0 0 1 0 0)" id="a58901d2-feb6-4481-8037-e7b3cdac6654-path-0"  >
<path style="stroke: none; stroke-width: 0; stroke-dasharray: none; stroke-linecap: butt; stroke-dashoffset: 0; stroke-linejoin: miter; stroke-miterlimit: 4; fill: rgb(35,31,32); fill-rule: nonzero; opacity: 1;"  paint-order="stroke"  transform=" translate(0, 0)" d="" stroke-linecap="round" />
</g>
</g>
</g>
<g transform="matrix(1.336280376289925 -1.3802850635046997 1.3802850635046997 1.336280376289925 344.6679156864398 185.69793999759753)" id="8084f3f8-5397-417a-8055-db62114d6191-path-group"  >
<g style=""  paint-order="stroke"   >
		<g transform="matrix(1 0 0 1 0 0)" id="5dc7f0c1-b303-4961-a0ac-2290b13b7128-path-0"  >
<path style="stroke: none; stroke-width: 0; stroke-dasharray: none; stroke-linecap: butt; stroke-dashoffset: 0; stroke-linejoin: miter; stroke-miterlimit: 4; fill: rgb(35,31,32); fill-rule: nonzero; opacity: 1;"  paint-order="stroke"  transform=" translate(-8.440000000000001, 10.85)" d="M 14.67 -4.41 L 7.28 -4.41 L 7.28 -21.7 L 2.21 -21.7 L 2.21 0 L 14.67 0 Z" stroke-linecap="round" />
</g>
</g>
</g>
<g transform="matrix(1.2117655127606952 -1.4907905428582267 1.4907905428582269 1.2117655127606952 319.40481494954554 213.75895972297792)" id="f5c7ab38-198f-428a-8fa4-2efa939d83ba-path-group"  >
<g style=""  paint-order="stroke"   >
		<g transform="matrix(1 0 0 1 0 0)" id="998685be-f49d-40d5-ac7b-72fd2e98273f-path-0"  >
<path style="stroke: none; stroke-width: 0; stroke-dasharray: none; stroke-linecap: butt; stroke-dashoffset: 0; stroke-linejoin: miter; stroke-miterlimit: 4; fill: rgb(35,31,32); fill-rule: nonzero; opacity: 1;"  paint-order="stroke"  transform=" translate(-9.645, 10.943416714864588)" d="M 19.04 0 L 14.46 -21.7 L 9.52 -21.88 C 6.37 -21.98 5.46 -21 4.69 -17.78 L 0.25 0 L 4.97 0 L 6.06 -4.83 L 13.06 -4.83 L 14 0 Z M 8.82 -16.87 C 8.89 -17.22 8.96 -17.36 9.31 -17.36 L 10.61 -17.36 L 12.22 -9.17 L 7.04 -9.17 Z" stroke-linecap="round" />
</g>
</g>
</g>
<g transform="matrix(1.0763742931588303 -1.5913046476456179 1.5913046476456179 1.0763742931588303 297.82859270604024 243.10659089849634)" id="2b0631ab-d13b-48f9-9a52-875f5e9f0e09-path-group"  >
<g style=""  paint-order="stroke"   >
		<g transform="matrix(0.9999999999999997 0 0 0.9999999999999997 0 0)" id="eecef737-b246-46d4-8bc5-9e06d204afbb-path-0"  >
<path style="stroke: none; stroke-width: 0; stroke-dasharray: none; stroke-linecap: butt; stroke-dashoffset: 0; stroke-linejoin: miter; stroke-miterlimit: 4; fill: rgb(35,31,32); fill-rule: nonzero; opacity: 1;"  paint-order="stroke"  transform=" translate(-7.635, 10.85)" d="M 10.15 0 L 10.15 -17.29 L 15.09 -17.29 L 15.09 -21.7 L 0.18 -21.7 L 0.18 -17.29 L 5.11 -17.29 L 5.11 0 Z" stroke-linecap="round" />
</g>
</g>
</g>
<g transform="matrix(0.9710891810802419 -1.6576543376049848 1.6576543376049848 0.971089181080242 283.53392050244946 265.7886447990501)" id="927264ea-fd6b-4dbc-b868-344ad73d3f1d-path-group"  >
<g style=""  paint-order="stroke"   >
		<g transform="matrix(1 0 0 1 0 0)" id="5a16d97b-06db-41f1-806b-590aa482f1a9-path-0"  >
<path style="stroke: none; stroke-width: 0; stroke-dasharray: none; stroke-linecap: butt; stroke-dashoffset: 0; stroke-linejoin: miter; stroke-miterlimit: 4; fill: rgb(35,31,32); fill-rule: nonzero; opacity: 1;"  paint-order="stroke"  transform=" translate(-5.095000000000001, 10.85)" d="M 7.63 0 L 7.63 -21.7 L 2.56 -21.7 L 2.56 0 Z" stroke-linecap="round" />
</g>
</g>
</g>
<g transform="matrix(0.8455800991628754 -1.7250583748068984 1.7250583748068984 0.8455800991628755 269.16967793179236 292.4974139451334)" id="4505bfed-a3c1-45f5-a37d-c289ff474a7c-path-group"  >
<g style=""  paint-order="stroke"   >
		<g transform="matrix(1 0 0 1 0 0)" id="961d5f9c-6010-4bb1-a48a-b784480465ca-path-0"  >
<path style="stroke: none; stroke-width: 0; stroke-dasharray: none; stroke-linecap: butt; stroke-dashoffset: 0; stroke-linejoin: miter; stroke-miterlimit: 4; fill: rgb(35,31,32); fill-rule: nonzero; opacity: 1;"  paint-order="stroke"  transform=" translate(-9.66, 10.85)" d="M 11.27 0.35 C 15.37 0.35 17.43 -1.51 17.43 -5.11 L 17.43 -12.25 L 10.26 -12.25 L 10.26 -8.02 L 12.64 -8.02 L 12.64 -4.69 C 12.64 -4.34 12.5 -4.2 12.18 -4.2 L 7.49 -4.2 C 7.18 -4.2 7 -4.34 7 -4.69 L 7 -17.01 C 7 -17.36 7.18 -17.5 7.49 -17.5 L 16.98 -17.5 L 16.98 -22.05 L 8.02 -22.05 C 3.92 -22.05 1.89 -20.2 1.89 -16.59 L 1.89 -5.11 C 1.89 -1.51 3.92 0.35 8.02 0.35 Z" stroke-linecap="round" />
</g>
</g>
</g>
<g transform="matrix(0.7154211841583454 -1.7829763402381948 1.7829763402381948 0.7154211841583454 256.52468153057185 320.87209742173957)" id="d762f48d-495f-460e-b41d-b719febf5ae8-path-group"  >
<g style=""  paint-order="stroke"   >
		<g transform="matrix(1 0 0 1 0 0)" id="a807be21-f275-48a4-8840-73c1843e7127-path-0"  >
<path style="stroke: none; stroke-width: 0; stroke-dasharray: none; stroke-linecap: butt; stroke-dashoffset: 0; stroke-linejoin: miter; stroke-miterlimit: 4; fill: rgb(35,31,32); fill-rule: nonzero; opacity: 1;"  paint-order="stroke"  transform=" translate(-5.095000000000001, 10.85)" d="M 7.63 0 L 7.63 -21.7 L 2.56 -21.7 L 2.56 0 Z" stroke-linecap="round" />
</g>
</g>
</g>
<g transform="matrix(0.5755981690694024 -1.8328990284125495 1.8328990284125495 0.5755981690694024 245.84909035075435 350.7405733046802)" id="0d813290-59bc-47a7-a422-0e0585b50161-path-group"  >
<g style=""  paint-order="stroke"   >
		<g transform="matrix(1 0 0 1 0 0)" id="1c5b657f-f42b-496d-bf7a-320df50e301a-path-0"  >
<path style="stroke: none; stroke-width: 0; stroke-dasharray: none; stroke-linecap: butt; stroke-dashoffset: 0; stroke-linejoin: miter; stroke-miterlimit: 4; fill: rgb(35,31,32); fill-rule: nonzero; opacity: 1;"  paint-order="stroke"  transform=" translate(-10.224999999999998, 10.849999999999998)" d="M 12.64 -17.5 C 12.95 -17.5 13.13 -17.36 13.13 -17.01 L 13.13 -4.69 C 13.13 -4.34 12.95 -4.2 12.64 -4.2 L 7.28 -4.2 L 7.28 -17.5 Z M 2.21 0 L 11.94 0.18 C 16.21 0.25 18.24 -1.54 18.24 -5.46 L 18.24 -16.24 C 18.24 -20.16 16.21 -21.95 11.94 -21.88 L 2.21 -21.7 Z" stroke-linecap="round" />
</g>
</g>
</g>
<g transform="matrix(0.4482131788957642 -1.868137320128226 1.8681373201282263 0.44821317889576423 259.95517712365995 376.9610501864949)" id="cccde8c6-83de-4fc5-b3a6-0b3aec776a09-path-group"  >
<g style=""  paint-order="stroke"   >
		<g transform="matrix(1 0 0 1 0 0)" id="0e924a63-cc94-4964-8d62-c56188fcf141-path-0"  >
<path style="stroke: none; stroke-width: 0; stroke-dasharray: none; stroke-linecap: butt; stroke-dashoffset: 0; stroke-linejoin: miter; stroke-miterlimit: 4; fill: rgb(35,31,32); fill-rule: nonzero; opacity: 1;"  paint-order="stroke"  transform=" translate(0, 0)" d="" stroke-linecap="round" />
</g>
</g>
</g>
<g transform="matrix(0.3242078014691338 -1.893600116724296 1.893600116724296 0.3242078014691338 232.6754430906533 405.2083242021358)" id="5e0e95f5-6d17-4de9-a6af-63cfcea53ec1-path-group"  >
<g style=""  paint-order="stroke"   >
		<g transform="matrix(1 0 0 1 0 0)" id="d10996db-52ba-49fb-a38e-307141163aab-path-0"  >
<path style="stroke: none; stroke-width: 0; stroke-dasharray: none; stroke-linecap: butt; stroke-dashoffset: 0; stroke-linejoin: miter; stroke-miterlimit: 4; fill: rgb(35,31,32); fill-rule: nonzero; opacity: 1;"  paint-order="stroke"  transform=" translate(-9.49, 10.85)" d="M 11.94 0 L 11.94 -7.56 C 13.55 -7.91 14.07 -8.82 14.91 -11.1 L 18.8 -21.7 L 13.79 -21.7 L 10.5 -12.25 C 10.4 -11.9 10.26 -11.8 9.94 -11.8 L 9.24 -11.8 C 8.89 -11.8 8.79 -11.9 8.68 -12.25 L 5.46 -21.7 L 0.18 -21.7 L 3.92 -11.13 C 4.66 -9.1 5.29 -8.12 6.86 -7.67 L 6.86 0 Z" stroke-linecap="round" />
</g>
</g>
</g>
<g transform="matrix(0.11624354817272547 -1.9176338383799787 1.917633838379979 0.11624354817272549 227.50092088317496 449.9828115443884)" id="f9050635-afd6-4ccc-b355-5f604d24f08b-path-group"  >
<g style=""  paint-order="stroke"   >
		<g transform="matrix(0.9999999999999958 0 2.776e-17 1 0 0)" id="cbf29a6b-d73e-40c6-94f3-a9671d805bae-path-0"  >
<path style="stroke: none; stroke-width: 0; stroke-dasharray: none; stroke-linecap: butt; stroke-dashoffset: 0; stroke-linejoin: miter; stroke-miterlimit: 4; fill: rgb(35,31,32); fill-rule: nonzero; opacity: 1;"  paint-order="stroke"  transform=" translate(-11.865, 10.85)" d="M 18.76 -21.7 L 17.26 -21.7 L 11.9 -11.31 L 7.07 -20.3 C 6.51 -21.28 6.16 -21.7 4.59 -21.7 L 1.89 -21.7 L 1.89 0 L 6.34 0 L 6.34 -13.58 L 10.01 -6.2 L 13.02 -6.2 L 16.98 -13.93 L 16.98 0 L 21.84 0 L 21.84 -18.8 C 21.84 -20.86 20.97 -21.7 18.76 -21.7 Z" stroke-linecap="round" />
</g>
</g>
</g>
<g transform="matrix(0.06203423495877365 -1.9201520393668816 1.9201520393668818 0.06203423495877366 1061.4277075547636 525.168293157669)" id="60ba1d71-0a6d-4b2a-8667-32d8897451b6-path-group"  >
<g style=""  paint-order="stroke"   >
		<g transform="matrix(0.9999999999999999 0 0 1 0 0)" id="15297a61-b8e0-44b6-90c2-f19fed8d9dde-path-0"  >
<path style="stroke: none; stroke-width: 0; stroke-dasharray: none; stroke-linecap: butt; stroke-dashoffset: 0; stroke-linejoin: miter; stroke-miterlimit: 4; fill: rgb(35,31,32); fill-rule: nonzero; opacity: 1;"  paint-order="stroke"  transform=" translate(-7.154999999999999, 9.3)" d="M 12.75 -3.9 L 6.36 -3.9 C 6.09 -3.9 5.94 -4.02 5.94 -4.32 L 5.94 -14.31 C 5.94 -14.61 6.09 -14.7 6.36 -14.7 L 12.75 -14.7 L 12.75 -18.6 L 6.84 -18.6 C 3.33 -18.6 1.56 -17.01 1.56 -13.92 L 1.56 -4.68 C 1.56 -1.59 3.33 0 6.84 0 L 12.75 0 Z" stroke-linecap="round" />
</g>
</g>
</g>
<g transform="matrix(0.17980962946250145 -1.9127207317703947 1.9127207317703947 0.17980962946250145 1059.9212809344995 550.4740792822365)" id="c60a2a46-9331-409a-bc28-4ca2fbd977c5-path-group"  >
<g style=""  paint-order="stroke"   >
		<g transform="matrix(0.9999999999999998 0 0 1 0 0)" id="e534691d-d799-4840-9cf2-ff33cb74e716-path-0"  >
<path style="stroke: none; stroke-width: 0; stroke-dasharray: none; stroke-linecap: butt; stroke-dashoffset: 0; stroke-linejoin: miter; stroke-miterlimit: 4; fill: rgb(35,31,32); fill-rule: nonzero; opacity: 1;"  paint-order="stroke"  transform=" translate(-7.2299999999999995, 9.3)" d="M 12.57 -3.78 L 6.24 -3.78 L 6.24 -18.6 L 1.89 -18.6 L 1.89 0 L 12.57 0 Z" stroke-linecap="round" />
</g>
</g>
</g>
<g transform="matrix(0.29937238930953786 -1.8976849773107272 1.8976849773107274 0.2993723893095379 1056.7315039643672 576.687706441553)" id="8fb0a2ef-3920-4db2-9819-45f1b9d5d39f-path-group"  >
<g style=""  paint-order="stroke"   >
		<g transform="matrix(1 0 0 1 0 0)" id="13b2276d-f9d2-43d5-98fd-fee697fe2e41-path-0"  >
<path style="stroke: none; stroke-width: 0; stroke-dasharray: none; stroke-linecap: butt; stroke-dashoffset: 0; stroke-linejoin: miter; stroke-miterlimit: 4; fill: rgb(35,31,32); fill-rule: nonzero; opacity: 1;"  paint-order="stroke"  transform=" translate(-7.2299999999999995, 9.3)" d="M 12.57 -3.78 L 6.24 -3.78 L 6.24 -18.6 L 1.89 -18.6 L 1.89 0 L 12.57 0 Z" stroke-linecap="round" />
</g>
</g>
</g>
<g transform="matrix(0.38602683676493504 -1.881971142682314 1.8819711426823142 0.38602683676493504 1071.659579016075 595.4508357555414)" id="4ad1d597-b556-47b8-854a-c82dcee465f2-path-group"  >
<g style=""  paint-order="stroke"   >
		<g transform="matrix(1 0 0 1 0 0)" id="6b08555b-e2c1-4435-8f1a-9f460e9a2474-path-0"  >
<path style="stroke: none; stroke-width: 0; stroke-dasharray: none; stroke-linecap: butt; stroke-dashoffset: 0; stroke-linejoin: miter; stroke-miterlimit: 4; fill: rgb(35,31,32); fill-rule: nonzero; opacity: 1;"  paint-order="stroke"  transform=" translate(0, 0)" d="" stroke-linecap="round" />
</g>
</g>
</g>
<g transform="matrix(0.4791252881730084 -1.8604491551302464 1.8604491551302464 0.4791252881730084 1048.1264627734338 618.4631471240917)" id="1891620c-8ae3-497e-9869-4bbef46461ba-path-group"  >
<g style=""  paint-order="stroke"   >
		<g transform="matrix(1 0 0 1 0 0)" id="509d2f77-ccef-4863-8650-6537c6f728b7-path-0"  >
<path style="stroke: none; stroke-width: 0; stroke-dasharray: none; stroke-linecap: butt; stroke-dashoffset: 0; stroke-linejoin: miter; stroke-miterlimit: 4; fill: rgb(35,31,32); fill-rule: nonzero; opacity: 1;"  paint-order="stroke"  transform=" translate(-6.749999999999999, 9.3)" d="M 12.78 -4.68 L 12.78 -5.85 C 12.78 -7.62 12.06 -8.82 10.62 -9.45 C 11.91 -10.11 12.63 -11.25 12.63 -12.84 L 12.63 -13.92 C 12.63 -17.01 10.71 -18.84 7.2 -18.75 L 0.81 -18.6 L 0.81 -14.82 L 7.83 -14.82 C 8.1 -14.82 8.22 -14.7 8.22 -14.4 L 8.22 -11.76 C 8.22 -11.46 8.1 -11.34 7.83 -11.34 L 2.58 -11.34 L 2.58 -7.62 L 7.98 -7.62 C 8.25 -7.62 8.37 -7.5 8.37 -7.2 L 8.37 -4.2 C 8.37 -3.9 8.25 -3.78 7.98 -3.78 L 0.72 -3.78 L 0.72 0 L 7.35 0.15 C 10.86 0.24 12.78 -1.59 12.78 -4.68 Z" stroke-linecap="round" />
</g>
</g>
</g>
<g transform="matrix(0.6158038943835391 -1.819785059905093 1.819785059905093 0.6158038943835391 1039.751069537274 646.2235390118738)" id="8efd53df-b006-4ecf-8607-3ef3f59c0f46-path-group"  >
<g style=""  paint-order="stroke"   >
		<g transform="matrix(1 0 0 1 0 0)" id="e59a2b77-1e1a-45c2-8ae5-8350b3cb7848-path-0"  >
<path style="stroke: none; stroke-width: 0; stroke-dasharray: none; stroke-linecap: butt; stroke-dashoffset: 0; stroke-linejoin: miter; stroke-miterlimit: 4; fill: rgb(35,31,32); fill-rule: nonzero; opacity: 1;"  paint-order="stroke"  transform=" translate(-8.670000000000002, 9.375727006737643)" d="M 6.39 0 L 6.39 -6.12 L 9.87 -6.12 C 13.38 -6.12 15.3 -8.31 15.3 -11.1 L 15.3 -13.92 C 15.3 -17.01 13.38 -18.81 9.87 -18.75 L 2.04 -18.6 L 2.04 0 Z M 10.5 -14.97 C 10.77 -14.97 10.89 -14.85 10.89 -14.55 L 10.89 -10.32 C 10.89 -10.02 10.77 -9.9 10.5 -9.9 L 6.39 -9.9 L 6.39 -14.97 Z" stroke-linecap="round" />
</g>
</g>
</g>
<g transform="matrix(0.7622032599029797 -1.763484701148549 1.763484701148549 0.7622032599029798 1027.1635484612998 679.5549105223056)" id="70e51e89-e65b-42a5-ae30-ce5b890b943a-path-group"  >
<g style=""  paint-order="stroke"   >
		<g transform="matrix(1 0 0 1 0 0)" id="902b4b7d-45d0-4d19-93cb-c7ee4fd651df-path-0"  >
<path style="stroke: none; stroke-width: 0; stroke-dasharray: none; stroke-linecap: butt; stroke-dashoffset: 0; stroke-linejoin: miter; stroke-miterlimit: 4; fill: rgb(35,31,32); fill-rule: nonzero; opacity: 1;"  paint-order="stroke"  transform=" translate(-8.76, 9.3)" d="M 10.83 -15 C 11.1 -15 11.25 -14.88 11.25 -14.58 L 11.25 -4.02 C 11.25 -3.72 11.1 -3.6 10.83 -3.6 L 6.24 -3.6 L 6.24 -15 Z M 1.89 0 L 10.23 0.15 C 13.89 0.21 15.63 -1.32 15.63 -4.68 L 15.63 -13.92 C 15.63 -17.28 13.89 -18.81 10.23 -18.75 L 1.89 -18.6 Z" stroke-linecap="round" />
</g>
</g>
</g>
<g transform="matrix(0.9057239262415061 -1.6942538977453723 1.6942538977453723 0.9057239262415062 1011.8827464824758 711.254759917816)" id="c12f6a6b-e6c7-4975-9c80-043013f0194f-path-group"  >
<g style=""  paint-order="stroke"   >
		<g transform="matrix(1 0 0 1 0 0)" id="367cf07a-cbd4-4325-b1da-8a675f43f2ed-path-0"  >
<path style="stroke: none; stroke-width: 0; stroke-dasharray: none; stroke-linecap: butt; stroke-dashoffset: 0; stroke-linejoin: miter; stroke-miterlimit: 4; fill: rgb(35,31,32); fill-rule: nonzero; opacity: 1;"  paint-order="stroke"  transform=" translate(-8.129999999999999, 9.3)" d="M 10.23 0 L 10.23 -6.48 C 11.61 -6.78 12.06 -7.56 12.78 -9.51 L 16.11 -18.6 L 11.82 -18.6 L 9 -10.5 C 8.91 -10.2 8.79 -10.11 8.52 -10.11 L 7.92 -10.11 C 7.62 -10.11 7.53 -10.2 7.44 -10.5 L 4.68 -18.6 L 0.15 -18.6 L 3.36 -9.54 C 3.99 -7.8 4.53 -6.96 5.88 -6.57 L 5.88 0 Z" stroke-linecap="round" />
</g>
</g>
</g>
<g transform="matrix(1.0552609217358913 -1.6053835951724538 1.605383595172454 1.0552609217358915 992.4285361933805 743.9926341659963)" id="a518f8f1-5851-4b86-b21f-dcae0caacf2e-path-group"  >
<g style=""  paint-order="stroke"   >
		<g transform="matrix(1 0 0 1 0 0)" id="c6f6651c-6f27-4aeb-9d15-8d7992261ddb-path-0"  >
<path style="stroke: none; stroke-width: 0; stroke-dasharray: none; stroke-linecap: butt; stroke-dashoffset: 0; stroke-linejoin: miter; stroke-miterlimit: 4; fill: rgb(35,31,32); fill-rule: nonzero; opacity: 1;"  paint-order="stroke"  transform=" translate(-10.169999999999998, 9.3)" d="M 16.08 -18.6 L 14.79 -18.6 L 10.2 -9.69 L 6.06 -17.4 C 5.58 -18.24 5.28 -18.6 3.93 -18.6 L 1.62 -18.6 L 1.62 0 L 5.43 0 L 5.43 -11.64 L 8.58 -5.31 L 11.16 -5.31 L 14.55 -11.94 L 14.55 0 L 18.72 0 L 18.72 -16.11 C 18.72 -17.88 17.97 -18.6 16.08 -18.6 Z" stroke-linecap="round" />
</g>
</g>
</g>
<g transform="matrix(1.1569669794756765 -1.5337077651869166 1.5337077651869169 1.1569669794756765 994.3553079967735 772.5655384117813)" id="f27e4bd1-779e-4c95-b7fd-33b8c26debcc-path-group"  >
<g style=""  paint-order="stroke"   >
		<g transform="matrix(1 0 5.551e-17 1.0000000000000004 0 0)" id="c57212e3-92c0-4084-9f57-1bd75966987f-path-0"  >
<path style="stroke: none; stroke-width: 0; stroke-dasharray: none; stroke-linecap: butt; stroke-dashoffset: 0; stroke-linejoin: miter; stroke-miterlimit: 4; fill: rgb(35,31,32); fill-rule: nonzero; opacity: 1;"  paint-order="stroke"  transform=" translate(0, 0)" d="" stroke-linecap="round" />
</g>
</g>
</g>
<g transform="matrix(1.2397130070412408 -1.4676320249859909 1.4676320249859909 1.2397130070412408 962.1844451092575 784.2503812236089)" id="8a4a4f51-89a1-461c-a454-337fa5f93ab0-path-group"  >
<g style=""  paint-order="stroke"   >
		<g transform="matrix(1 0 0 1 0 0)" id="5039a7dc-f550-446a-9526-f09de357d489-path-0"  >
<path style="stroke: none; stroke-width: 0; stroke-dasharray: none; stroke-linecap: butt; stroke-dashoffset: 0; stroke-linejoin: miter; stroke-miterlimit: 4; fill: rgb(35,31,32); fill-rule: nonzero; opacity: 1;"  paint-order="stroke"  transform=" translate(-8.265, 9.378212111948521)" d="M 16.32 0 L 12.39 -18.6 L 8.16 -18.75 C 5.46 -18.84 4.68 -18 4.02 -15.24 L 0.21 0 L 4.26 0 L 5.19 -4.14 L 11.19 -4.14 L 12 0 Z M 7.56 -14.46 C 7.62 -14.76 7.68 -14.88 7.98 -14.88 L 9.09 -14.88 L 10.47 -7.86 L 6.03 -7.86 Z" stroke-linecap="round" />
</g>
</g>
</g>
<g transform="matrix(1.343376015438958 -1.3733801300932906 1.3733801300932906 1.3433760154389582 941.6025063353532 807.1140489875862)" id="cdfec61d-7b38-4ad7-a1b7-555a4d07a02b-path-group"  >
<g style=""  paint-order="stroke"   >
		<g transform="matrix(1 0 0 1 0 0)" id="d4eb5025-70aa-41ad-8d96-f38fac6bfbf4-path-0"  >
<path style="stroke: none; stroke-width: 0; stroke-dasharray: none; stroke-linecap: butt; stroke-dashoffset: 0; stroke-linejoin: miter; stroke-miterlimit: 4; fill: rgb(35,31,32); fill-rule: nonzero; opacity: 1;"  paint-order="stroke"  transform=" translate(-6.54, 9.3)" d="M 8.7 0 L 8.7 -14.82 L 12.93 -14.82 L 12.93 -18.6 L 0.15 -18.6 L 0.15 -14.82 L 4.38 -14.82 L 4.38 0 Z" stroke-linecap="round" />
</g>
</g>
</g>
<g transform="matrix(1.4398943700481324 -1.2718240065730038 1.2718240065730038 1.4398943700481324 919.3069532888032 828.1038433204344)" id="55500027-daec-494f-a057-d9d837e3530c-path-group"  >
<g style=""  paint-order="stroke"   >
		<g transform="matrix(1 0 0 1 0 0)" id="267545e2-36a3-4552-b0b5-2308bf58f905-path-0"  >
<path style="stroke: none; stroke-width: 0; stroke-dasharray: none; stroke-linecap: butt; stroke-dashoffset: 0; stroke-linejoin: miter; stroke-miterlimit: 4; fill: rgb(35,31,32); fill-rule: nonzero; opacity: 1;"  paint-order="stroke"  transform=" translate(-8.265, 9.378212111948521)" d="M 16.32 0 L 12.39 -18.6 L 8.16 -18.75 C 5.46 -18.84 4.68 -18 4.02 -15.24 L 0.21 0 L 4.26 0 L 5.19 -4.14 L 11.19 -4.14 L 12 0 Z M 7.56 -14.46 C 7.62 -14.76 7.68 -14.88 7.98 -14.88 L 9.09 -14.88 L 10.47 -7.86 L 6.03 -7.86 Z" stroke-linecap="round" />
</g>
</g>
</g>
<g transform="matrix(1.5390597784600335 -1.1498378576644046 1.1498378576644048 1.5390597784600337 892.8083772723276 849.8573641207088)" id="61efbf15-2f92-4cb1-b55e-46bf08abef8a-path-group"  >
<g style=""  paint-order="stroke"   >
		<g transform="matrix(1 0 0 1 0 0)" id="e92ab4a1-43fc-408f-ae26-431955686abc-path-0"  >
<path style="stroke: none; stroke-width: 0; stroke-dasharray: none; stroke-linecap: butt; stroke-dashoffset: 0; stroke-linejoin: miter; stroke-miterlimit: 4; fill: rgb(35,31,32); fill-rule: nonzero; opacity: 1;"  paint-order="stroke"  transform=" translate(-8.76, 9.3)" d="M 10.83 -15 C 11.1 -15 11.25 -14.88 11.25 -14.58 L 11.25 -4.02 C 11.25 -3.72 11.1 -3.6 10.83 -3.6 L 6.24 -3.6 L 6.24 -15 Z M 1.89 0 L 10.23 0.15 C 13.89 0.21 15.63 -1.32 15.63 -4.68 L 15.63 -13.92 C 15.63 -17.28 13.89 -18.81 10.23 -18.75 L 1.89 -18.6 Z" stroke-linecap="round" />
</g>
</g>
</g>
<g transform="matrix(1.6022426910815737 -1.0600238013683434 1.0600238013683434 1.6022426910815737 887.4701256997082 875.6567692482131)" id="21160b2c-62f2-4dd9-9cea-8d9b09ad6bc7-path-group"  >
<g style=""  paint-order="stroke"   >
		<g transform="matrix(1 0 0 1 0 0)" id="83398df7-14fd-48f7-b0f1-a8f895655cc4-path-0"  >
<path style="stroke: none; stroke-width: 0; stroke-dasharray: none; stroke-linecap: butt; stroke-dashoffset: 0; stroke-linejoin: miter; stroke-miterlimit: 4; fill: rgb(35,31,32); fill-rule: nonzero; opacity: 1;"  paint-order="stroke"  transform=" translate(0, 0)" d="" stroke-linecap="round" />
</g>
</g>
</g>
<g transform="matrix(1.6491390410415074 -0.985480859227825 0.9854808592278251 1.6491390410415077 858.0593516652823 873.2535128134261)" id="580d9e8e-ffc9-4dc4-880b-2a8e555594e1-path-group"  >
<g style=""  paint-order="stroke"   >
		<g transform="matrix(1 0 0 1 0 0)" id="c519adbf-412f-48d9-a23d-9297f60d8fb5-path-0"  >
<path style="stroke: none; stroke-width: 0; stroke-dasharray: none; stroke-linecap: butt; stroke-dashoffset: 0; stroke-linejoin: miter; stroke-miterlimit: 4; fill: rgb(35,31,32); fill-rule: nonzero; opacity: 1;"  paint-order="stroke"  transform=" translate(-7.2299999999999995, 9.3)" d="M 12.57 -3.78 L 6.24 -3.78 L 6.24 -18.6 L 1.89 -18.6 L 1.89 0 L 12.57 0 Z" stroke-linecap="round" />
</g>
</g>
</g>
<g transform="matrix(1.7157732318702443 -0.8642651892730908 0.8642651892730909 1.7157732318702446 830.0528979607694 888.5564021186688)" id="b38bdc81-781e-46a4-9f29-2e8a8c45dfe8-path-group"  >
<g style=""  paint-order="stroke"   >
		<g transform="matrix(1 0 0 1 0 0)" id="857558ad-7b81-40f2-b952-984252916419-path-0"  >
<path style="stroke: none; stroke-width: 0; stroke-dasharray: none; stroke-linecap: butt; stroke-dashoffset: 0; stroke-linejoin: miter; stroke-miterlimit: 4; fill: rgb(35,31,32); fill-rule: nonzero; opacity: 1;"  paint-order="stroke"  transform=" translate(-8.265, 9.378212111948521)" d="M 16.32 0 L 12.39 -18.6 L 8.16 -18.75 C 5.46 -18.84 4.68 -18 4.02 -15.24 L 0.21 0 L 4.26 0 L 5.19 -4.14 L 11.19 -4.14 L 12 0 Z M 7.56 -14.46 C 7.62 -14.76 7.68 -14.88 7.98 -14.88 L 9.09 -14.88 L 10.47 -7.86 L 6.03 -7.86 Z" stroke-linecap="round" />
</g>
</g>
</g>
<g transform="matrix(1.782293991821621 -0.7171193954344469 0.717119395434447 1.7822939918216212 797.816481005427 903.2986220486796)" id="d6a76bd3-529f-4573-9f57-4c2fba2bc281-path-group"  >
<g style=""  paint-order="stroke"   >
		<g transform="matrix(1 0 0 1 0 0)" id="cdda1a04-4798-45c8-bb55-3831e0a9d309-path-0"  >
<path style="stroke: none; stroke-width: 0; stroke-dasharray: none; stroke-linecap: butt; stroke-dashoffset: 0; stroke-linejoin: miter; stroke-miterlimit: 4; fill: rgb(35,31,32); fill-rule: nonzero; opacity: 1;"  paint-order="stroke"  transform=" translate(-8.79, 9.3)" d="M 12.9 0 L 15.96 0 L 15.96 -18.6 L 12.24 -18.6 L 12.24 -7.44 L 4.65 -18.6 L 1.62 -18.6 L 1.62 0 L 5.34 0 L 5.34 -11.16 Z" stroke-linecap="round" />
</g>
</g>
</g>
<g transform="matrix(1.8377879269289044 -0.5597924938993701 0.5597924938993701 1.8377879269289044 763.3414360188033 915.4622750968338)" id="f46b525b-3c3a-4bd9-bf65-2b427f307bdb-path-group"  >
<g style=""  paint-order="stroke"   >
		<g transform="matrix(1 0 0 1 0 0)" id="51ec7486-d657-46ec-81e3-713d1c0aa19c-path-0"  >
<path style="stroke: none; stroke-width: 0; stroke-dasharray: none; stroke-linecap: butt; stroke-dashoffset: 0; stroke-linejoin: miter; stroke-miterlimit: 4; fill: rgb(35,31,32); fill-rule: nonzero; opacity: 1;"  paint-order="stroke"  transform=" translate(-8.79, 9.299999999999999)" d="M 11.16 -15 C 11.43 -15 11.58 -14.88 11.58 -14.58 L 11.58 -4.02 C 11.58 -3.72 11.43 -3.6 11.16 -3.6 L 6.42 -3.6 C 6.15 -3.6 6 -3.72 6 -4.02 L 6 -14.58 C 6 -14.88 6.15 -15 6.42 -15 Z M 1.62 -4.38 C 1.62 -1.29 3.36 0.3 6.87 0.3 L 10.68 0.3 C 14.19 0.3 15.96 -1.29 15.96 -4.38 L 15.96 -14.22 C 15.96 -17.31 14.19 -18.9 10.68 -18.9 L 6.87 -18.9 C 3.36 -18.9 1.62 -17.31 1.62 -14.22 Z" stroke-linecap="round" />
</g>
</g>
</g>
<g transform="matrix(1.8761854564412406 -0.4132314528567373 0.4132314528567373 1.8761854564412406 731.274196668049 923.865770046343)" id="dc7fc12d-4be7-4216-bab2-f546b8106b0c-path-group"  >
<g style=""  paint-order="stroke"   >
		<g transform="matrix(1 0 0 1 0 0)" id="c1cf9379-f129-435a-bdbc-035d328fa59e-path-0"  >
<path style="stroke: none; stroke-width: 0; stroke-dasharray: none; stroke-linecap: butt; stroke-dashoffset: 0; stroke-linejoin: miter; stroke-miterlimit: 4; fill: rgb(35,31,32); fill-rule: nonzero; opacity: 1;"  paint-order="stroke"  transform=" translate(-7.2, 9.3)" d="M 5.61 -11.31 C 5.34 -11.31 5.19 -11.43 5.19 -11.73 L 5.19 -14.4 C 5.19 -14.7 5.34 -14.82 5.61 -14.82 L 12.93 -14.82 L 12.93 -18.6 L 6.21 -18.75 C 2.7 -18.84 0.78 -17.01 0.78 -13.92 L 0.78 -12.3 C 0.78 -9.21 2.7 -7.38 6.21 -7.38 L 8.82 -7.38 C 9.09 -7.38 9.24 -7.26 9.24 -6.96 L 9.24 -4.2 C 9.24 -3.9 9.09 -3.78 8.82 -3.78 L 1.26 -3.78 L 1.26 0 L 8.19 0.15 C 11.7 0.24 13.62 -1.59 13.62 -4.68 L 13.62 -6.39 C 13.62 -9.48 11.7 -11.31 8.19 -11.31 Z" stroke-linecap="round" />
</g>
</g>
</g>
<g transform="matrix(1.902171707021917 -0.2693972858011799 0.2693972858011799 1.902171707021917 701.0505008725678 929.2368970322054)" id="fadf846a-f6c4-4b0a-94be-080a8b4d90c6-path-group"  >
<g style=""  paint-order="stroke"   >
		<g transform="matrix(0.9999999999999989 0 2.498e-16 0.9999999999999989 0 0)" id="31bc4e52-e661-49ad-a612-648c7584641b-path-0"  >
<path style="stroke: none; stroke-width: 0; stroke-dasharray: none; stroke-linecap: butt; stroke-dashoffset: 0; stroke-linejoin: miter; stroke-miterlimit: 4; fill: rgb(35,31,32); fill-rule: nonzero; opacity: 1;"  paint-order="stroke"  transform=" translate(-9.09, 9.375727006737643)" d="M 6.39 0 L 6.39 -6.66 L 9.3 -6.66 C 9.66 -6.66 9.66 -6.51 9.78 -6.18 L 11.82 0 L 16.14 0 L 14.34 -5.16 C 13.95 -6.21 13.47 -6.84 12.78 -7.26 C 14.52 -8.1 15.39 -9.78 15.39 -11.67 L 15.39 -13.92 C 15.39 -17.01 13.47 -18.81 9.96 -18.75 L 2.04 -18.6 L 2.04 0 Z M 10.59 -14.97 C 10.86 -14.97 10.98 -14.85 10.98 -14.55 L 10.98 -10.8 C 10.98 -10.5 10.86 -10.41 10.59 -10.41 L 6.39 -10.41 L 6.39 -14.97 Z" stroke-linecap="round" />
</g>
</g>
</g>
<g transform="matrix(1.9171935637814204 -0.12329209052819667 0.12329209052819667 1.9171935637814204 668.63737084857 932.8066875396473)" id="6227cc84-6acf-4b27-a414-119182f30577-path-group"  >
<g style=""  paint-order="stroke"   >
		<g transform="matrix(1 0 0 1 0 0)" id="d4b78226-831f-4621-89e0-862328040e16-path-0"  >
<path style="stroke: none; stroke-width: 0; stroke-dasharray: none; stroke-linecap: butt; stroke-dashoffset: 0; stroke-linejoin: miter; stroke-miterlimit: 4; fill: rgb(35,31,32); fill-rule: nonzero; opacity: 1;"  paint-order="stroke"  transform=" translate(-7.589999999999999, 9.3)" d="M 13.29 0 L 13.29 -3.78 L 6.24 -3.78 L 6.24 -7.56 L 12.57 -7.56 L 12.57 -11.28 L 6.24 -11.28 L 6.24 -14.82 L 13.14 -14.82 L 13.14 -18.6 L 1.89 -18.6 L 1.89 0 Z" stroke-linecap="round" />
</g>
</g>
</g>
<g transform="matrix(1.921080746354821 0.016759074452930543 -0.016759074452930543 1.9210807463548212 638.5152234640753 933.587049979004)" id="396bf77e-e244-4bb5-b00c-5af375e972fd-path-group"  >
<g style=""  paint-order="stroke"   >
		<g transform="matrix(0.9999999999999974 0 1.735e-17 1 0 0)" id="a4887ab4-4c89-4e65-913d-70590b6fb7ba-path-0"  >
<path style="stroke: none; stroke-width: 0; stroke-dasharray: none; stroke-linecap: butt; stroke-dashoffset: 0; stroke-linejoin: miter; stroke-miterlimit: 4; fill: rgb(35,31,32); fill-rule: nonzero; opacity: 1;"  paint-order="stroke"  transform=" translate(-8.670000000000002, 9.375727006737643)" d="M 6.39 0 L 6.39 -6.12 L 9.87 -6.12 C 13.38 -6.12 15.3 -8.31 15.3 -11.1 L 15.3 -13.92 C 15.3 -17.01 13.38 -18.81 9.87 -18.75 L 2.04 -18.6 L 2.04 0 Z M 10.5 -14.97 C 10.77 -14.97 10.89 -14.85 10.89 -14.55 L 10.89 -10.32 C 10.89 -10.02 10.77 -9.9 10.5 -9.9 L 6.39 -9.9 L 6.39 -14.97 Z" stroke-linecap="round" />
</g>
</g>
</g>
<g transform="matrix(1.9174412910405048 0.11937753559459265 -0.11937753559459265 1.9174412910405048 618.9999131595357 951.1025629683484)" id="b474466c-807e-495b-aa34-2822701385c1-path-group"  >
<g style=""  paint-order="stroke"   >
		<g transform="matrix(0.9999999999999973 0 -6.94e-18 1 0 0)" id="7fb03a4e-7656-4788-8f45-20417d0b1877-path-0"  >
<path style="stroke: none; stroke-width: 0; stroke-dasharray: none; stroke-linecap: butt; stroke-dashoffset: 0; stroke-linejoin: miter; stroke-miterlimit: 4; fill: rgb(35,31,32); fill-rule: nonzero; opacity: 1;"  paint-order="stroke"  transform=" translate(0, 0)" d="" stroke-linecap="round" />
</g>
</g>
</g>
<g transform="matrix(1.9080761520739922 0.22378002251815032 -0.22378002251815035 1.9080761520739924 591.9685249948296 930.9090103819337)" id="49bcd4c2-0cbb-4c83-99f7-a7adb41ca774-path-group"  >
<g style=""  paint-order="stroke"   >
		<g transform="matrix(1 0 0 1 0 0)" id="6c5bdb55-2b48-4782-ac3d-1721c89436c7-path-0"  >
<path style="stroke: none; stroke-width: 0; stroke-dasharray: none; stroke-linecap: butt; stroke-dashoffset: 0; stroke-linejoin: miter; stroke-miterlimit: 4; fill: rgb(35,31,32); fill-rule: nonzero; opacity: 1;"  paint-order="stroke"  transform=" translate(-8.280000000000001, 9.299999999999999)" d="M 9.66 0.3 C 13.17 0.3 14.94 -1.29 14.94 -4.38 L 14.94 -10.5 L 8.79 -10.5 L 8.79 -6.87 L 10.83 -6.87 L 10.83 -4.02 C 10.83 -3.72 10.71 -3.6 10.44 -3.6 L 6.42 -3.6 C 6.15 -3.6 6 -3.72 6 -4.02 L 6 -14.58 C 6 -14.88 6.15 -15 6.42 -15 L 14.55 -15 L 14.55 -18.9 L 6.87 -18.9 C 3.36 -18.9 1.62 -17.31 1.62 -14.22 L 1.62 -4.38 C 1.62 -1.29 3.36 0.3 6.87 0.3 Z" stroke-linecap="round" />
</g>
</g>
</g>
<g transform="matrix(1.8827553639325352 0.3821836471841563 -0.38218364718415637 1.8827553639325352 556.9458680080214 925.3265449426274)" id="6ece116a-1fa7-4bfc-bb9f-4a6b5621aa3c-path-group"  >
<g style=""  paint-order="stroke"   >
		<g transform="matrix(1 0 0 1 0 0)" id="4acf467c-8665-4dcb-9939-c85b2caba606-path-0"  >
<path style="stroke: none; stroke-width: 0; stroke-dasharray: none; stroke-linecap: butt; stroke-dashoffset: 0; stroke-linejoin: miter; stroke-miterlimit: 4; fill: rgb(35,31,32); fill-rule: nonzero; opacity: 1;"  paint-order="stroke"  transform=" translate(-8.79, 9.3)" d="M 12.9 0 L 15.96 0 L 15.96 -18.6 L 12.24 -18.6 L 12.24 -7.44 L 4.65 -18.6 L 1.62 -18.6 L 1.62 0 L 5.34 0 L 5.34 -11.16 Z" stroke-linecap="round" />
</g>
</g>
</g>
<g transform="matrix(1.8539738177016498 0.5036002222681049 -0.5036002222681049 1.85397381770165 530.3414034757529 919.0225151812482)" id="acb43cff-242c-406e-b7eb-c62a1344444d-path-group"  >
<g style=""  paint-order="stroke"   >
		<g transform="matrix(1 0 0 1 0 0)" id="4caa4171-56c9-47e6-a3bd-342a06a9b983-path-0"  >
<path style="stroke: none; stroke-width: 0; stroke-dasharray: none; stroke-linecap: butt; stroke-dashoffset: 0; stroke-linejoin: miter; stroke-miterlimit: 4; fill: rgb(35,31,32); fill-rule: nonzero; opacity: 1;"  paint-order="stroke"  transform=" translate(-4.365, 9.3)" d="M 6.54 0 L 6.54 -18.6 L 2.19 -18.6 L 2.19 0 Z" stroke-linecap="round" />
</g>
</g>
</g>
<g transform="matrix(1.8241949592094513 0.6026150109203589 -0.6026150109203589 1.8241949592094513 508.6450658413226 912.4993981762188)" id="0e8531e2-0530-4ed8-a148-766b08029db7-path-group"  >
<g style=""  paint-order="stroke"   >
		<g transform="matrix(1 0 0 1 0 0)" id="dce31c89-fff7-4c3b-9c09-905cbcda2e39-path-0"  >
<path style="stroke: none; stroke-width: 0; stroke-dasharray: none; stroke-linecap: butt; stroke-dashoffset: 0; stroke-linejoin: miter; stroke-miterlimit: 4; fill: rgb(35,31,32); fill-rule: nonzero; opacity: 1;"  paint-order="stroke"  transform=" translate(-6.54, 9.3)" d="M 8.7 0 L 8.7 -14.82 L 12.93 -14.82 L 12.93 -18.6 L 0.15 -18.6 L 0.15 -14.82 L 4.38 -14.82 L 4.38 0 Z" stroke-linecap="round" />
</g>
</g>
</g>
<g transform="matrix(1.7822939918216207 0.7171193954344475 -0.7171193954344476 1.782293991821621 484.6481511117911 903.7608228467566)" id="6d03f113-fdc6-44a7-9d80-d79ad79f0fd1-path-group"  >
<g style=""  paint-order="stroke"   >
		<g transform="matrix(1 0 0 1 0 0)" id="f03bd124-8cbe-46d5-bfd7-346edf022ecb-path-0"  >
<path style="stroke: none; stroke-width: 0; stroke-dasharray: none; stroke-linecap: butt; stroke-dashoffset: 0; stroke-linejoin: miter; stroke-miterlimit: 4; fill: rgb(35,31,32); fill-rule: nonzero; opacity: 1;"  paint-order="stroke"  transform=" translate(-7.154999999999999, 9.3)" d="M 12.75 -3.9 L 6.36 -3.9 C 6.09 -3.9 5.94 -4.02 5.94 -4.32 L 5.94 -14.31 C 5.94 -14.61 6.09 -14.7 6.36 -14.7 L 12.75 -14.7 L 12.75 -18.6 L 6.84 -18.6 C 3.33 -18.6 1.56 -17.01 1.56 -13.92 L 1.56 -4.68 C 1.56 -1.59 3.33 0 6.84 0 L 12.75 0 Z" stroke-linecap="round" />
</g>
</g>
</g>
<g transform="matrix(1.7299704456134544 0.8354845048806725 -0.8354845048806726 1.7299704456134546 458.45894800931535 892.2666416615265)" id="7a455dca-f0a7-47f2-a752-786b6e920dae-path-group"  >
<g style=""  paint-order="stroke"   >
		<g transform="matrix(1 0 0 1 0 0)" id="e7c60138-a303-4138-aebd-a1b79d0c3ac0-path-0"  >
<path style="stroke: none; stroke-width: 0; stroke-dasharray: none; stroke-linecap: butt; stroke-dashoffset: 0; stroke-linejoin: miter; stroke-miterlimit: 4; fill: rgb(35,31,32); fill-rule: nonzero; opacity: 1;"  paint-order="stroke"  transform=" translate(-7.589999999999999, 9.3)" d="M 13.29 0 L 13.29 -3.78 L 6.24 -3.78 L 6.24 -7.56 L 12.57 -7.56 L 12.57 -11.28 L 6.24 -11.28 L 6.24 -14.82 L 13.14 -14.82 L 13.14 -18.6 L 1.89 -18.6 L 1.89 0 Z" stroke-linecap="round" />
</g>
</g>
</g>
<g transform="matrix(1.669796735738124 0.9500583992102909 -0.950058399210291 1.6697967357381243 432.51377390311984 878.6726614267034)" id="6df8386c-4668-47b4-ba1f-04252616c682-path-group"  >
<g style=""  paint-order="stroke"   >
		<g transform="matrix(0.9999999999999996 0 5.551e-17 1 0 0)" id="c8411021-3c9c-4e91-a150-e0a195c919fb-path-0"  >
<path style="stroke: none; stroke-width: 0; stroke-dasharray: none; stroke-linecap: butt; stroke-dashoffset: 0; stroke-linejoin: miter; stroke-miterlimit: 4; fill: rgb(35,31,32); fill-rule: nonzero; opacity: 1;"  paint-order="stroke"  transform=" translate(-6.54, 9.3)" d="M 8.7 0 L 8.7 -14.82 L 12.93 -14.82 L 12.93 -18.6 L 0.15 -18.6 L 0.15 -14.82 L 4.38 -14.82 L 4.38 0 Z" stroke-linecap="round" />
</g>
</g>
</g>
<g transform="matrix(1.5931339772156605 1.0736648598295129 -1.0736648598295129 1.5931339772156607 405.4287386217695 861.878551624216)" id="842daa90-91e3-486e-8986-0c9adee74a1b-path-group"  >
<g style=""  paint-order="stroke"   >
		<g transform="matrix(1 0 0 1 0 0)" id="31550d3f-71ee-4a84-be2f-e964ac571c36-path-0"  >
<path style="stroke: none; stroke-width: 0; stroke-dasharray: none; stroke-linecap: butt; stroke-dashoffset: 0; stroke-linejoin: miter; stroke-miterlimit: 4; fill: rgb(35,31,32); fill-rule: nonzero; opacity: 1;"  paint-order="stroke"  transform=" translate(-8.79, 9.299999999999999)" d="M 11.16 -15 C 11.43 -15 11.58 -14.88 11.58 -14.58 L 11.58 -4.02 C 11.58 -3.72 11.43 -3.6 11.16 -3.6 L 6.42 -3.6 C 6.15 -3.6 6 -3.72 6 -4.02 L 6 -14.58 C 6 -14.88 6.15 -15 6.42 -15 Z M 1.62 -4.38 C 1.62 -1.29 3.36 0.3 6.87 0.3 L 10.68 0.3 C 14.19 0.3 15.96 -1.29 15.96 -4.38 L 15.96 -14.22 C 15.96 -17.31 14.19 -18.9 10.68 -18.9 L 6.87 -18.9 C 3.36 -18.9 1.62 -17.31 1.62 -14.22 Z" stroke-linecap="round" />
</g>
</g>
</g>
<g transform="matrix(1.497785065736924 1.2031093040314977 -1.2031093040314977 1.4977850657369243 378.2225173573123 841.7322585242991)" id="e7373b42-6ccd-473a-9e12-0517e1da545c-path-group"  >
<g style=""  paint-order="stroke"   >
		<g transform="matrix(1 0 0 1 0 0)" id="fc5ebbff-4cfe-41c2-84d2-a77fe65e42ce-path-0"  >
<path style="stroke: none; stroke-width: 0; stroke-dasharray: none; stroke-linecap: butt; stroke-dashoffset: 0; stroke-linejoin: miter; stroke-miterlimit: 4; fill: rgb(35,31,32); fill-rule: nonzero; opacity: 1;"  paint-order="stroke"  transform=" translate(-9.09, 9.375727006737643)" d="M 6.39 0 L 6.39 -6.66 L 9.3 -6.66 C 9.66 -6.66 9.66 -6.51 9.78 -6.18 L 11.82 0 L 16.14 0 L 14.34 -5.16 C 13.95 -6.21 13.47 -6.84 12.78 -7.26 C 14.52 -8.1 15.39 -9.78 15.39 -11.67 L 15.39 -13.92 C 15.39 -17.01 13.47 -18.81 9.96 -18.75 L 2.04 -18.6 L 2.04 0 Z M 10.59 -14.97 C 10.86 -14.97 10.98 -14.85 10.98 -14.55 L 10.98 -10.8 C 10.98 -10.5 10.86 -10.41 10.59 -10.41 L 6.39 -10.41 L 6.39 -14.97 Z" stroke-linecap="round" />
</g>
</g>
</g>
<g transform="matrix(1.3963630604745352 1.3194704634564225 -1.3194704634564227 1.3963630604745354 352.7545103361052 819.6922798330299)" id="f8ecd650-de32-4f13-85a7-3f816abe5ea7-path-group"  >
<g style=""  paint-order="stroke"   >
		<g transform="matrix(1 0 0 1 0 0)" id="8051918b-8b4d-4712-b297-e9007df65b2c-path-0"  >
<path style="stroke: none; stroke-width: 0; stroke-dasharray: none; stroke-linecap: butt; stroke-dashoffset: 0; stroke-linejoin: miter; stroke-miterlimit: 4; fill: rgb(35,31,32); fill-rule: nonzero; opacity: 1;"  paint-order="stroke"  transform=" translate(-8.670000000000002, 9.375727006737643)" d="M 6.39 0 L 6.39 -6.12 L 9.87 -6.12 C 13.38 -6.12 15.3 -8.31 15.3 -11.1 L 15.3 -13.92 C 15.3 -17.01 13.38 -18.81 9.87 -18.75 L 2.04 -18.6 L 2.04 0 Z M 10.5 -14.97 C 10.77 -14.97 10.89 -14.85 10.89 -14.55 L 10.89 -10.32 C 10.89 -10.02 10.77 -9.9 10.5 -9.9 L 6.39 -9.9 L 6.39 -14.97 Z" stroke-linecap="round" />
</g>
</g>
</g>
<g transform="matrix(1.3238698706829322 1.3921927546463073 -1.3921927546463073 1.3238698706829324 326.5295559982702 819.246264605577)" id="cb445fa4-6a73-4fca-92e0-32478e5fb74a-path-group"  >
<g style=""  paint-order="stroke"   >
		<g transform="matrix(1 0 0 1 0 0)" id="e99abd52-b506-4baf-be0c-ec192c93e3db-path-0"  >
<path style="stroke: none; stroke-width: 0; stroke-dasharray: none; stroke-linecap: butt; stroke-dashoffset: 0; stroke-linejoin: miter; stroke-miterlimit: 4; fill: rgb(35,31,32); fill-rule: nonzero; opacity: 1;"  paint-order="stroke"  transform=" translate(0, 0)" d="" stroke-linecap="round" />
</g>
</g>
</g>
<g transform="matrix(1.241074490594555 1.4664808929499158 -1.4664808929499158 1.2410744905945552 319.35180130754554 784.7410794226098)" id="0325c87e-1f41-40c0-859b-033dcec3c51a-path-group"  >
<g style=""  paint-order="stroke"   >
		<g transform="matrix(1 0 0 1 0 0)" id="417b9cac-066c-42e5-8ef9-d0ce3508fa31-path-0"  >
<path style="stroke: none; stroke-width: 0; stroke-dasharray: none; stroke-linecap: butt; stroke-dashoffset: 0; stroke-linejoin: miter; stroke-miterlimit: 4; fill: rgb(35,31,32); fill-rule: nonzero; opacity: 1;"  paint-order="stroke"  transform=" translate(-8.79, 9.3)" d="M 12.9 0 L 15.96 0 L 15.96 -18.6 L 12.24 -18.6 L 12.24 -7.44 L 4.65 -18.6 L 1.62 -18.6 L 1.62 0 L 5.34 0 L 5.34 -11.16 Z" stroke-linecap="round" />
</g>
</g>
</g>
<g transform="matrix(1.1432571961432936 1.5439543659248125 -1.5439543659248127 1.1432571961432936 302.3732327363964 763.3116427407896)" id="32f4ad47-d699-4f7f-94fd-2df2e06eaffd-path-group"  >
<g style=""  paint-order="stroke"   >
		<g transform="matrix(0.9999999999999998 0 -4.4409e-16 1.0000000000000002 0 0)" id="207fa7b7-368a-4fb6-9969-608dd0e3fbd3-path-0"  >
<path style="stroke: none; stroke-width: 0; stroke-dasharray: none; stroke-linecap: butt; stroke-dashoffset: 0; stroke-linejoin: miter; stroke-miterlimit: 4; fill: rgb(35,31,32); fill-rule: nonzero; opacity: 1;"  paint-order="stroke"  transform=" translate(-4.365, 9.3)" d="M 6.54 0 L 6.54 -18.6 L 2.19 -18.6 L 2.19 0 Z" stroke-linecap="round" />
</g>
</g>
</g>
<g transform="matrix(1.0451089541367964 1.6120109722253155 -1.6120109722253158 1.0451089541367964 287.62704943504815 741.7850092135868)" id="15fea1b8-12a9-41a8-8705-04934808481f-path-group"  >
<g style=""  paint-order="stroke"   >
		<g transform="matrix(1 0 0 1 0 0)" id="ee5b09f8-31e7-469d-9f9a-952a5c426099-path-0"  >
<path style="stroke: none; stroke-width: 0; stroke-dasharray: none; stroke-linecap: butt; stroke-dashoffset: 0; stroke-linejoin: miter; stroke-miterlimit: 4; fill: rgb(35,31,32); fill-rule: nonzero; opacity: 1;"  paint-order="stroke"  transform=" translate(-8.265, 9.378212111948521)" d="M 16.32 0 L 12.39 -18.6 L 8.16 -18.75 C 5.46 -18.84 4.68 -18 4.02 -15.24 L 0.21 0 L 4.26 0 L 5.19 -4.14 L 11.19 -4.14 L 12 0 Z M 7.56 -14.46 C 7.62 -14.76 7.68 -14.88 7.98 -14.88 L 9.09 -14.88 L 10.47 -7.86 L 6.03 -7.86 Z" stroke-linecap="round" />
</g>
</g>
</g>
<g transform="matrix(0.9041512052322306 1.6950937138308373 -1.6950937138308373 0.9041512052322307 269.2400600214026 710.897067624205)" id="cf4b1469-f6b3-484f-a79e-ea72d55b17d6-path-group"  >
<g style=""  paint-order="stroke"   >
		<g transform="matrix(1 0 0 1 0 0)" id="6b720bba-dd2c-4bca-865e-8c53889a47dd-path-0"  >
<path style="stroke: none; stroke-width: 0; stroke-dasharray: none; stroke-linecap: butt; stroke-dashoffset: 0; stroke-linejoin: miter; stroke-miterlimit: 4; fill: rgb(35,31,32); fill-rule: nonzero; opacity: 1;"  paint-order="stroke"  transform=" translate(-9, 9.3)" d="M 11.79 0 L 16.11 0 L 16.11 -18.6 L 11.79 -18.6 L 11.79 -11.34 L 6.24 -11.34 L 6.24 -18.6 L 1.89 -18.6 L 1.89 0 L 6.24 0 L 6.24 -7.56 L 11.79 -7.56 Z" stroke-linecap="round" />
</g>
</g>
</g>
<g transform="matrix(0.771357773472815 1.759499726028617 -1.7594997260286172 0.7713577734728151 255.61202458064844 682.9096479782218)" id="a11f19b9-8989-4c86-bc17-f381e4ff6ef5-path-group"  >
<g style=""  paint-order="stroke"   >
		<g transform="matrix(1 0 0 1 0 0)" id="f32cd9de-8159-4fc9-89fd-52923fedb1fb-path-0"  >
<path style="stroke: none; stroke-width: 0; stroke-dasharray: none; stroke-linecap: butt; stroke-dashoffset: 0; stroke-linejoin: miter; stroke-miterlimit: 4; fill: rgb(35,31,32); fill-rule: nonzero; opacity: 1;"  paint-order="stroke"  transform=" translate(-7.154999999999999, 9.3)" d="M 12.75 -3.9 L 6.36 -3.9 C 6.09 -3.9 5.94 -4.02 5.94 -4.32 L 5.94 -14.31 C 5.94 -14.61 6.09 -14.7 6.36 -14.7 L 12.75 -14.7 L 12.75 -18.6 L 6.84 -18.6 C 3.33 -18.6 1.56 -17.01 1.56 -13.92 L 1.56 -4.68 C 1.56 -1.59 3.33 0 6.84 0 L 12.75 0 Z" stroke-linecap="round" />
</g>
</g>
</g>
<g transform="matrix(0.6400673185151295 1.8113933665442656 -1.8113933665442659 0.6400673185151297 244.40813806660782 654.8809458275215)" id="d8456a4e-74be-47dd-adb3-9025da2ff015-path-group"  >
<g style=""  paint-order="stroke"   >
		<g transform="matrix(1 0 0 1 0 0)" id="ef8ba68c-ee16-4b0e-9263-ce0b5815e7a9-path-0"  >
<path style="stroke: none; stroke-width: 0; stroke-dasharray: none; stroke-linecap: butt; stroke-dashoffset: 0; stroke-linejoin: miter; stroke-miterlimit: 4; fill: rgb(35,31,32); fill-rule: nonzero; opacity: 1;"  paint-order="stroke"  transform=" translate(-9.645, 9.3)" d="M 9.12 -7.47 C 9.42 -7.47 9.42 -7.35 9.54 -7.05 L 12.69 0 L 17.25 0 L 14.28 -6.57 C 13.56 -8.16 13.05 -8.97 12.06 -9.36 C 12.87 -9.78 13.32 -10.56 13.95 -12.12 L 16.62 -18.6 L 12.3 -18.6 L 9.51 -11.67 C 9.39 -11.37 9.39 -11.25 9.09 -11.25 L 6.39 -11.25 L 6.39 -18.6 L 2.04 -18.6 L 2.04 0 L 6.39 0 L 6.39 -7.47 Z" stroke-linecap="round" />
</g>
</g>
</g>
<g transform="matrix(0.5025678098787065 1.8542539462181105 -1.8542539462181107 0.5025678098787065 234.6813699551592 624.0737294851912)" id="3bb201cb-20ba-4a48-b928-63deae2ad5c1-path-group"  >
<g style=""  paint-order="stroke"   >
		<g transform="matrix(1 0 0 1 0 0)" id="3abe012d-8dba-4f7f-ae64-e94551f91993-path-0"  >
<path style="stroke: none; stroke-width: 0; stroke-dasharray: none; stroke-linecap: butt; stroke-dashoffset: 0; stroke-linejoin: miter; stroke-miterlimit: 4; fill: rgb(35,31,32); fill-rule: nonzero; opacity: 1;"  paint-order="stroke"  transform=" translate(-7.154999999999999, 9.3)" d="M 12.75 -3.9 L 6.36 -3.9 C 6.09 -3.9 5.94 -4.02 5.94 -4.32 L 5.94 -14.31 C 5.94 -14.61 6.09 -14.7 6.36 -14.7 L 12.75 -14.7 L 12.75 -18.6 L 6.84 -18.6 C 3.33 -18.6 1.56 -17.01 1.56 -13.92 L 1.56 -4.68 C 1.56 -1.59 3.33 0 6.84 0 L 12.75 0 Z" stroke-linecap="round" />
</g>
</g>
</g>
<g transform="matrix(0.3629441231207706 1.8865586829154855 -1.8865586829154855 0.3629441231207706 227.2934852994033 592.3392942530057)" id="df4d1eac-1477-4c0b-8483-0e05f4863674-path-group"  >
<g style=""  paint-order="stroke"   >
		<g transform="matrix(1 0 0 1 0 0)" id="1c453a91-f34c-472a-9eee-7671aeed412d-path-0"  >
<path style="stroke: none; stroke-width: 0; stroke-dasharray: none; stroke-linecap: butt; stroke-dashoffset: 0; stroke-linejoin: miter; stroke-miterlimit: 4; fill: rgb(35,31,32); fill-rule: nonzero; opacity: 1;"  paint-order="stroke"  transform=" translate(-8.79, 9.299999999999999)" d="M 11.16 -15 C 11.43 -15 11.58 -14.88 11.58 -14.58 L 11.58 -4.02 C 11.58 -3.72 11.43 -3.6 11.16 -3.6 L 6.42 -3.6 C 6.15 -3.6 6 -3.72 6 -4.02 L 6 -14.58 C 6 -14.88 6.15 -15 6.42 -15 Z M 1.62 -4.38 C 1.62 -1.29 3.36 0.3 6.87 0.3 L 10.68 0.3 C 14.19 0.3 15.96 -1.29 15.96 -4.38 L 15.96 -14.22 C 15.96 -17.31 14.19 -18.9 10.68 -18.9 L 6.87 -18.9 C 3.36 -18.9 1.62 -17.31 1.62 -14.22 Z" stroke-linecap="round" />
</g>
</g>
</g>
<g transform="matrix(0.220946550810071 1.908406330495906 -1.908406330495906 0.220946550810071 222.69910084569426 562.9011403096347)" id="0c9471ba-5b95-4b72-8055-9728ec4183ac-path-group"  >
<g style=""  paint-order="stroke"   >
		<g transform="matrix(1 0 0 1 0 0)" id="20be0461-76c6-472e-a9ad-5bda25b9e866-path-0"  >
<path style="stroke: none; stroke-width: 0; stroke-dasharray: none; stroke-linecap: butt; stroke-dashoffset: 0; stroke-linejoin: miter; stroke-miterlimit: 4; fill: rgb(35,31,32); fill-rule: nonzero; opacity: 1;"  paint-order="stroke"  transform=" translate(-7.2299999999999995, 9.3)" d="M 12.57 -3.78 L 6.24 -3.78 L 6.24 -18.6 L 1.89 -18.6 L 1.89 0 L 12.57 0 Z" stroke-linecap="round" />
</g>
</g>
</g>
<g transform="matrix(0.08056357877387595 1.9194638861845934 -1.9194638861845934 0.08056357877387595 220.1001817185611 530.9824410701295)" id="8b085f24-7925-4e38-a8cf-53c84588dbd3-path-group"  >
<g style=""  paint-order="stroke"   >
		<g transform="matrix(0.999999999999995 0 -9.021e-17 1 0 0)" id="8fe1e143-d540-4185-8e18-fec1c74166a0-path-0"  >
<path style="stroke: none; stroke-width: 0; stroke-dasharray: none; stroke-linecap: butt; stroke-dashoffset: 0; stroke-linejoin: miter; stroke-miterlimit: 4; fill: rgb(35,31,32); fill-rule: nonzero; opacity: 1;"  paint-order="stroke"  transform=" translate(-8.76, 9.299999999999999)" d="M 15.63 -4.68 L 15.63 -5.79 C 15.63 -7.59 14.91 -8.79 13.44 -9.42 C 14.58 -10.08 15.21 -11.22 15.21 -12.78 L 15.21 -13.92 C 15.21 -17.01 13.29 -18.81 9.78 -18.75 L 1.89 -18.6 L 1.89 0 L 10.23 0.15 C 13.74 0.21 15.63 -1.59 15.63 -4.68 Z M 10.83 -7.68 C 11.1 -7.68 11.25 -7.56 11.25 -7.26 L 11.25 -3.96 C 11.25 -3.66 11.1 -3.54 10.83 -3.54 L 6.24 -3.54 L 6.24 -7.68 Z M 10.41 -15.06 C 10.68 -15.06 10.8 -14.94 10.8 -14.64 L 10.8 -11.61 C 10.8 -11.31 10.68 -11.19 10.41 -11.19 L 6.24 -11.19 L 6.24 -15.06 Z" stroke-linecap="round" />
</g>
</g>
</g>
<g transform="matrix(1.9211538461538462 0 0 1.9211538461538462 629.4016908464455 442.8009143404179)" id="tagline-c0ca30a5-9b1b-4a60-9473-5fedbc654057-logo-path-group"  >
<g style=""  paint-order="stroke"   >
		<g transform="matrix(1 0 0 1 0 0)" id="tagline-c0ca30a5-9b1b-4a60-9473-5fedbc654057-logo-path-0"  >
<path style="stroke: none; stroke-width: 0; stroke-dasharray: none; stroke-linecap: butt; stroke-dashoffset: 0; stroke-linejoin: miter; stroke-miterlimit: 4; fill: rgb(255,255,255); fill-rule: nonzero; opacity: 1;"  paint-order="stroke"  transform=" translate(-14.235, 9.3)" d="M 16.08 -18.6 L 14.79 -18.6 L 10.2 -9.69 L 6.06 -17.4 C 5.58 -18.24 5.28 -18.6 3.93 -18.6 L 1.62 -18.6 L 1.62 0 L 5.43 0 L 5.43 -11.64 L 8.58 -5.31 L 11.16 -5.31 L 14.55 -11.94 L 14.55 0 L 18.72 0 L 18.72 -16.11 C 18.72 -17.88 17.97 -18.6 16.08 -18.6 Z M 26.85 0 L 26.85 -18.6 L 22.5 -18.6 L 22.5 0 Z" stroke-linecap="round" />
</g>
</g>
</g>
</svg>