<?xml version="1.0" encoding="UTF-8" standalone="no" ?>
<!DOCTYPE svg PUBLIC "-//W3C//DTD SVG 1.1//EN" "http://www.w3.org/Graphics/SVG/1.1/DTD/svg11.dtd">
<svg xmlns="http://www.w3.org/2000/svg" xmlns:xlink="http://www.w3.org/1999/xlink" version="1.1" width="1280" height="1024" viewBox="0 0 1280 1024" xml:space="preserve">
<desc>Created with Fabric.js 4.4.0</desc>
<defs>
</defs>
<g transform="matrix(1 0 0 1 640 512)" id="background-logo"  >
<rect style="stroke: none; stroke-width: 0; stroke-dasharray: none; stroke-linecap: butt; stroke-dashoffset: 0; stroke-linejoin: miter; stroke-miterlimit: 4; fill: rgb(240,240,240); fill-rule: nonzero; opacity: 1;"  paint-order="stroke"  x="-640" y="-512" rx="0" ry="0" width="1280" height="1024" />
</g>
<g transform="matrix(1.9211538461538462 0 0 1.9211538461538462 629.9348110387532 494.8475689368267)" id="logo-logo"  >
<g style=""  paint-order="stroke"   >
		<g transform="matrix(0.3241821743733114 0 0 -0.3241821743733114 -1.8145815738733404 -2.842171e-14)"  >
<path style="stroke: none; stroke-width: 1; stroke-dasharray: none; stroke-linecap: butt; stroke-dashoffset: 0; stroke-linejoin: miter; stroke-miterlimit: 4; fill: rgb(35,31,32); fill-rule: evenodd; opacity: 1;"  paint-order="stroke"  transform=" translate(-3054.4025868251974, -3960)" d="M 2688.35 4221.37 L 3054.54 4362.01 L 3420.73 4216.070000000001 C 3420.73 4216.070000000001 3422.46 4162.290000000001 3406.83 4081.8600000000006 C 3304.23 4147.51 3182.27 4185.570000000001 3051.42 4185.570000000001 C 2921.37 4185.570000000001 2800.13 4147.960000000001 2697.92 4083.0500000000006 C 2690.4500000000003 4126.580000000001 2686.86 4172.68 2688.35 4221.370000000001 z M 3307.96 3818.85 C 3254.52 3727.88 3175.8 3635.29 3059.85 3557.99 C 3059.85 3557.99 2892.54 3658.3999999999996 2782.39 3850.81 C 2872.2999999999997 3804.98 2974.0699999999997 3779.12 3081.8999999999996 3779.12 C 3161.3199999999997 3779.12 3237.45 3793.15 3307.9599999999996 3818.85" stroke-linecap="round" />
</g>
		<g transform="matrix(0.3241821743733114 0 0 -0.3241821743733114 -1.813728769723582 -2.842171e-14)"  >
<path style="stroke: none; stroke-width: 1; stroke-dasharray: none; stroke-linecap: butt; stroke-dashoffset: 0; stroke-linejoin: miter; stroke-miterlimit: 4; fill: rgb(56,53,54); fill-rule: evenodd; opacity: 1;"  paint-order="stroke"  transform=" translate(-3054.405217457654, -3960)" d="M 2748.04 4178.75 L 3054.52 4296.45 L 3361 4174.3099999999995 C 3361 4174.3099999999995 3361.78 4150.129999999999 3357.05 4110.73 C 3265.6600000000003 4158.53 3161.7000000000003 4185.57 3051.42 4185.57 C 2942.71 4185.57 2840.15 4159.299999999999 2749.7200000000003 4112.759999999999 C 2747.96 4134.089999999999 2747.3500000000004 4156.089999999999 2748.0400000000004 4178.749999999999 z M 3238.33 3797.77 C 3195.3199999999997 3736.32 3137.29 3675.77 3058.96 3623.55 C 3058.96 3623.55 2948.41 3689.9100000000003 2859.09 3817.67 C 2928.7000000000003 3792.7200000000003 3003.71 3779.12 3081.9 3779.12 C 3135.8 3779.12 3188.1800000000003 3785.5899999999997 3238.33 3797.77" stroke-linecap="round" />
</g>
		<g transform="matrix(0.3241821743733114 0 0 -0.3241821743733114 47.83761481981628 -2.842171e-14)"  >
<path style="stroke: none; stroke-width: 1; stroke-dasharray: none; stroke-linecap: butt; stroke-dashoffset: 0; stroke-linejoin: miter; stroke-miterlimit: 4; fill: rgb(79,76,76); fill-rule: evenodd; opacity: 1;"  paint-order="stroke"  transform=" translate(-3207.5639890203493, -3960)" d="M 3054.52 4296.45 L 3361 4174.31 C 3361 4174.31 3361.78 4150.13 3357.05 4110.7300000000005 C 3266.3900000000003 4158.14 3163.38 4185.13 3054.08 4185.570000000001 L 3054.08 4185.570000000001 z M 3057.61 3779.56 L 3058.96 3623.55 C 3137.29 3675.77 3195.32 3736.32 3238.33 3797.77 C 3188.18 3785.59 3135.7999999999997 3779.12 3081.9 3779.12 C 3073.77 3779.12 3065.67 3779.2599999999998 3057.61 3779.56" stroke-linecap="round" />
</g>
		<g transform="matrix(0.3241821743733114 0 0 -0.3241821743733114 -5.684342e-14 -7.879247748143513)"  >
<path style="stroke: none; stroke-width: 1; stroke-dasharray: none; stroke-linecap: butt; stroke-dashoffset: 0; stroke-linejoin: miter; stroke-miterlimit: 4; fill: rgb(101,98,99); fill-rule: evenodd; opacity: 1;"  paint-order="stroke"  transform=" translate(-3060, -3984.3050000000003)" d="M 2629.09 3998.65 C 2736.81 4103.59 2883.94 4168.26 3046.2000000000003 4168.26 C 3222.7900000000004 4168.26 3381.46 4091.6800000000003 3490.9100000000003 3969.9500000000003 C 3383.1900000000005 3865.0200000000004 3236.0600000000004 3800.3500000000004 3073.8 3800.3500000000004 C 2897.21 3800.3500000000004 2738.53 3876.9200000000005 2629.09 3998.6500000000005" stroke-linecap="round" />
</g>
		<g transform="matrix(0.3241821743733114 0 0 -0.3241821743733114 -5.684342e-14 -7.877626837271663)"  >
<path style="stroke: none; stroke-width: 1; stroke-dasharray: none; stroke-linecap: butt; stroke-dashoffset: 0; stroke-linejoin: miter; stroke-miterlimit: 4; fill: rgb(35,31,32); fill-rule: evenodd; opacity: 1;"  paint-order="stroke"  transform=" translate(-3060, -3984.3)" d="M 3060 4151.8 C 3161.21 4151.8 3243.27 4076.8100000000004 3243.27 3984.3 C 3243.27 3891.79 3161.21 3816.8 3060 3816.8 C 2958.79 3816.8 2876.73 3891.79 2876.73 3984.3 C 2876.73 4076.8100000000004 2958.79 4151.8 3060 4151.8" stroke-linecap="round" />
</g>
		<g transform="matrix(0.3241821743733114 0 0 -0.3241821743733114 -28.515064057876543 -26.516480952865095)"  >
<path style="stroke: none; stroke-width: 1; stroke-dasharray: none; stroke-linecap: butt; stroke-dashoffset: 0; stroke-linejoin: miter; stroke-miterlimit: 4; fill: rgb(237,28,36); fill-rule: evenodd; opacity: 1;"  paint-order="stroke"  transform=" translate(-2972.04, -4041.795)" d="M 2972.04 4065.94 C 2985.69 4065.94 2996.7599999999998 4055.13 2996.7599999999998 4041.79 C 2996.7599999999998 4028.46 2985.6899999999996 4017.65 2972.04 4017.65 C 2958.39 4017.65 2947.32 4028.46 2947.32 4041.79 C 2947.32 4055.13 2958.3900000000003 4065.94 2972.04 4065.94" stroke-linecap="round" />
</g>
		<g transform="matrix(0.3241821743733114 0 0 -0.3241821743733114 6.678713755812737 -1.612606011470973)"  >
<path style="stroke: none; stroke-width: 1; stroke-dasharray: none; stroke-linecap: butt; stroke-dashoffset: 0; stroke-linejoin: miter; stroke-miterlimit: 4; fill: rgb(56,53,54); fill-rule: evenodd; opacity: 1;"  paint-order="stroke"  transform=" translate(-3080.6017303965696, -3964.9743821189063)" d="M 2943.87 3901.52 C 3054.25 3896.93 3158.87 3940.62 3165.77 4093.5299999999997 C 3328.23 3953.93 3065.74 3722.79 2943.87 3901.5199999999995" stroke-linecap="round" />
</g>
		<g transform="matrix(0.3241821743733114 0 0 -0.3241821743733114 -44.738760974388924 -38.82891993556353)"  >
<path style="stroke: none; stroke-width: 1; stroke-dasharray: none; stroke-linecap: butt; stroke-dashoffset: 0; stroke-linejoin: miter; stroke-miterlimit: 4; fill: rgb(255,255,255); fill-rule: evenodd; opacity: 1;"  paint-order="stroke"  transform=" translate(-2921.995, -4079.775)" d="M 2922 4146.46 L 2932.48 4092.45 L 2977.18 4079.77 L 2932.48 4067.11 L 2922 4013.09 L 2911.51 4067.11 L 2866.8100000000004 4079.77 L 2911.51 4092.45 L 2922 4146.46" stroke-linecap="round" />
</g>
</g>
</g>
<g transform="matrix(0.10038826374695806 1.9185292015222462 -1.9185292015222462 0.10038826374695806 1054.0341801689585 453.45201868044325)" id="bf9f48d5-5807-424f-8d9f-fe1c14faa459-path-group"  >
<g style=""  paint-order="stroke"   >
		<g transform="matrix(1 0 0 1.0000000000000002 0 0)" id="845ac638-92e2-4c68-970d-7d3cd4d0d936-path-0"  >
<path style="stroke: none; stroke-width: 0; stroke-dasharray: none; stroke-linecap: butt; stroke-dashoffset: 0; stroke-linejoin: miter; stroke-miterlimit: 4; fill: rgb(35,31,32); fill-rule: nonzero; opacity: 1;"  paint-order="stroke"  transform=" translate(-10.255, 10.85)" d="M 15.05 0 L 18.62 0 L 18.62 -21.7 L 14.28 -21.7 L 14.28 -8.68 L 5.43 -21.7 L 1.89 -21.7 L 1.89 0 L 6.23 0 L 6.23 -13.02 Z" stroke-linecap="round" />
</g>
</g>
</g>
<g transform="matrix(0.3000683520987096 1.897575053762164 -1.8975750537621643 0.3000683520987096 1049.5258829649206 410.4279287691488)" id="4007cb5b-50df-4435-8d28-55286d0a842b-path-group"  >
<g style=""  paint-order="stroke"   >
		<g transform="matrix(0.9999999999999998 0 0 1 0 0)" id="1f3157d5-6848-47b8-a06e-603d86589dc6-path-0"  >
<path style="stroke: none; stroke-width: 0; stroke-dasharray: none; stroke-linecap: butt; stroke-dashoffset: 0; stroke-linejoin: miter; stroke-miterlimit: 4; fill: rgb(35,31,32); fill-rule: nonzero; opacity: 1;"  paint-order="stroke"  transform=" translate(-10.255, 10.85)" d="M 13.02 -17.5 C 13.34 -17.5 13.51 -17.36 13.51 -17.01 L 13.51 -4.69 C 13.51 -4.34 13.34 -4.2 13.02 -4.2 L 7.49 -4.2 C 7.18 -4.2 7 -4.34 7 -4.69 L 7 -17.01 C 7 -17.36 7.18 -17.5 7.49 -17.5 Z M 1.89 -5.11 C 1.89 -1.51 3.92 0.35 8.02 0.35 L 12.46 0.35 C 16.56 0.35 18.62 -1.51 18.62 -5.11 L 18.62 -16.59 C 18.62 -20.2 16.56 -22.05 12.46 -22.05 L 8.02 -22.05 C 3.92 -22.05 1.89 -20.2 1.89 -16.59 Z" stroke-linecap="round" />
</g>
</g>
</g>
<g transform="matrix(0.4473784127359022 1.8683374043276073 -1.8683374043276075 0.44737841273590223 1043.2284174622782 378.6874698943452)" id="5f1e292e-8ed8-4fcc-a604-0af19f875ff2-path-group"  >
<g style=""  paint-order="stroke"   >
		<g transform="matrix(1 0 0 1 0 0)" id="11966d0b-7aba-461d-a4fd-c9a4372416a5-path-0"  >
<path style="stroke: none; stroke-width: 0; stroke-dasharray: none; stroke-linecap: butt; stroke-dashoffset: 0; stroke-linejoin: miter; stroke-miterlimit: 4; fill: rgb(35,31,32); fill-rule: nonzero; opacity: 1;"  paint-order="stroke"  transform=" translate(-5.095000000000001, 10.85)" d="M 7.63 0 L 7.63 -21.7 L 2.56 -21.7 L 2.56 0 Z" stroke-linecap="round" />
</g>
</g>
</g>
<g transform="matrix(0.5674026878166482 1.8354526118781052 -1.8354526118781054 0.5674026878166483 1036.1442895640537 352.82861538985884)" id="b1bb5d4c-e8de-4b56-9719-0cd6cfa7a767-path-group"  >
<g style=""  paint-order="stroke"   >
		<g transform="matrix(0.9999999999999996 0 -5.551e-17 1.0000000000000002 0 0)" id="2c4ff195-508a-464f-bf1e-06fab6ff996e-path-0"  >
<path style="stroke: none; stroke-width: 0; stroke-dasharray: none; stroke-linecap: butt; stroke-dashoffset: 0; stroke-linejoin: miter; stroke-miterlimit: 4; fill: rgb(35,31,32); fill-rule: nonzero; opacity: 1;"  paint-order="stroke"  transform=" translate(-7.635, 10.85)" d="M 10.15 0 L 10.15 -17.29 L 15.09 -17.29 L 15.09 -21.7 L 0.18 -21.7 L 0.18 -17.29 L 5.11 -17.29 L 5.11 0 Z" stroke-linecap="round" />
</g>
</g>
</g>
<g transform="matrix(0.7058509084290905 1.7867866676415354 -1.7867866676415356 0.7058509084290905 1026.1676904108924 324.27786044157114)" id="11e2e38c-b814-4ade-8aa6-aa17456f926b-path-group"  >
<g style=""  paint-order="stroke"   >
		<g transform="matrix(1 0 0 1 0 0)" id="ee253146-16ab-4baa-8dce-a48a5c42a80e-path-0"  >
<path style="stroke: none; stroke-width: 0; stroke-dasharray: none; stroke-linecap: butt; stroke-dashoffset: 0; stroke-linejoin: miter; stroke-miterlimit: 4; fill: rgb(35,31,32); fill-rule: nonzero; opacity: 1;"  paint-order="stroke"  transform=" translate(-8.35, 10.85)" d="M 14.88 -4.55 L 7.42 -4.55 C 7.11 -4.55 6.93 -4.69 6.93 -5.04 L 6.93 -16.7 C 6.93 -17.05 7.11 -17.15 7.42 -17.15 L 14.88 -17.15 L 14.88 -21.7 L 7.98 -21.7 C 3.89 -21.7 1.82 -19.85 1.82 -16.24 L 1.82 -5.46 C 1.82 -1.86 3.89 0 7.98 0 L 14.88 0 Z" stroke-linecap="round" />
</g>
</g>
</g>
<g transform="matrix(0.8482768321494161 1.723733887997294 -1.7237338879972943 0.8482768321494162 1012.5621970072106 293.2865000472249)" id="7464e3bc-d106-4bb1-b1e9-5bd454c1c0cf-path-group"  >
<g style=""  paint-order="stroke"   >
		<g transform="matrix(1 0 0 1 0 0)" id="fdc8b402-0506-4c6b-9447-bfe3da01d165-path-0"  >
<path style="stroke: none; stroke-width: 0; stroke-dasharray: none; stroke-linecap: butt; stroke-dashoffset: 0; stroke-linejoin: miter; stroke-miterlimit: 4; fill: rgb(35,31,32); fill-rule: nonzero; opacity: 1;"  paint-order="stroke"  transform=" translate(-8.86, 10.85)" d="M 15.51 0 L 15.51 -4.41 L 7.28 -4.41 L 7.28 -8.82 L 14.67 -8.82 L 14.67 -13.16 L 7.28 -13.16 L 7.28 -17.29 L 15.33 -17.29 L 15.33 -21.7 L 2.21 -21.7 L 2.21 0 Z" stroke-linecap="round" />
</g>
</g>
</g>
<g transform="matrix(0.9851268122160416 1.649350558384959 -1.649350558384959 0.9851268122160416 996.0541148611537 262.8209129161709)" id="d88eac15-81c2-447c-91e4-85018ba4f438-path-group"  >
<g style=""  paint-order="stroke"   >
		<g transform="matrix(1 0 0 1 0 0)" id="5e2a1134-b65b-4020-8a18-f251b1727428-path-0"  >
<path style="stroke: none; stroke-width: 0; stroke-dasharray: none; stroke-linecap: butt; stroke-dashoffset: 0; stroke-linejoin: miter; stroke-miterlimit: 4; fill: rgb(35,31,32); fill-rule: nonzero; opacity: 1;"  paint-order="stroke"  transform=" translate(-7.635, 10.85)" d="M 10.15 0 L 10.15 -17.29 L 15.09 -17.29 L 15.09 -21.7 L 0.18 -21.7 L 0.18 -17.29 L 5.11 -17.29 L 5.11 0 Z" stroke-linecap="round" />
</g>
</g>
</g>
<g transform="matrix(1.1311695257461032 1.5528321237709672 -1.5528321237709672 1.1311695257461032 975.2611096115738 231.3523419308632)" id="cccdaa50-db08-4b2c-bae6-c8414c553ecb-path-group"  >
<g style=""  paint-order="stroke"   >
		<g transform="matrix(1 0 0 1 0 0)" id="2cd3daaf-7353-422e-8bd4-13a731753a11-path-0"  >
<path style="stroke: none; stroke-width: 0; stroke-dasharray: none; stroke-linecap: butt; stroke-dashoffset: 0; stroke-linejoin: miter; stroke-miterlimit: 4; fill: rgb(35,31,32); fill-rule: nonzero; opacity: 1;"  paint-order="stroke"  transform=" translate(-10.255, 10.85)" d="M 13.02 -17.5 C 13.34 -17.5 13.51 -17.36 13.51 -17.01 L 13.51 -4.69 C 13.51 -4.34 13.34 -4.2 13.02 -4.2 L 7.49 -4.2 C 7.18 -4.2 7 -4.34 7 -4.69 L 7 -17.01 C 7 -17.36 7.18 -17.5 7.49 -17.5 Z M 1.89 -5.11 C 1.89 -1.51 3.92 0.35 8.02 0.35 L 12.46 0.35 C 16.56 0.35 18.62 -1.51 18.62 -5.11 L 18.62 -16.59 C 18.62 -20.2 16.56 -22.05 12.46 -22.05 L 8.02 -22.05 C 3.92 -22.05 1.89 -20.2 1.89 -16.59 Z" stroke-linecap="round" />
</g>
</g>
</g>
<g transform="matrix(1.28162805258607 1.431174914333029 -1.431174914333029 1.2816280525860702 950.245306024385 200.01191467708088)" id="d36f6b7a-881c-4ee8-a682-75e116b55b82-path-group"  >
<g style=""  paint-order="stroke"   >
		<g transform="matrix(0.9999999999999998 0 0 0.9999999999999998 0 0)" id="5af3d827-711d-4c54-9db0-a945ba242dd6-path-0"  >
<path style="stroke: none; stroke-width: 0; stroke-dasharray: none; stroke-linecap: butt; stroke-dashoffset: 0; stroke-linejoin: miter; stroke-miterlimit: 4; fill: rgb(35,31,32); fill-rule: nonzero; opacity: 1;"  paint-order="stroke"  transform=" translate(-10.605, 10.940848163959446)" d="M 7.46 0 L 7.46 -7.77 L 10.85 -7.77 C 11.27 -7.77 11.27 -7.6 11.41 -7.21 L 13.79 0 L 18.83 0 L 16.73 -6.02 C 16.28 -7.25 15.72 -7.98 14.91 -8.47 C 16.94 -9.45 17.96 -11.41 17.96 -13.62 L 17.96 -16.24 C 17.96 -19.85 15.72 -21.95 11.62 -21.88 L 2.38 -21.7 L 2.38 0 Z M 12.36 -17.47 C 12.67 -17.47 12.81 -17.33 12.81 -16.98 L 12.81 -12.6 C 12.81 -12.25 12.67 -12.15 12.36 -12.15 L 7.46 -12.15 L 7.46 -17.47 Z" stroke-linecap="round" />
</g>
</g>
</g>
<g transform="matrix(1.4138671333817427 1.3006966709170167 -1.3006966709170167 1.4138671333817427 922.3436173998182 171.49694876799725)" id="424dae94-34f9-4bcb-a744-e80cf28eefbe-path-group"  >
<g style=""  paint-order="stroke"   >
		<g transform="matrix(0.9999999999999999 0 0 1.0000000000000002 0 0)" id="51b6844b-0940-40cc-ae5e-e1f0f353fec5-path-0"  >
<path style="stroke: none; stroke-width: 0; stroke-dasharray: none; stroke-linecap: butt; stroke-dashoffset: 0; stroke-linejoin: miter; stroke-miterlimit: 4; fill: rgb(35,31,32); fill-rule: nonzero; opacity: 1;"  paint-order="stroke"  transform=" translate(-10.115000000000002, 10.940848163959446)" d="M 7.46 0 L 7.46 -7.14 L 11.52 -7.14 C 15.61 -7.14 17.85 -9.7 17.85 -12.95 L 17.85 -16.24 C 17.85 -19.85 15.61 -21.95 11.52 -21.88 L 2.38 -21.7 L 2.38 0 Z M 12.25 -17.47 C 12.57 -17.47 12.71 -17.33 12.71 -16.98 L 12.71 -12.04 C 12.71 -11.69 12.57 -11.55 12.25 -11.55 L 7.46 -11.55 L 7.46 -17.47 Z" stroke-linecap="round" />
</g>
</g>
</g>
<g transform="matrix(1.4945733336107812 1.2070967861158746 -1.2070967861158746 1.4945733336107814 892.7608921717024 173.36056645479266)" id="3a33f2df-3089-4b02-918a-18d4b2ea3b8f-path-group"  >
<g style=""  paint-order="stroke"   >
		<g transform="matrix(1 0 0 1 0 0)" id="38b3262e-493a-43b5-b963-6807ef297b45-path-0"  >
<path style="stroke: none; stroke-width: 0; stroke-dasharray: none; stroke-linecap: butt; stroke-dashoffset: 0; stroke-linejoin: miter; stroke-miterlimit: 4; fill: rgb(35,31,32); fill-rule: nonzero; opacity: 1;"  paint-order="stroke"  transform=" translate(0, 0)" d="" stroke-linecap="round" />
</g>
</g>
</g>
<g transform="matrix(1.5708259075065354 1.1060461423005752 -1.1060461423005754 1.5708259075065356 878.9641697874807 136.58798001276693)" id="bfcc9680-2801-49d0-bea4-8d6f3ac668a2-path-group"  >
<g style=""  paint-order="stroke"   >
		<g transform="matrix(0.9999999999999997 0 -5.551e-17 1.0000000000000002 0 0)" id="f3688622-111b-4825-b85c-db1bf3cfb4c4-path-0"  >
<path style="stroke: none; stroke-width: 0; stroke-dasharray: none; stroke-linecap: butt; stroke-dashoffset: 0; stroke-linejoin: miter; stroke-miterlimit: 4; fill: rgb(35,31,32); fill-rule: nonzero; opacity: 1;"  paint-order="stroke"  transform=" translate(-9.49, 10.85)" d="M 11.94 0 L 11.94 -7.56 C 13.55 -7.91 14.07 -8.82 14.91 -11.1 L 18.8 -21.7 L 13.79 -21.7 L 10.5 -12.25 C 10.4 -11.9 10.26 -11.8 9.94 -11.8 L 9.24 -11.8 C 8.89 -11.8 8.79 -11.9 8.68 -12.25 L 5.46 -21.7 L 0.18 -21.7 L 3.92 -11.13 C 4.66 -9.1 5.29 -8.12 6.86 -7.67 L 6.86 0 Z" stroke-linecap="round" />
</g>
</g>
</g>
<g transform="matrix(1.6613305422879443 0.9647864685270836 -0.9647864685270836 1.6613305422879443 849.7633042496848 117.80630465317023)" id="ae8def47-07e2-45c4-ae2e-64d4e2b06a61-path-group"  >
<g style=""  paint-order="stroke"   >
		<g transform="matrix(1 0 0 1 0 0)" id="8606488e-2d8b-4aba-8768-431753908b87-path-0"  >
<path style="stroke: none; stroke-width: 0; stroke-dasharray: none; stroke-linecap: butt; stroke-dashoffset: 0; stroke-linejoin: miter; stroke-miterlimit: 4; fill: rgb(35,31,32); fill-rule: nonzero; opacity: 1;"  paint-order="stroke"  transform=" translate(-8.35, 10.85)" d="M 14.88 -4.55 L 7.42 -4.55 C 7.11 -4.55 6.93 -4.69 6.93 -5.04 L 6.93 -16.7 C 6.93 -17.05 7.11 -17.15 7.42 -17.15 L 14.88 -17.15 L 14.88 -21.7 L 7.98 -21.7 C 3.89 -21.7 1.82 -19.85 1.82 -16.24 L 1.82 -5.46 C 1.82 -1.86 3.89 0 7.98 0 L 14.88 0 Z" stroke-linecap="round" />
</g>
</g>
</g>
<g transform="matrix(1.7395307834336564 0.8153923927032961 -0.8153923927032962 1.7395307834336566 816.5356822885202 100.14161386552883)" id="fc8e3ad2-61ed-44ab-a11b-4b89916c036a-path-group"  >
<g style=""  paint-order="stroke"   >
		<g transform="matrix(1 0 0 1 0 0)" id="ced299d2-e31b-4f41-afb7-ad64da71e7c8-path-0"  >
<path style="stroke: none; stroke-width: 0; stroke-dasharray: none; stroke-linecap: butt; stroke-dashoffset: 0; stroke-linejoin: miter; stroke-miterlimit: 4; fill: rgb(35,31,32); fill-rule: nonzero; opacity: 1;"  paint-order="stroke"  transform=" translate(-9.645, 10.943416714864588)" d="M 19.04 0 L 14.46 -21.7 L 9.52 -21.88 C 6.37 -21.98 5.46 -21 4.69 -17.78 L 0.25 0 L 4.97 0 L 6.06 -4.83 L 13.06 -4.83 L 14 0 Z M 8.82 -16.87 C 8.89 -17.22 8.96 -17.36 9.31 -17.36 L 10.61 -17.36 L 12.22 -9.17 L 7.04 -9.17 Z" stroke-linecap="round" />
</g>
</g>
</g>
<g transform="matrix(1.809865452600984 0.6443750026755781 -0.6443750026755781 1.809865452600984 779.4925070838852 85.23743963377495)" id="fae3a4e1-d92a-461b-81da-fc9a216fd811-path-group"  >
<g style=""  paint-order="stroke"   >
		<g transform="matrix(1 0 5.551e-17 1.0000000000000007 0 0)" id="3d97b67d-56a2-403c-97bf-ef8a417e8096-path-0"  >
<path style="stroke: none; stroke-width: 0; stroke-dasharray: none; stroke-linecap: butt; stroke-dashoffset: 0; stroke-linejoin: miter; stroke-miterlimit: 4; fill: rgb(35,31,32); fill-rule: nonzero; opacity: 1;"  paint-order="stroke"  transform=" translate(-9.295, 10.778373002598153)" d="M 14.35 -3.92 L 18.41 -21.7 L 13.69 -21.7 L 10.08 -4.9 C 10.01 -4.55 9.94 -4.41 9.59 -4.41 L 8.4 -4.41 L 5.15 -21.7 L 0.18 -21.7 L 4.48 0 L 9.91 0.14 C 12.99 0.21 13.62 -0.84 14.35 -3.92 Z" stroke-linecap="round" />
</g>
</g>
</g>
<g transform="matrix(1.8521849651199243 0.5101401332726347 -0.5101401332726349 1.8521849651199245 750.6179127030551 75.98663952670614)" id="ce2715c2-4448-48c3-ac84-26377697764f-path-group"  >
<g style=""  paint-order="stroke"   >
		<g transform="matrix(0.9999999999999996 0 0 1 0 0)" id="79d1d437-109d-4bae-bfc7-7706174ba023-path-0"  >
<path style="stroke: none; stroke-width: 0; stroke-dasharray: none; stroke-linecap: butt; stroke-dashoffset: 0; stroke-linejoin: miter; stroke-miterlimit: 4; fill: rgb(35,31,32); fill-rule: nonzero; opacity: 1;"  paint-order="stroke"  transform=" translate(-5.095000000000001, 10.85)" d="M 7.63 0 L 7.63 -21.7 L 2.56 -21.7 L 2.56 0 Z" stroke-linecap="round" />
</g>
</g>
</g>
<g transform="matrix(1.8854745466502614 0.3685347127825382 -0.3685347127825382 1.8854745466502616 721.7070943657127 68.95078804299118)" id="706ade5d-808d-407e-a1a1-5ff2462fed2f-path-group"  >
<g style=""  paint-order="stroke"   >
		<g transform="matrix(1 0 0 1 0 0)" id="90fff0b0-3dfb-4b60-a1f8-36860d0c60e3-path-0"  >
<path style="stroke: none; stroke-width: 0; stroke-dasharray: none; stroke-linecap: butt; stroke-dashoffset: 0; stroke-linejoin: miter; stroke-miterlimit: 4; fill: rgb(35,31,32); fill-rule: nonzero; opacity: 1;"  paint-order="stroke"  transform=" translate(-10.605, 10.940848163959446)" d="M 7.46 0 L 7.46 -7.77 L 10.85 -7.77 C 11.27 -7.77 11.27 -7.6 11.41 -7.21 L 13.79 0 L 18.83 0 L 16.73 -6.02 C 16.28 -7.25 15.72 -7.98 14.91 -8.47 C 16.94 -9.45 17.96 -11.41 17.96 -13.62 L 17.96 -16.24 C 17.96 -19.85 15.72 -21.95 11.62 -21.88 L 2.38 -21.7 L 2.38 0 Z M 12.36 -17.47 C 12.67 -17.47 12.81 -17.33 12.81 -16.98 L 12.81 -12.6 C 12.81 -12.25 12.67 -12.15 12.36 -12.15 L 7.46 -12.15 L 7.46 -17.47 Z" stroke-linecap="round" />
</g>
</g>
</g>
<g transform="matrix(1.9122545293585707 0.18470169338516454 -0.18470169338516454 1.9122545293585707 682.2554230699803 63.03625239688955)" id="7eb9638c-677b-4354-a964-e68c9c3d8916-path-group"  >
<g style=""  paint-order="stroke"   >
		<g transform="matrix(1 0 0 1 0 -3.55271e-15)" id="b09a3a85-2963-413e-85f1-0e581b54ff6b-path-0"  >
<path style="stroke: none; stroke-width: 0; stroke-dasharray: none; stroke-linecap: butt; stroke-dashoffset: 0; stroke-linejoin: miter; stroke-miterlimit: 4; fill: rgb(35,31,32); fill-rule: nonzero; opacity: 1;"  paint-order="stroke"  transform=" translate(-10.115000000000002, 10.940848163959446)" d="M 7.46 0 L 7.46 -7.14 L 11.52 -7.14 C 15.61 -7.14 17.85 -9.7 17.85 -12.95 L 17.85 -16.24 C 17.85 -19.85 15.61 -21.95 11.52 -21.88 L 2.38 -21.7 L 2.38 0 Z M 12.25 -17.47 C 12.57 -17.47 12.71 -17.33 12.71 -16.98 L 12.71 -12.04 C 12.71 -11.69 12.57 -11.55 12.25 -11.55 L 7.46 -11.55 L 7.46 -17.47 Z" stroke-linecap="round" />
</g>
</g>
</g>
<g transform="matrix(1.9201735149123003 0.061365896237715836 -0.061365896237715836 1.9201735149123003 659.7742544277343 82.36212019106847)" id="63a25f92-4a9f-4619-9aa6-8fa63b0c08a2-path-group"  >
<g style=""  paint-order="stroke"   >
		<g transform="matrix(0.9999999999999979 0 -6.245e-17 1 0 0)" id="db3631f4-7638-4cd9-8131-a28df5900a2e-path-0"  >
<path style="stroke: none; stroke-width: 0; stroke-dasharray: none; stroke-linecap: butt; stroke-dashoffset: 0; stroke-linejoin: miter; stroke-miterlimit: 4; fill: rgb(35,31,32); fill-rule: nonzero; opacity: 1;"  paint-order="stroke"  transform=" translate(0, 0)" d="" stroke-linecap="round" />
</g>
</g>
</g>
<g transform="matrix(1.9206353030679941 -0.044633319399645204 0.04463331939964521 1.9206353030679943 633.055811741557 61.18351495187244)" id="85f9140d-403b-4860-8b24-144825c547ba-path-group"  >
<g style=""  paint-order="stroke"   >
		<g transform="matrix(1 0 0 1 0 0)" id="6c5f06b2-5ad2-4b3d-9aeb-0c02e4e9edcd-path-0"  >
<path style="stroke: none; stroke-width: 0; stroke-dasharray: none; stroke-linecap: butt; stroke-dashoffset: 0; stroke-linejoin: miter; stroke-miterlimit: 4; fill: rgb(35,31,32); fill-rule: nonzero; opacity: 1;"  paint-order="stroke"  transform=" translate(-8.440000000000001, 10.85)" d="M 14.67 -4.41 L 7.28 -4.41 L 7.28 -21.7 L 2.21 -21.7 L 2.21 0 L 14.67 0 Z" stroke-linecap="round" />
</g>
</g>
</g>
<g transform="matrix(1.9095599178725773 -0.21074396941832613 0.21074396941832615 1.9095599178725775 595.360834973601 63.426493618293364)" id="dd7191cf-778a-487e-992c-5efc5ac8faaf-path-group"  >
<g style=""  paint-order="stroke"   >
		<g transform="matrix(1 0 0 1 0 0)" id="9924a8be-f3ac-4a7d-9b60-97adbb1a678d-path-0"  >
<path style="stroke: none; stroke-width: 0; stroke-dasharray: none; stroke-linecap: butt; stroke-dashoffset: 0; stroke-linejoin: miter; stroke-miterlimit: 4; fill: rgb(35,31,32); fill-rule: nonzero; opacity: 1;"  paint-order="stroke"  transform=" translate(-9.645, 10.943416714864588)" d="M 19.04 0 L 14.46 -21.7 L 9.52 -21.88 C 6.37 -21.98 5.46 -21 4.69 -17.78 L 0.25 0 L 4.97 0 L 6.06 -4.83 L 13.06 -4.83 L 14 0 Z M 8.82 -16.87 C 8.89 -17.22 8.96 -17.36 9.31 -17.36 L 10.61 -17.36 L 12.22 -9.17 L 7.04 -9.17 Z" stroke-linecap="round" />
</g>
</g>
</g>
<g transform="matrix(1.8784971138139994 -0.4025924663778362 0.40259246637783624 1.8784971138139996 553.9611647129892 70.29989825714455)" id="d8374292-4387-452e-b58f-4926e69352fb-path-group"  >
<g style=""  paint-order="stroke"   >
		<g transform="matrix(0.9999999999999999 0 0 1 0 0)" id="22facd42-a6df-483e-bddc-8e6381707e1d-path-0"  >
<path style="stroke: none; stroke-width: 0; stroke-dasharray: none; stroke-linecap: butt; stroke-dashoffset: 0; stroke-linejoin: miter; stroke-miterlimit: 4; fill: rgb(35,31,32); fill-rule: nonzero; opacity: 1;"  paint-order="stroke"  transform=" translate(-10.255, 10.85)" d="M 15.05 0 L 18.62 0 L 18.62 -21.7 L 14.28 -21.7 L 14.28 -8.68 L 5.43 -21.7 L 1.89 -21.7 L 1.89 0 L 6.23 0 L 6.23 -13.02 Z" stroke-linecap="round" />
</g>
</g>
</g>
<g transform="matrix(1.8262218806350563 -0.5964442499357949 0.5964442499357949 1.8262218806350565 512.1946125270875 81.55959140732477)" id="c39630fe-eb9a-4bfa-a6e2-6477b55e54d6-path-group"  >
<g style=""  paint-order="stroke"   >
		<g transform="matrix(1 0 0 1 0 0)" id="7686fee6-877f-4bd9-a14d-17ee8ab07672-path-0"  >
<path style="stroke: none; stroke-width: 0; stroke-dasharray: none; stroke-linecap: butt; stroke-dashoffset: 0; stroke-linejoin: miter; stroke-miterlimit: 4; fill: rgb(35,31,32); fill-rule: nonzero; opacity: 1;"  paint-order="stroke"  transform=" translate(-10.255, 10.85)" d="M 13.02 -17.5 C 13.34 -17.5 13.51 -17.36 13.51 -17.01 L 13.51 -4.69 C 13.51 -4.34 13.34 -4.2 13.02 -4.2 L 7.49 -4.2 C 7.18 -4.2 7 -4.34 7 -4.69 L 7 -17.01 C 7 -17.36 7.18 -17.5 7.49 -17.5 Z M 1.89 -5.11 C 1.89 -1.51 3.92 0.35 8.02 0.35 L 12.46 0.35 C 16.56 0.35 18.62 -1.51 18.62 -5.11 L 18.62 -16.59 C 18.62 -20.2 16.56 -22.05 12.46 -22.05 L 8.02 -22.05 C 3.92 -22.05 1.89 -20.2 1.89 -16.59 Z" stroke-linecap="round" />
</g>
</g>
</g>
<g transform="matrix(1.761449131156247 -0.7668957288579842 0.7668957288579843 1.7614491311562472 475.51604818333954 95.49407135816028)" id="6f702582-9f8c-4cff-861f-219e42642940-path-group"  >
<g style=""  paint-order="stroke"   >
		<g transform="matrix(1 0 0 1 0 0)" id="991457ec-7568-4b00-b546-ab977435992d-path-0"  >
<path style="stroke: none; stroke-width: 0; stroke-dasharray: none; stroke-linecap: butt; stroke-dashoffset: 0; stroke-linejoin: miter; stroke-miterlimit: 4; fill: rgb(35,31,32); fill-rule: nonzero; opacity: 1;"  paint-order="stroke"  transform=" translate(-8.4, 10.85000739534679)" d="M 6.55 -13.2 C 6.23 -13.2 6.06 -13.34 6.06 -13.69 L 6.06 -16.8 C 6.06 -17.15 6.23 -17.29 6.55 -17.29 L 15.09 -17.29 L 15.09 -21.7 L 7.25 -21.88 C 3.15 -21.98 0.91 -19.85 0.91 -16.24 L 0.91 -14.35 C 0.91 -10.75 3.15 -8.61 7.25 -8.61 L 10.29 -8.61 C 10.61 -8.61 10.78 -8.47 10.78 -8.12 L 10.78 -4.9 C 10.78 -4.55 10.61 -4.41 10.29 -4.41 L 1.47 -4.41 L 1.47 0 L 9.56 0.18 C 13.65 0.28 15.89 -1.86 15.89 -5.46 L 15.89 -7.46 C 15.89 -11.06 13.65 -13.2 9.56 -13.2 Z" stroke-linecap="round" />
</g>
</g>
</g>
<g transform="matrix(1.6839167945066966 -0.9248006973234871 0.9248006973234871 1.6839167945066966 442.7623665242865 111.30070302826834)" id="6bd2b4fa-1e37-4c39-8ea0-4ac46a854148-path-group"  >
<g style=""  paint-order="stroke"   >
		<g transform="matrix(1 0 0 1 0 0)" id="36469ec5-955a-48ce-a4ce-5680ed8cbf4c-path-0"  >
<path style="stroke: none; stroke-width: 0; stroke-dasharray: none; stroke-linecap: butt; stroke-dashoffset: 0; stroke-linejoin: miter; stroke-miterlimit: 4; fill: rgb(35,31,32); fill-rule: nonzero; opacity: 1;"  paint-order="stroke"  transform=" translate(-10.605, 10.940848163959446)" d="M 7.46 0 L 7.46 -7.77 L 10.85 -7.77 C 11.27 -7.77 11.27 -7.6 11.41 -7.21 L 13.79 0 L 18.83 0 L 16.73 -6.02 C 16.28 -7.25 15.72 -7.98 14.91 -8.47 C 16.94 -9.45 17.96 -11.41 17.96 -13.62 L 17.96 -16.24 C 17.96 -19.85 15.72 -21.95 11.62 -21.88 L 2.38 -21.7 L 2.38 0 Z M 12.36 -17.47 C 12.67 -17.47 12.81 -17.33 12.81 -16.98 L 12.81 -12.6 C 12.81 -12.25 12.67 -12.15 12.36 -12.15 L 7.46 -12.15 L 7.46 -17.47 Z" stroke-linecap="round" />
</g>
</g>
</g>
<g transform="matrix(1.591785434529527 -1.0756631587125047 1.0756631587125045 1.5917854345295268 409.84613334223496 131.4510120468516)" id="22990df4-0394-40a0-ae5d-71c31b729e6e-path-group"  >
<g style=""  paint-order="stroke"   >
		<g transform="matrix(1 0 0 1 0 0)" id="0b07fe09-de05-4cae-a79f-823397ad0d56-path-0"  >
<path style="stroke: none; stroke-width: 0; stroke-dasharray: none; stroke-linecap: butt; stroke-dashoffset: 0; stroke-linejoin: miter; stroke-miterlimit: 4; fill: rgb(35,31,32); fill-rule: nonzero; opacity: 1;"  paint-order="stroke"  transform=" translate(-8.86, 10.85)" d="M 15.51 0 L 15.51 -4.41 L 7.28 -4.41 L 7.28 -8.82 L 14.67 -8.82 L 14.67 -13.16 L 7.28 -13.16 L 7.28 -17.29 L 15.33 -17.29 L 15.33 -21.7 L 2.21 -21.7 L 2.21 0 Z" stroke-linecap="round" />
</g>
</g>
</g>
<g transform="matrix(1.4913318353023528 -1.2110992765274993 1.2110992765274995 1.4913318353023528 381.0061470624694 152.47156571123503)" id="ccff0228-db7f-4515-91f5-87940d3bdc07-path-group"  >
<g style=""  paint-order="stroke"   >
		<g transform="matrix(1 0 0 1 0 0)" id="4b317a08-157c-446d-b710-011e46d74cd0-path-0"  >
<path style="stroke: none; stroke-width: 0; stroke-dasharray: none; stroke-linecap: butt; stroke-dashoffset: 0; stroke-linejoin: miter; stroke-miterlimit: 4; fill: rgb(35,31,32); fill-rule: nonzero; opacity: 1;"  paint-order="stroke"  transform=" translate(-10.115000000000002, 10.940848163959446)" d="M 7.46 0 L 7.46 -7.14 L 11.52 -7.14 C 15.61 -7.14 17.85 -9.7 17.85 -12.95 L 17.85 -16.24 C 17.85 -19.85 15.61 -21.95 11.52 -21.88 L 2.38 -21.7 L 2.38 0 Z M 12.25 -17.47 C 12.57 -17.47 12.71 -17.33 12.71 -16.98 L 12.71 -12.04 C 12.71 -11.69 12.57 -11.55 12.25 -11.55 L 7.46 -11.55 L 7.46 -17.47 Z" stroke-linecap="round" />
</g>
</g>
</g>
<g transform="matrix(1.410374991503395 -1.3044824582697596 1.3044824582697596 1.4103749915033952 378.5748728554741 182.0172397123966)" id="92aec233-0fd6-4b36-8c9b-1ce3ba0b4908-path-group"  >
<g style=""  paint-order="stroke"   >
		<g transform="matrix(1 0 0 1 0 0)" id="d226b8fa-3123-4a65-90f5-85773fa2cd0d-path-0"  >
<path style="stroke: none; stroke-width: 0; stroke-dasharray: none; stroke-linecap: butt; stroke-dashoffset: 0; stroke-linejoin: miter; stroke-miterlimit: 4; fill: rgb(35,31,32); fill-rule: nonzero; opacity: 1;"  paint-order="stroke"  transform=" translate(0, 0)" d="" stroke-linecap="round" />
</g>
</g>
</g>
<g transform="matrix(1.336280376289925 -1.3802850635046997 1.3802850635046997 1.336280376289925 344.6679156864398 185.69793999759753)" id="7d3b73b6-039a-420c-bd25-7924c068ac48-path-group"  >
<g style=""  paint-order="stroke"   >
		<g transform="matrix(1 0 0 1 0 0)" id="253e02f8-821c-46b1-b755-19b2708d4dbb-path-0"  >
<path style="stroke: none; stroke-width: 0; stroke-dasharray: none; stroke-linecap: butt; stroke-dashoffset: 0; stroke-linejoin: miter; stroke-miterlimit: 4; fill: rgb(35,31,32); fill-rule: nonzero; opacity: 1;"  paint-order="stroke"  transform=" translate(-8.440000000000001, 10.85)" d="M 14.67 -4.41 L 7.28 -4.41 L 7.28 -21.7 L 2.21 -21.7 L 2.21 0 L 14.67 0 Z" stroke-linecap="round" />
</g>
</g>
</g>
<g transform="matrix(1.2117655127606952 -1.4907905428582267 1.4907905428582269 1.2117655127606952 319.40481494954554 213.75895972297792)" id="f059b3b8-7e88-41eb-bae8-3e6e71c7543d-path-group"  >
<g style=""  paint-order="stroke"   >
		<g transform="matrix(1 0 0 1 0 0)" id="65cd9cdf-a700-4fc4-ae6e-dc2c09e5d96c-path-0"  >
<path style="stroke: none; stroke-width: 0; stroke-dasharray: none; stroke-linecap: butt; stroke-dashoffset: 0; stroke-linejoin: miter; stroke-miterlimit: 4; fill: rgb(35,31,32); fill-rule: nonzero; opacity: 1;"  paint-order="stroke"  transform=" translate(-9.645, 10.943416714864588)" d="M 19.04 0 L 14.46 -21.7 L 9.52 -21.88 C 6.37 -21.98 5.46 -21 4.69 -17.78 L 0.25 0 L 4.97 0 L 6.06 -4.83 L 13.06 -4.83 L 14 0 Z M 8.82 -16.87 C 8.89 -17.22 8.96 -17.36 9.31 -17.36 L 10.61 -17.36 L 12.22 -9.17 L 7.04 -9.17 Z" stroke-linecap="round" />
</g>
</g>
</g>
<g transform="matrix(1.0763742931588303 -1.5913046476456179 1.5913046476456179 1.0763742931588303 297.82859270604024 243.10659089849634)" id="f935b4c8-6531-4835-8d5b-f81b90bc6666-path-group"  >
<g style=""  paint-order="stroke"   >
		<g transform="matrix(0.9999999999999997 0 0 0.9999999999999997 0 0)" id="dd8727bc-6b1a-4cb7-a188-697a054dd44f-path-0"  >
<path style="stroke: none; stroke-width: 0; stroke-dasharray: none; stroke-linecap: butt; stroke-dashoffset: 0; stroke-linejoin: miter; stroke-miterlimit: 4; fill: rgb(35,31,32); fill-rule: nonzero; opacity: 1;"  paint-order="stroke"  transform=" translate(-7.635, 10.85)" d="M 10.15 0 L 10.15 -17.29 L 15.09 -17.29 L 15.09 -21.7 L 0.18 -21.7 L 0.18 -17.29 L 5.11 -17.29 L 5.11 0 Z" stroke-linecap="round" />
</g>
</g>
</g>
<g transform="matrix(0.9710891810802419 -1.6576543376049848 1.6576543376049848 0.971089181080242 283.53392050244946 265.7886447990501)" id="a9ccc2b8-9909-45fa-a727-9ab6224155dd-path-group"  >
<g style=""  paint-order="stroke"   >
		<g transform="matrix(1 0 0 1 0 0)" id="0accd178-16e5-4995-9e1f-6d62f156818f-path-0"  >
<path style="stroke: none; stroke-width: 0; stroke-dasharray: none; stroke-linecap: butt; stroke-dashoffset: 0; stroke-linejoin: miter; stroke-miterlimit: 4; fill: rgb(35,31,32); fill-rule: nonzero; opacity: 1;"  paint-order="stroke"  transform=" translate(-5.095000000000001, 10.85)" d="M 7.63 0 L 7.63 -21.7 L 2.56 -21.7 L 2.56 0 Z" stroke-linecap="round" />
</g>
</g>
</g>
<g transform="matrix(0.8455800991628754 -1.7250583748068984 1.7250583748068984 0.8455800991628755 269.16967793179236 292.4974139451334)" id="c750498c-4096-44ac-adea-407784134019-path-group"  >
<g style=""  paint-order="stroke"   >
		<g transform="matrix(1 0 0 1 0 0)" id="7db73ad5-d45e-4262-9da9-b2e87375d400-path-0"  >
<path style="stroke: none; stroke-width: 0; stroke-dasharray: none; stroke-linecap: butt; stroke-dashoffset: 0; stroke-linejoin: miter; stroke-miterlimit: 4; fill: rgb(35,31,32); fill-rule: nonzero; opacity: 1;"  paint-order="stroke"  transform=" translate(-9.66, 10.85)" d="M 11.27 0.35 C 15.37 0.35 17.43 -1.51 17.43 -5.11 L 17.43 -12.25 L 10.26 -12.25 L 10.26 -8.02 L 12.64 -8.02 L 12.64 -4.69 C 12.64 -4.34 12.5 -4.2 12.18 -4.2 L 7.49 -4.2 C 7.18 -4.2 7 -4.34 7 -4.69 L 7 -17.01 C 7 -17.36 7.18 -17.5 7.49 -17.5 L 16.98 -17.5 L 16.98 -22.05 L 8.02 -22.05 C 3.92 -22.05 1.89 -20.2 1.89 -16.59 L 1.89 -5.11 C 1.89 -1.51 3.92 0.35 8.02 0.35 Z" stroke-linecap="round" />
</g>
</g>
</g>
<g transform="matrix(0.7154211841583454 -1.7829763402381948 1.7829763402381948 0.7154211841583454 256.52468153057185 320.87209742173957)" id="cfeca96d-8ac3-45fe-a61e-e2c02af3e6ab-path-group"  >
<g style=""  paint-order="stroke"   >
		<g transform="matrix(1 0 0 1 0 0)" id="aab9ddbb-c66a-4dc1-8ce0-d55c96f3a556-path-0"  >
<path style="stroke: none; stroke-width: 0; stroke-dasharray: none; stroke-linecap: butt; stroke-dashoffset: 0; stroke-linejoin: miter; stroke-miterlimit: 4; fill: rgb(35,31,32); fill-rule: nonzero; opacity: 1;"  paint-order="stroke"  transform=" translate(-5.095000000000001, 10.85)" d="M 7.63 0 L 7.63 -21.7 L 2.56 -21.7 L 2.56 0 Z" stroke-linecap="round" />
</g>
</g>
</g>
<g transform="matrix(0.5755981690694024 -1.8328990284125495 1.8328990284125495 0.5755981690694024 245.84909035075435 350.7405733046802)" id="6ba766e2-84f1-4280-8414-be40aa82bb95-path-group"  >
<g style=""  paint-order="stroke"   >
		<g transform="matrix(1 0 0 1 0 0)" id="0cc6ab6d-10c7-424e-aebd-b4f434b6b4a0-path-0"  >
<path style="stroke: none; stroke-width: 0; stroke-dasharray: none; stroke-linecap: butt; stroke-dashoffset: 0; stroke-linejoin: miter; stroke-miterlimit: 4; fill: rgb(35,31,32); fill-rule: nonzero; opacity: 1;"  paint-order="stroke"  transform=" translate(-10.224999999999998, 10.849999999999998)" d="M 12.64 -17.5 C 12.95 -17.5 13.13 -17.36 13.13 -17.01 L 13.13 -4.69 C 13.13 -4.34 12.95 -4.2 12.64 -4.2 L 7.28 -4.2 L 7.28 -17.5 Z M 2.21 0 L 11.94 0.18 C 16.21 0.25 18.24 -1.54 18.24 -5.46 L 18.24 -16.24 C 18.24 -20.16 16.21 -21.95 11.94 -21.88 L 2.21 -21.7 Z" stroke-linecap="round" />
</g>
</g>
</g>
<g transform="matrix(0.4482131788957642 -1.868137320128226 1.8681373201282263 0.44821317889576423 259.95517712365995 376.9610501864949)" id="33157b82-0b9d-41ff-b50f-1fa60c884e5f-path-group"  >
<g style=""  paint-order="stroke"   >
		<g transform="matrix(1 0 0 1 0 0)" id="8b2a1b93-4acb-4ba3-a5cd-22e3759957fb-path-0"  >
<path style="stroke: none; stroke-width: 0; stroke-dasharray: none; stroke-linecap: butt; stroke-dashoffset: 0; stroke-linejoin: miter; stroke-miterlimit: 4; fill: rgb(35,31,32); fill-rule: nonzero; opacity: 1;"  paint-order="stroke"  transform=" translate(0, 0)" d="" stroke-linecap="round" />
</g>
</g>
</g>
<g transform="matrix(0.3242078014691338 -1.893600116724296 1.893600116724296 0.3242078014691338 232.6754430906533 405.2083242021358)" id="19bf8d2d-5367-439c-a425-0063628467ce-path-group"  >
<g style=""  paint-order="stroke"   >
		<g transform="matrix(1 0 0 1 0 0)" id="4824c1dd-a1ed-4852-ad4c-1ab9e6c36d18-path-0"  >
<path style="stroke: none; stroke-width: 0; stroke-dasharray: none; stroke-linecap: butt; stroke-dashoffset: 0; stroke-linejoin: miter; stroke-miterlimit: 4; fill: rgb(35,31,32); fill-rule: nonzero; opacity: 1;"  paint-order="stroke"  transform=" translate(-9.49, 10.85)" d="M 11.94 0 L 11.94 -7.56 C 13.55 -7.91 14.07 -8.82 14.91 -11.1 L 18.8 -21.7 L 13.79 -21.7 L 10.5 -12.25 C 10.4 -11.9 10.26 -11.8 9.94 -11.8 L 9.24 -11.8 C 8.89 -11.8 8.79 -11.9 8.68 -12.25 L 5.46 -21.7 L 0.18 -21.7 L 3.92 -11.13 C 4.66 -9.1 5.29 -8.12 6.86 -7.67 L 6.86 0 Z" stroke-linecap="round" />
</g>
</g>
</g>
<g transform="matrix(0.11624354817272547 -1.9176338383799787 1.917633838379979 0.11624354817272549 227.50092088317496 449.9828115443884)" id="110dde44-cf85-4200-a6ab-e2b72e4ed2a0-path-group"  >
<g style=""  paint-order="stroke"   >
		<g transform="matrix(0.9999999999999958 0 2.776e-17 1 0 0)" id="23ca5ebf-a9d6-4924-a9f9-9e6fcfbd85a3-path-0"  >
<path style="stroke: none; stroke-width: 0; stroke-dasharray: none; stroke-linecap: butt; stroke-dashoffset: 0; stroke-linejoin: miter; stroke-miterlimit: 4; fill: rgb(35,31,32); fill-rule: nonzero; opacity: 1;"  paint-order="stroke"  transform=" translate(-11.865, 10.85)" d="M 18.76 -21.7 L 17.26 -21.7 L 11.9 -11.31 L 7.07 -20.3 C 6.51 -21.28 6.16 -21.7 4.59 -21.7 L 1.89 -21.7 L 1.89 0 L 6.34 0 L 6.34 -13.58 L 10.01 -6.2 L 13.02 -6.2 L 16.98 -13.93 L 16.98 0 L 21.84 0 L 21.84 -18.8 C 21.84 -20.86 20.97 -21.7 18.76 -21.7 Z" stroke-linecap="round" />
</g>
</g>
</g>
<g transform="matrix(0.06203423495877365 -1.9201520393668816 1.9201520393668818 0.06203423495877366 1061.4277075547636 525.168293157669)" id="d156c701-751a-43b7-9b44-e9d89e0e0520-path-group"  >
<g style=""  paint-order="stroke"   >
		<g transform="matrix(0.9999999999999999 0 0 1 0 0)" id="25c31c84-3282-433d-b8ee-4ae5a880568c-path-0"  >
<path style="stroke: none; stroke-width: 0; stroke-dasharray: none; stroke-linecap: butt; stroke-dashoffset: 0; stroke-linejoin: miter; stroke-miterlimit: 4; fill: rgb(35,31,32); fill-rule: nonzero; opacity: 1;"  paint-order="stroke"  transform=" translate(-7.154999999999999, 9.3)" d="M 12.75 -3.9 L 6.36 -3.9 C 6.09 -3.9 5.94 -4.02 5.94 -4.32 L 5.94 -14.31 C 5.94 -14.61 6.09 -14.7 6.36 -14.7 L 12.75 -14.7 L 12.75 -18.6 L 6.84 -18.6 C 3.33 -18.6 1.56 -17.01 1.56 -13.92 L 1.56 -4.68 C 1.56 -1.59 3.33 0 6.84 0 L 12.75 0 Z" stroke-linecap="round" />
</g>
</g>
</g>
<g transform="matrix(0.17980962946250145 -1.9127207317703947 1.9127207317703947 0.17980962946250145 1059.9212809344995 550.4740792822365)" id="c0e19a4c-457a-45fc-89f3-e8158fbf742e-path-group"  >
<g style=""  paint-order="stroke"   >
		<g transform="matrix(0.9999999999999998 0 0 1 0 0)" id="4aec2edd-cbe1-4918-b5af-793f68e9cb93-path-0"  >
<path style="stroke: none; stroke-width: 0; stroke-dasharray: none; stroke-linecap: butt; stroke-dashoffset: 0; stroke-linejoin: miter; stroke-miterlimit: 4; fill: rgb(35,31,32); fill-rule: nonzero; opacity: 1;"  paint-order="stroke"  transform=" translate(-7.2299999999999995, 9.3)" d="M 12.57 -3.78 L 6.24 -3.78 L 6.24 -18.6 L 1.89 -18.6 L 1.89 0 L 12.57 0 Z" stroke-linecap="round" />
</g>
</g>
</g>
<g transform="matrix(0.29937238930953786 -1.8976849773107272 1.8976849773107274 0.2993723893095379 1056.7315039643672 576.687706441553)" id="b1eac6a4-fd19-47d1-99ad-3ed847e40a2a-path-group"  >
<g style=""  paint-order="stroke"   >
		<g transform="matrix(1 0 0 1 0 0)" id="27340128-772f-48ba-8d8f-e6778b9c378a-path-0"  >
<path style="stroke: none; stroke-width: 0; stroke-dasharray: none; stroke-linecap: butt; stroke-dashoffset: 0; stroke-linejoin: miter; stroke-miterlimit: 4; fill: rgb(35,31,32); fill-rule: nonzero; opacity: 1;"  paint-order="stroke"  transform=" translate(-7.2299999999999995, 9.3)" d="M 12.57 -3.78 L 6.24 -3.78 L 6.24 -18.6 L 1.89 -18.6 L 1.89 0 L 12.57 0 Z" stroke-linecap="round" />
</g>
</g>
</g>
<g transform="matrix(0.38602683676493504 -1.881971142682314 1.8819711426823142 0.38602683676493504 1071.659579016075 595.4508357555414)" id="1ccdc059-1c89-402d-9af6-da79854aba16-path-group"  >
<g style=""  paint-order="stroke"   >
		<g transform="matrix(1 0 0 1 0 0)" id="4e5f6555-df3e-4510-9060-eb2d8d1112fa-path-0"  >
<path style="stroke: none; stroke-width: 0; stroke-dasharray: none; stroke-linecap: butt; stroke-dashoffset: 0; stroke-linejoin: miter; stroke-miterlimit: 4; fill: rgb(35,31,32); fill-rule: nonzero; opacity: 1;"  paint-order="stroke"  transform=" translate(0, 0)" d="" stroke-linecap="round" />
</g>
</g>
</g>
<g transform="matrix(0.4791252881730084 -1.8604491551302464 1.8604491551302464 0.4791252881730084 1048.1264627734338 618.4631471240917)" id="a9acdc0e-b346-4748-a30e-ee37819dd3bf-path-group"  >
<g style=""  paint-order="stroke"   >
		<g transform="matrix(1 0 0 1 0 0)" id="3cdfaef1-df35-4c08-becf-4e46a5be191c-path-0"  >
<path style="stroke: none; stroke-width: 0; stroke-dasharray: none; stroke-linecap: butt; stroke-dashoffset: 0; stroke-linejoin: miter; stroke-miterlimit: 4; fill: rgb(35,31,32); fill-rule: nonzero; opacity: 1;"  paint-order="stroke"  transform=" translate(-6.749999999999999, 9.3)" d="M 12.78 -4.68 L 12.78 -5.85 C 12.78 -7.62 12.06 -8.82 10.62 -9.45 C 11.91 -10.11 12.63 -11.25 12.63 -12.84 L 12.63 -13.92 C 12.63 -17.01 10.71 -18.84 7.2 -18.75 L 0.81 -18.6 L 0.81 -14.82 L 7.83 -14.82 C 8.1 -14.82 8.22 -14.7 8.22 -14.4 L 8.22 -11.76 C 8.22 -11.46 8.1 -11.34 7.83 -11.34 L 2.58 -11.34 L 2.58 -7.62 L 7.98 -7.62 C 8.25 -7.62 8.37 -7.5 8.37 -7.2 L 8.37 -4.2 C 8.37 -3.9 8.25 -3.78 7.98 -3.78 L 0.72 -3.78 L 0.72 0 L 7.35 0.15 C 10.86 0.24 12.78 -1.59 12.78 -4.68 Z" stroke-linecap="round" />
</g>
</g>
</g>
<g transform="matrix(0.6158038943835391 -1.819785059905093 1.819785059905093 0.6158038943835391 1039.751069537274 646.2235390118738)" id="1f3c48a9-bf17-46b5-bdc2-a342af0aabaf-path-group"  >
<g style=""  paint-order="stroke"   >
		<g transform="matrix(1 0 0 1 0 0)" id="8c1dab4e-4093-4c51-8978-e17acfd399c3-path-0"  >
<path style="stroke: none; stroke-width: 0; stroke-dasharray: none; stroke-linecap: butt; stroke-dashoffset: 0; stroke-linejoin: miter; stroke-miterlimit: 4; fill: rgb(35,31,32); fill-rule: nonzero; opacity: 1;"  paint-order="stroke"  transform=" translate(-8.670000000000002, 9.375727006737643)" d="M 6.39 0 L 6.39 -6.12 L 9.87 -6.12 C 13.38 -6.12 15.3 -8.31 15.3 -11.1 L 15.3 -13.92 C 15.3 -17.01 13.38 -18.81 9.87 -18.75 L 2.04 -18.6 L 2.04 0 Z M 10.5 -14.97 C 10.77 -14.97 10.89 -14.85 10.89 -14.55 L 10.89 -10.32 C 10.89 -10.02 10.77 -9.9 10.5 -9.9 L 6.39 -9.9 L 6.39 -14.97 Z" stroke-linecap="round" />
</g>
</g>
</g>
<g transform="matrix(0.7622032599029797 -1.763484701148549 1.763484701148549 0.7622032599029798 1027.1635484612998 679.5549105223056)" id="97569981-9296-42e7-ba43-4afba271e1cd-path-group"  >
<g style=""  paint-order="stroke"   >
		<g transform="matrix(1 0 0 1 0 0)" id="2f744af5-f100-4c22-aad6-87e2df25122f-path-0"  >
<path style="stroke: none; stroke-width: 0; stroke-dasharray: none; stroke-linecap: butt; stroke-dashoffset: 0; stroke-linejoin: miter; stroke-miterlimit: 4; fill: rgb(35,31,32); fill-rule: nonzero; opacity: 1;"  paint-order="stroke"  transform=" translate(-8.76, 9.3)" d="M 10.83 -15 C 11.1 -15 11.25 -14.88 11.25 -14.58 L 11.25 -4.02 C 11.25 -3.72 11.1 -3.6 10.83 -3.6 L 6.24 -3.6 L 6.24 -15 Z M 1.89 0 L 10.23 0.15 C 13.89 0.21 15.63 -1.32 15.63 -4.68 L 15.63 -13.92 C 15.63 -17.28 13.89 -18.81 10.23 -18.75 L 1.89 -18.6 Z" stroke-linecap="round" />
</g>
</g>
</g>
<g transform="matrix(0.9057239262415061 -1.6942538977453723 1.6942538977453723 0.9057239262415062 1011.8827464824758 711.254759917816)" id="2e409556-6381-4e2b-8e7d-defa54d494fb-path-group"  >
<g style=""  paint-order="stroke"   >
		<g transform="matrix(1 0 0 1 0 0)" id="18e2843a-6454-4cc5-a5c8-848d093b8ecc-path-0"  >
<path style="stroke: none; stroke-width: 0; stroke-dasharray: none; stroke-linecap: butt; stroke-dashoffset: 0; stroke-linejoin: miter; stroke-miterlimit: 4; fill: rgb(35,31,32); fill-rule: nonzero; opacity: 1;"  paint-order="stroke"  transform=" translate(-8.129999999999999, 9.3)" d="M 10.23 0 L 10.23 -6.48 C 11.61 -6.78 12.06 -7.56 12.78 -9.51 L 16.11 -18.6 L 11.82 -18.6 L 9 -10.5 C 8.91 -10.2 8.79 -10.11 8.52 -10.11 L 7.92 -10.11 C 7.62 -10.11 7.53 -10.2 7.44 -10.5 L 4.68 -18.6 L 0.15 -18.6 L 3.36 -9.54 C 3.99 -7.8 4.53 -6.96 5.88 -6.57 L 5.88 0 Z" stroke-linecap="round" />
</g>
</g>
</g>
<g transform="matrix(1.0552609217358913 -1.6053835951724538 1.605383595172454 1.0552609217358915 992.4285361933805 743.9926341659963)" id="ec825a4e-4c13-4c96-be2c-20a7693dcd84-path-group"  >
<g style=""  paint-order="stroke"   >
		<g transform="matrix(1 0 0 1 0 0)" id="4b010aa7-994c-4310-a3f1-e4464f9ad37e-path-0"  >
<path style="stroke: none; stroke-width: 0; stroke-dasharray: none; stroke-linecap: butt; stroke-dashoffset: 0; stroke-linejoin: miter; stroke-miterlimit: 4; fill: rgb(35,31,32); fill-rule: nonzero; opacity: 1;"  paint-order="stroke"  transform=" translate(-10.169999999999998, 9.3)" d="M 16.08 -18.6 L 14.79 -18.6 L 10.2 -9.69 L 6.06 -17.4 C 5.58 -18.24 5.28 -18.6 3.93 -18.6 L 1.62 -18.6 L 1.62 0 L 5.43 0 L 5.43 -11.64 L 8.58 -5.31 L 11.16 -5.31 L 14.55 -11.94 L 14.55 0 L 18.72 0 L 18.72 -16.11 C 18.72 -17.88 17.97 -18.6 16.08 -18.6 Z" stroke-linecap="round" />
</g>
</g>
</g>
<g transform="matrix(1.1569669794756765 -1.5337077651869166 1.5337077651869169 1.1569669794756765 994.3553079967735 772.5655384117813)" id="a92c031d-e48d-44a2-8944-6bdaa6d4332b-path-group"  >
<g style=""  paint-order="stroke"   >
		<g transform="matrix(1 0 5.551e-17 1.0000000000000004 0 0)" id="7ebc6f1c-390c-4c84-b81b-22049bb9e34d-path-0"  >
<path style="stroke: none; stroke-width: 0; stroke-dasharray: none; stroke-linecap: butt; stroke-dashoffset: 0; stroke-linejoin: miter; stroke-miterlimit: 4; fill: rgb(35,31,32); fill-rule: nonzero; opacity: 1;"  paint-order="stroke"  transform=" translate(0, 0)" d="" stroke-linecap="round" />
</g>
</g>
</g>
<g transform="matrix(1.2397130070412408 -1.4676320249859909 1.4676320249859909 1.2397130070412408 962.1844451092575 784.2503812236089)" id="d0ba854a-e474-4f10-a229-05eb16c94070-path-group"  >
<g style=""  paint-order="stroke"   >
		<g transform="matrix(1 0 0 1 0 0)" id="4dfbba57-5ad2-4251-aeef-0e0a05f5f328-path-0"  >
<path style="stroke: none; stroke-width: 0; stroke-dasharray: none; stroke-linecap: butt; stroke-dashoffset: 0; stroke-linejoin: miter; stroke-miterlimit: 4; fill: rgb(35,31,32); fill-rule: nonzero; opacity: 1;"  paint-order="stroke"  transform=" translate(-8.265, 9.378212111948521)" d="M 16.32 0 L 12.39 -18.6 L 8.16 -18.75 C 5.46 -18.84 4.68 -18 4.02 -15.24 L 0.21 0 L 4.26 0 L 5.19 -4.14 L 11.19 -4.14 L 12 0 Z M 7.56 -14.46 C 7.62 -14.76 7.68 -14.88 7.98 -14.88 L 9.09 -14.88 L 10.47 -7.86 L 6.03 -7.86 Z" stroke-linecap="round" />
</g>
</g>
</g>
<g transform="matrix(1.343376015438958 -1.3733801300932906 1.3733801300932906 1.3433760154389582 941.6025063353532 807.1140489875862)" id="eda36c71-570b-4316-a483-7595e4a01bf1-path-group"  >
<g style=""  paint-order="stroke"   >
		<g transform="matrix(1 0 0 1 0 0)" id="02656b1a-a755-4eb9-90bb-f74b7c2a52cc-path-0"  >
<path style="stroke: none; stroke-width: 0; stroke-dasharray: none; stroke-linecap: butt; stroke-dashoffset: 0; stroke-linejoin: miter; stroke-miterlimit: 4; fill: rgb(35,31,32); fill-rule: nonzero; opacity: 1;"  paint-order="stroke"  transform=" translate(-6.54, 9.3)" d="M 8.7 0 L 8.7 -14.82 L 12.93 -14.82 L 12.93 -18.6 L 0.15 -18.6 L 0.15 -14.82 L 4.38 -14.82 L 4.38 0 Z" stroke-linecap="round" />
</g>
</g>
</g>
<g transform="matrix(1.4398943700481324 -1.2718240065730038 1.2718240065730038 1.4398943700481324 919.3069532888032 828.1038433204344)" id="d88687c1-1ce8-4fa0-a2ed-bdb0613112a1-path-group"  >
<g style=""  paint-order="stroke"   >
		<g transform="matrix(1 0 0 1 0 0)" id="db56cc09-1efb-4f77-b8ff-42c2b5aba46f-path-0"  >
<path style="stroke: none; stroke-width: 0; stroke-dasharray: none; stroke-linecap: butt; stroke-dashoffset: 0; stroke-linejoin: miter; stroke-miterlimit: 4; fill: rgb(35,31,32); fill-rule: nonzero; opacity: 1;"  paint-order="stroke"  transform=" translate(-8.265, 9.378212111948521)" d="M 16.32 0 L 12.39 -18.6 L 8.16 -18.75 C 5.46 -18.84 4.68 -18 4.02 -15.24 L 0.21 0 L 4.26 0 L 5.19 -4.14 L 11.19 -4.14 L 12 0 Z M 7.56 -14.46 C 7.62 -14.76 7.68 -14.88 7.98 -14.88 L 9.09 -14.88 L 10.47 -7.86 L 6.03 -7.86 Z" stroke-linecap="round" />
</g>
</g>
</g>
<g transform="matrix(1.5390597784600335 -1.1498378576644046 1.1498378576644048 1.5390597784600337 892.8083772723276 849.8573641207088)" id="e3250558-9f2d-47a8-a25f-254108557e6d-path-group"  >
<g style=""  paint-order="stroke"   >
		<g transform="matrix(1 0 0 1 0 0)" id="8f92bb59-9ffb-4d37-8897-108a3a313520-path-0"  >
<path style="stroke: none; stroke-width: 0; stroke-dasharray: none; stroke-linecap: butt; stroke-dashoffset: 0; stroke-linejoin: miter; stroke-miterlimit: 4; fill: rgb(35,31,32); fill-rule: nonzero; opacity: 1;"  paint-order="stroke"  transform=" translate(-8.76, 9.3)" d="M 10.83 -15 C 11.1 -15 11.25 -14.88 11.25 -14.58 L 11.25 -4.02 C 11.25 -3.72 11.1 -3.6 10.83 -3.6 L 6.24 -3.6 L 6.24 -15 Z M 1.89 0 L 10.23 0.15 C 13.89 0.21 15.63 -1.32 15.63 -4.68 L 15.63 -13.92 C 15.63 -17.28 13.89 -18.81 10.23 -18.75 L 1.89 -18.6 Z" stroke-linecap="round" />
</g>
</g>
</g>
<g transform="matrix(1.6022426910815737 -1.0600238013683434 1.0600238013683434 1.6022426910815737 887.4701256997082 875.6567692482131)" id="4f3e7959-ad4a-4d98-bb33-477fed3d8f11-path-group"  >
<g style=""  paint-order="stroke"   >
		<g transform="matrix(1 0 0 1 0 0)" id="b13d7ef5-7af0-41a5-af81-f3e8b6fd5096-path-0"  >
<path style="stroke: none; stroke-width: 0; stroke-dasharray: none; stroke-linecap: butt; stroke-dashoffset: 0; stroke-linejoin: miter; stroke-miterlimit: 4; fill: rgb(35,31,32); fill-rule: nonzero; opacity: 1;"  paint-order="stroke"  transform=" translate(0, 0)" d="" stroke-linecap="round" />
</g>
</g>
</g>
<g transform="matrix(1.6491390410415074 -0.985480859227825 0.9854808592278251 1.6491390410415077 858.0593516652823 873.2535128134261)" id="e7f3ac8b-2d14-4bb3-846c-943a67717f3a-path-group"  >
<g style=""  paint-order="stroke"   >
		<g transform="matrix(1 0 0 1 0 0)" id="ab72da38-2450-4c3b-a9e8-e5578612af2f-path-0"  >
<path style="stroke: none; stroke-width: 0; stroke-dasharray: none; stroke-linecap: butt; stroke-dashoffset: 0; stroke-linejoin: miter; stroke-miterlimit: 4; fill: rgb(35,31,32); fill-rule: nonzero; opacity: 1;"  paint-order="stroke"  transform=" translate(-7.2299999999999995, 9.3)" d="M 12.57 -3.78 L 6.24 -3.78 L 6.24 -18.6 L 1.89 -18.6 L 1.89 0 L 12.57 0 Z" stroke-linecap="round" />
</g>
</g>
</g>
<g transform="matrix(1.7157732318702443 -0.8642651892730908 0.8642651892730909 1.7157732318702446 830.0528979607694 888.5564021186688)" id="d67871a3-4114-409c-a118-656f15576a79-path-group"  >
<g style=""  paint-order="stroke"   >
		<g transform="matrix(1 0 0 1 0 0)" id="26af4493-cc9e-4ccf-939d-56d60e929c1e-path-0"  >
<path style="stroke: none; stroke-width: 0; stroke-dasharray: none; stroke-linecap: butt; stroke-dashoffset: 0; stroke-linejoin: miter; stroke-miterlimit: 4; fill: rgb(35,31,32); fill-rule: nonzero; opacity: 1;"  paint-order="stroke"  transform=" translate(-8.265, 9.378212111948521)" d="M 16.32 0 L 12.39 -18.6 L 8.16 -18.75 C 5.46 -18.84 4.68 -18 4.02 -15.24 L 0.21 0 L 4.26 0 L 5.19 -4.14 L 11.19 -4.14 L 12 0 Z M 7.56 -14.46 C 7.62 -14.76 7.68 -14.88 7.98 -14.88 L 9.09 -14.88 L 10.47 -7.86 L 6.03 -7.86 Z" stroke-linecap="round" />
</g>
</g>
</g>
<g transform="matrix(1.782293991821621 -0.7171193954344469 0.717119395434447 1.7822939918216212 797.816481005427 903.2986220486796)" id="d3f1d730-5872-4a38-85d3-afab5306c2b9-path-group"  >
<g style=""  paint-order="stroke"   >
		<g transform="matrix(1 0 0 1 0 0)" id="c8ac7a72-eef3-42fc-a5b2-9bfd4b768024-path-0"  >
<path style="stroke: none; stroke-width: 0; stroke-dasharray: none; stroke-linecap: butt; stroke-dashoffset: 0; stroke-linejoin: miter; stroke-miterlimit: 4; fill: rgb(35,31,32); fill-rule: nonzero; opacity: 1;"  paint-order="stroke"  transform=" translate(-8.79, 9.3)" d="M 12.9 0 L 15.96 0 L 15.96 -18.6 L 12.24 -18.6 L 12.24 -7.44 L 4.65 -18.6 L 1.62 -18.6 L 1.62 0 L 5.34 0 L 5.34 -11.16 Z" stroke-linecap="round" />
</g>
</g>
</g>
<g transform="matrix(1.8377879269289044 -0.5597924938993701 0.5597924938993701 1.8377879269289044 763.3414360188033 915.4622750968338)" id="616a12b8-010f-4c62-ac58-528cdf52b881-path-group"  >
<g style=""  paint-order="stroke"   >
		<g transform="matrix(1 0 0 1 0 0)" id="7224312b-514c-47bb-aeb6-d0d3de95e35a-path-0"  >
<path style="stroke: none; stroke-width: 0; stroke-dasharray: none; stroke-linecap: butt; stroke-dashoffset: 0; stroke-linejoin: miter; stroke-miterlimit: 4; fill: rgb(35,31,32); fill-rule: nonzero; opacity: 1;"  paint-order="stroke"  transform=" translate(-8.79, 9.299999999999999)" d="M 11.16 -15 C 11.43 -15 11.58 -14.88 11.58 -14.58 L 11.58 -4.02 C 11.58 -3.72 11.43 -3.6 11.16 -3.6 L 6.42 -3.6 C 6.15 -3.6 6 -3.72 6 -4.02 L 6 -14.58 C 6 -14.88 6.15 -15 6.42 -15 Z M 1.62 -4.38 C 1.62 -1.29 3.36 0.3 6.87 0.3 L 10.68 0.3 C 14.19 0.3 15.96 -1.29 15.96 -4.38 L 15.96 -14.22 C 15.96 -17.31 14.19 -18.9 10.68 -18.9 L 6.87 -18.9 C 3.36 -18.9 1.62 -17.31 1.62 -14.22 Z" stroke-linecap="round" />
</g>
</g>
</g>
<g transform="matrix(1.8761854564412406 -0.4132314528567373 0.4132314528567373 1.8761854564412406 731.274196668049 923.865770046343)" id="9e684427-e25a-4c74-abfe-5826216711c2-path-group"  >
<g style=""  paint-order="stroke"   >
		<g transform="matrix(1 0 0 1 0 0)" id="d30d8ee7-eb94-4313-bce5-844af73ca822-path-0"  >
<path style="stroke: none; stroke-width: 0; stroke-dasharray: none; stroke-linecap: butt; stroke-dashoffset: 0; stroke-linejoin: miter; stroke-miterlimit: 4; fill: rgb(35,31,32); fill-rule: nonzero; opacity: 1;"  paint-order="stroke"  transform=" translate(-7.2, 9.3)" d="M 5.61 -11.31 C 5.34 -11.31 5.19 -11.43 5.19 -11.73 L 5.19 -14.4 C 5.19 -14.7 5.34 -14.82 5.61 -14.82 L 12.93 -14.82 L 12.93 -18.6 L 6.21 -18.75 C 2.7 -18.84 0.78 -17.01 0.78 -13.92 L 0.78 -12.3 C 0.78 -9.21 2.7 -7.38 6.21 -7.38 L 8.82 -7.38 C 9.09 -7.38 9.24 -7.26 9.24 -6.96 L 9.24 -4.2 C 9.24 -3.9 9.09 -3.78 8.82 -3.78 L 1.26 -3.78 L 1.26 0 L 8.19 0.15 C 11.7 0.24 13.62 -1.59 13.62 -4.68 L 13.62 -6.39 C 13.62 -9.48 11.7 -11.31 8.19 -11.31 Z" stroke-linecap="round" />
</g>
</g>
</g>
<g transform="matrix(1.902171707021917 -0.2693972858011799 0.2693972858011799 1.902171707021917 701.0505008725678 929.2368970322054)" id="8d3136e1-3f8e-4085-9a9f-a68924f4ec1e-path-group"  >
<g style=""  paint-order="stroke"   >
		<g transform="matrix(0.9999999999999989 0 2.498e-16 0.9999999999999989 0 0)" id="a9ffab30-5516-43d8-9433-7462fcb70944-path-0"  >
<path style="stroke: none; stroke-width: 0; stroke-dasharray: none; stroke-linecap: butt; stroke-dashoffset: 0; stroke-linejoin: miter; stroke-miterlimit: 4; fill: rgb(35,31,32); fill-rule: nonzero; opacity: 1;"  paint-order="stroke"  transform=" translate(-9.09, 9.375727006737643)" d="M 6.39 0 L 6.39 -6.66 L 9.3 -6.66 C 9.66 -6.66 9.66 -6.51 9.78 -6.18 L 11.82 0 L 16.14 0 L 14.34 -5.16 C 13.95 -6.21 13.47 -6.84 12.78 -7.26 C 14.52 -8.1 15.39 -9.78 15.39 -11.67 L 15.39 -13.92 C 15.39 -17.01 13.47 -18.81 9.96 -18.75 L 2.04 -18.6 L 2.04 0 Z M 10.59 -14.97 C 10.86 -14.97 10.98 -14.85 10.98 -14.55 L 10.98 -10.8 C 10.98 -10.5 10.86 -10.41 10.59 -10.41 L 6.39 -10.41 L 6.39 -14.97 Z" stroke-linecap="round" />
</g>
</g>
</g>
<g transform="matrix(1.9171935637814204 -0.12329209052819667 0.12329209052819667 1.9171935637814204 668.63737084857 932.8066875396473)" id="b908dd11-cb07-4891-b939-317d9d713c22-path-group"  >
<g style=""  paint-order="stroke"   >
		<g transform="matrix(1 0 0 1 0 0)" id="7e18f1a8-5cd0-4198-b6ba-402bab092c66-path-0"  >
<path style="stroke: none; stroke-width: 0; stroke-dasharray: none; stroke-linecap: butt; stroke-dashoffset: 0; stroke-linejoin: miter; stroke-miterlimit: 4; fill: rgb(35,31,32); fill-rule: nonzero; opacity: 1;"  paint-order="stroke"  transform=" translate(-7.589999999999999, 9.3)" d="M 13.29 0 L 13.29 -3.78 L 6.24 -3.78 L 6.24 -7.56 L 12.57 -7.56 L 12.57 -11.28 L 6.24 -11.28 L 6.24 -14.82 L 13.14 -14.82 L 13.14 -18.6 L 1.89 -18.6 L 1.89 0 Z" stroke-linecap="round" />
</g>
</g>
</g>
<g transform="matrix(1.921080746354821 0.016759074452930543 -0.016759074452930543 1.9210807463548212 638.5152234640753 933.587049979004)" id="74351239-a322-44c7-92bf-0d371c4ac7fe-path-group"  >
<g style=""  paint-order="stroke"   >
		<g transform="matrix(0.9999999999999974 0 1.735e-17 1 0 0)" id="cb5c0e39-04d8-4319-9f08-492f345546ac-path-0"  >
<path style="stroke: none; stroke-width: 0; stroke-dasharray: none; stroke-linecap: butt; stroke-dashoffset: 0; stroke-linejoin: miter; stroke-miterlimit: 4; fill: rgb(35,31,32); fill-rule: nonzero; opacity: 1;"  paint-order="stroke"  transform=" translate(-8.670000000000002, 9.375727006737643)" d="M 6.39 0 L 6.39 -6.12 L 9.87 -6.12 C 13.38 -6.12 15.3 -8.31 15.3 -11.1 L 15.3 -13.92 C 15.3 -17.01 13.38 -18.81 9.87 -18.75 L 2.04 -18.6 L 2.04 0 Z M 10.5 -14.97 C 10.77 -14.97 10.89 -14.85 10.89 -14.55 L 10.89 -10.32 C 10.89 -10.02 10.77 -9.9 10.5 -9.9 L 6.39 -9.9 L 6.39 -14.97 Z" stroke-linecap="round" />
</g>
</g>
</g>
<g transform="matrix(1.9174412910405048 0.11937753559459265 -0.11937753559459265 1.9174412910405048 618.9999131595357 951.1025629683484)" id="c3451ab0-4164-4880-b75d-eeecd5319286-path-group"  >
<g style=""  paint-order="stroke"   >
		<g transform="matrix(0.9999999999999973 0 -6.94e-18 1 0 0)" id="1855ba45-ca89-4c5e-b008-eb43189aba11-path-0"  >
<path style="stroke: none; stroke-width: 0; stroke-dasharray: none; stroke-linecap: butt; stroke-dashoffset: 0; stroke-linejoin: miter; stroke-miterlimit: 4; fill: rgb(35,31,32); fill-rule: nonzero; opacity: 1;"  paint-order="stroke"  transform=" translate(0, 0)" d="" stroke-linecap="round" />
</g>
</g>
</g>
<g transform="matrix(1.9080761520739922 0.22378002251815032 -0.22378002251815035 1.9080761520739924 591.9685249948296 930.9090103819337)" id="38fb89b2-a15d-48ab-bace-0a24e3e808fd-path-group"  >
<g style=""  paint-order="stroke"   >
		<g transform="matrix(1 0 0 1 0 0)" id="9d1970a5-8760-4360-8704-aae69b4eb7c8-path-0"  >
<path style="stroke: none; stroke-width: 0; stroke-dasharray: none; stroke-linecap: butt; stroke-dashoffset: 0; stroke-linejoin: miter; stroke-miterlimit: 4; fill: rgb(35,31,32); fill-rule: nonzero; opacity: 1;"  paint-order="stroke"  transform=" translate(-8.280000000000001, 9.299999999999999)" d="M 9.66 0.3 C 13.17 0.3 14.94 -1.29 14.94 -4.38 L 14.94 -10.5 L 8.79 -10.5 L 8.79 -6.87 L 10.83 -6.87 L 10.83 -4.02 C 10.83 -3.72 10.71 -3.6 10.44 -3.6 L 6.42 -3.6 C 6.15 -3.6 6 -3.72 6 -4.02 L 6 -14.58 C 6 -14.88 6.15 -15 6.42 -15 L 14.55 -15 L 14.55 -18.9 L 6.87 -18.9 C 3.36 -18.9 1.62 -17.31 1.62 -14.22 L 1.62 -4.38 C 1.62 -1.29 3.36 0.3 6.87 0.3 Z" stroke-linecap="round" />
</g>
</g>
</g>
<g transform="matrix(1.8827553639325352 0.3821836471841563 -0.38218364718415637 1.8827553639325352 556.9458680080214 925.3265449426274)" id="6f4bf147-8c92-4715-b281-28cb022a8fdf-path-group"  >
<g style=""  paint-order="stroke"   >
		<g transform="matrix(1 0 0 1 0 0)" id="dbc7e334-a0f3-4c19-9167-ace4d2619f14-path-0"  >
<path style="stroke: none; stroke-width: 0; stroke-dasharray: none; stroke-linecap: butt; stroke-dashoffset: 0; stroke-linejoin: miter; stroke-miterlimit: 4; fill: rgb(35,31,32); fill-rule: nonzero; opacity: 1;"  paint-order="stroke"  transform=" translate(-8.79, 9.3)" d="M 12.9 0 L 15.96 0 L 15.96 -18.6 L 12.24 -18.6 L 12.24 -7.44 L 4.65 -18.6 L 1.62 -18.6 L 1.62 0 L 5.34 0 L 5.34 -11.16 Z" stroke-linecap="round" />
</g>
</g>
</g>
<g transform="matrix(1.8539738177016498 0.5036002222681049 -0.5036002222681049 1.85397381770165 530.3414034757529 919.0225151812482)" id="342a999b-6b8c-4f94-bb4a-08511e102cca-path-group"  >
<g style=""  paint-order="stroke"   >
		<g transform="matrix(1 0 0 1 0 0)" id="1076d51c-c4bc-4ba1-937a-c3b8d7a00e39-path-0"  >
<path style="stroke: none; stroke-width: 0; stroke-dasharray: none; stroke-linecap: butt; stroke-dashoffset: 0; stroke-linejoin: miter; stroke-miterlimit: 4; fill: rgb(35,31,32); fill-rule: nonzero; opacity: 1;"  paint-order="stroke"  transform=" translate(-4.365, 9.3)" d="M 6.54 0 L 6.54 -18.6 L 2.19 -18.6 L 2.19 0 Z" stroke-linecap="round" />
</g>
</g>
</g>
<g transform="matrix(1.8241949592094513 0.6026150109203589 -0.6026150109203589 1.8241949592094513 508.6450658413226 912.4993981762188)" id="87c42d4b-ca16-4e7f-9ebf-57bb63cc05f6-path-group"  >
<g style=""  paint-order="stroke"   >
		<g transform="matrix(1 0 0 1 0 0)" id="a78a6dcf-f5c9-4cfe-9df8-7b5ee2af4a51-path-0"  >
<path style="stroke: none; stroke-width: 0; stroke-dasharray: none; stroke-linecap: butt; stroke-dashoffset: 0; stroke-linejoin: miter; stroke-miterlimit: 4; fill: rgb(35,31,32); fill-rule: nonzero; opacity: 1;"  paint-order="stroke"  transform=" translate(-6.54, 9.3)" d="M 8.7 0 L 8.7 -14.82 L 12.93 -14.82 L 12.93 -18.6 L 0.15 -18.6 L 0.15 -14.82 L 4.38 -14.82 L 4.38 0 Z" stroke-linecap="round" />
</g>
</g>
</g>
<g transform="matrix(1.7822939918216207 0.7171193954344475 -0.7171193954344476 1.782293991821621 484.6481511117911 903.7608228467566)" id="895b1dae-4cdf-48e2-ab55-979a9a425c35-path-group"  >
<g style=""  paint-order="stroke"   >
		<g transform="matrix(1 0 0 1 0 0)" id="3ba753d3-93c9-46ef-ba89-698107fd4eea-path-0"  >
<path style="stroke: none; stroke-width: 0; stroke-dasharray: none; stroke-linecap: butt; stroke-dashoffset: 0; stroke-linejoin: miter; stroke-miterlimit: 4; fill: rgb(35,31,32); fill-rule: nonzero; opacity: 1;"  paint-order="stroke"  transform=" translate(-7.154999999999999, 9.3)" d="M 12.75 -3.9 L 6.36 -3.9 C 6.09 -3.9 5.94 -4.02 5.94 -4.32 L 5.94 -14.31 C 5.94 -14.61 6.09 -14.7 6.36 -14.7 L 12.75 -14.7 L 12.75 -18.6 L 6.84 -18.6 C 3.33 -18.6 1.56 -17.01 1.56 -13.92 L 1.56 -4.68 C 1.56 -1.59 3.33 0 6.84 0 L 12.75 0 Z" stroke-linecap="round" />
</g>
</g>
</g>
<g transform="matrix(1.7299704456134544 0.8354845048806725 -0.8354845048806726 1.7299704456134546 458.45894800931535 892.2666416615265)" id="2ef41cd3-ed4b-4fc8-ab87-d5ad8930b021-path-group"  >
<g style=""  paint-order="stroke"   >
		<g transform="matrix(1 0 0 1 0 0)" id="5bbc0982-c288-42d6-b86c-f928242289ec-path-0"  >
<path style="stroke: none; stroke-width: 0; stroke-dasharray: none; stroke-linecap: butt; stroke-dashoffset: 0; stroke-linejoin: miter; stroke-miterlimit: 4; fill: rgb(35,31,32); fill-rule: nonzero; opacity: 1;"  paint-order="stroke"  transform=" translate(-7.589999999999999, 9.3)" d="M 13.29 0 L 13.29 -3.78 L 6.24 -3.78 L 6.24 -7.56 L 12.57 -7.56 L 12.57 -11.28 L 6.24 -11.28 L 6.24 -14.82 L 13.14 -14.82 L 13.14 -18.6 L 1.89 -18.6 L 1.89 0 Z" stroke-linecap="round" />
</g>
</g>
</g>
<g transform="matrix(1.669796735738124 0.9500583992102909 -0.950058399210291 1.6697967357381243 432.51377390311984 878.6726614267034)" id="b8d2cc5c-66d3-425c-9432-ef2a0c65aff0-path-group"  >
<g style=""  paint-order="stroke"   >
		<g transform="matrix(0.9999999999999996 0 5.551e-17 1 0 0)" id="e7fb827f-8225-489f-a672-c2b33d1b5eb3-path-0"  >
<path style="stroke: none; stroke-width: 0; stroke-dasharray: none; stroke-linecap: butt; stroke-dashoffset: 0; stroke-linejoin: miter; stroke-miterlimit: 4; fill: rgb(35,31,32); fill-rule: nonzero; opacity: 1;"  paint-order="stroke"  transform=" translate(-6.54, 9.3)" d="M 8.7 0 L 8.7 -14.82 L 12.93 -14.82 L 12.93 -18.6 L 0.15 -18.6 L 0.15 -14.82 L 4.38 -14.82 L 4.38 0 Z" stroke-linecap="round" />
</g>
</g>
</g>
<g transform="matrix(1.5931339772156605 1.0736648598295129 -1.0736648598295129 1.5931339772156607 405.4287386217695 861.878551624216)" id="c25798b8-0be9-451f-8db5-cd01bfe955fe-path-group"  >
<g style=""  paint-order="stroke"   >
		<g transform="matrix(1 0 0 1 0 0)" id="5f8b556a-d9de-47f7-8b33-fc7b5d31a622-path-0"  >
<path style="stroke: none; stroke-width: 0; stroke-dasharray: none; stroke-linecap: butt; stroke-dashoffset: 0; stroke-linejoin: miter; stroke-miterlimit: 4; fill: rgb(35,31,32); fill-rule: nonzero; opacity: 1;"  paint-order="stroke"  transform=" translate(-8.79, 9.299999999999999)" d="M 11.16 -15 C 11.43 -15 11.58 -14.88 11.58 -14.58 L 11.58 -4.02 C 11.58 -3.72 11.43 -3.6 11.16 -3.6 L 6.42 -3.6 C 6.15 -3.6 6 -3.72 6 -4.02 L 6 -14.58 C 6 -14.88 6.15 -15 6.42 -15 Z M 1.62 -4.38 C 1.62 -1.29 3.36 0.3 6.87 0.3 L 10.68 0.3 C 14.19 0.3 15.96 -1.29 15.96 -4.38 L 15.96 -14.22 C 15.96 -17.31 14.19 -18.9 10.68 -18.9 L 6.87 -18.9 C 3.36 -18.9 1.62 -17.31 1.62 -14.22 Z" stroke-linecap="round" />
</g>
</g>
</g>
<g transform="matrix(1.497785065736924 1.2031093040314977 -1.2031093040314977 1.4977850657369243 378.2225173573123 841.7322585242991)" id="a7690f67-6f1e-41e8-8f29-ec684bd5d826-path-group"  >
<g style=""  paint-order="stroke"   >
		<g transform="matrix(1 0 0 1 0 0)" id="6f637d48-16ed-493d-a28a-5f041c5357b7-path-0"  >
<path style="stroke: none; stroke-width: 0; stroke-dasharray: none; stroke-linecap: butt; stroke-dashoffset: 0; stroke-linejoin: miter; stroke-miterlimit: 4; fill: rgb(35,31,32); fill-rule: nonzero; opacity: 1;"  paint-order="stroke"  transform=" translate(-9.09, 9.375727006737643)" d="M 6.39 0 L 6.39 -6.66 L 9.3 -6.66 C 9.66 -6.66 9.66 -6.51 9.78 -6.18 L 11.82 0 L 16.14 0 L 14.34 -5.16 C 13.95 -6.21 13.47 -6.84 12.78 -7.26 C 14.52 -8.1 15.39 -9.78 15.39 -11.67 L 15.39 -13.92 C 15.39 -17.01 13.47 -18.81 9.96 -18.75 L 2.04 -18.6 L 2.04 0 Z M 10.59 -14.97 C 10.86 -14.97 10.98 -14.85 10.98 -14.55 L 10.98 -10.8 C 10.98 -10.5 10.86 -10.41 10.59 -10.41 L 6.39 -10.41 L 6.39 -14.97 Z" stroke-linecap="round" />
</g>
</g>
</g>
<g transform="matrix(1.3963630604745352 1.3194704634564225 -1.3194704634564227 1.3963630604745354 352.7545103361052 819.6922798330299)" id="c3c25aff-ca91-41f5-b905-6996a12343b3-path-group"  >
<g style=""  paint-order="stroke"   >
		<g transform="matrix(1 0 0 1 0 0)" id="115e9746-622d-43d1-8be9-477297ee76ef-path-0"  >
<path style="stroke: none; stroke-width: 0; stroke-dasharray: none; stroke-linecap: butt; stroke-dashoffset: 0; stroke-linejoin: miter; stroke-miterlimit: 4; fill: rgb(35,31,32); fill-rule: nonzero; opacity: 1;"  paint-order="stroke"  transform=" translate(-8.670000000000002, 9.375727006737643)" d="M 6.39 0 L 6.39 -6.12 L 9.87 -6.12 C 13.38 -6.12 15.3 -8.31 15.3 -11.1 L 15.3 -13.92 C 15.3 -17.01 13.38 -18.81 9.87 -18.75 L 2.04 -18.6 L 2.04 0 Z M 10.5 -14.97 C 10.77 -14.97 10.89 -14.85 10.89 -14.55 L 10.89 -10.32 C 10.89 -10.02 10.77 -9.9 10.5 -9.9 L 6.39 -9.9 L 6.39 -14.97 Z" stroke-linecap="round" />
</g>
</g>
</g>
<g transform="matrix(1.3238698706829322 1.3921927546463073 -1.3921927546463073 1.3238698706829324 326.5295559982702 819.246264605577)" id="7a902c8e-204a-46c8-8a5e-892336439570-path-group"  >
<g style=""  paint-order="stroke"   >
		<g transform="matrix(1 0 0 1 0 0)" id="ce4decc2-2d82-4d66-a59c-03e501c37456-path-0"  >
<path style="stroke: none; stroke-width: 0; stroke-dasharray: none; stroke-linecap: butt; stroke-dashoffset: 0; stroke-linejoin: miter; stroke-miterlimit: 4; fill: rgb(35,31,32); fill-rule: nonzero; opacity: 1;"  paint-order="stroke"  transform=" translate(0, 0)" d="" stroke-linecap="round" />
</g>
</g>
</g>
<g transform="matrix(1.241074490594555 1.4664808929499158 -1.4664808929499158 1.2410744905945552 319.35180130754554 784.7410794226098)" id="98772d8c-e095-4403-abdd-2c7a112bd6f0-path-group"  >
<g style=""  paint-order="stroke"   >
		<g transform="matrix(1 0 0 1 0 0)" id="7e82926c-651f-41af-b8c3-d03fded9877f-path-0"  >
<path style="stroke: none; stroke-width: 0; stroke-dasharray: none; stroke-linecap: butt; stroke-dashoffset: 0; stroke-linejoin: miter; stroke-miterlimit: 4; fill: rgb(35,31,32); fill-rule: nonzero; opacity: 1;"  paint-order="stroke"  transform=" translate(-8.79, 9.3)" d="M 12.9 0 L 15.96 0 L 15.96 -18.6 L 12.24 -18.6 L 12.24 -7.44 L 4.65 -18.6 L 1.62 -18.6 L 1.62 0 L 5.34 0 L 5.34 -11.16 Z" stroke-linecap="round" />
</g>
</g>
</g>
<g transform="matrix(1.1432571961432936 1.5439543659248125 -1.5439543659248127 1.1432571961432936 302.3732327363964 763.3116427407896)" id="f6551378-2d17-4f41-874e-cc5d11c69f14-path-group"  >
<g style=""  paint-order="stroke"   >
		<g transform="matrix(0.9999999999999998 0 -4.4409e-16 1.0000000000000002 0 0)" id="673fee3e-d1fd-4627-a904-682d489fd6ae-path-0"  >
<path style="stroke: none; stroke-width: 0; stroke-dasharray: none; stroke-linecap: butt; stroke-dashoffset: 0; stroke-linejoin: miter; stroke-miterlimit: 4; fill: rgb(35,31,32); fill-rule: nonzero; opacity: 1;"  paint-order="stroke"  transform=" translate(-4.365, 9.3)" d="M 6.54 0 L 6.54 -18.6 L 2.19 -18.6 L 2.19 0 Z" stroke-linecap="round" />
</g>
</g>
</g>
<g transform="matrix(1.0451089541367964 1.6120109722253155 -1.6120109722253158 1.0451089541367964 287.62704943504815 741.7850092135868)" id="3daaa90b-fa6c-4ce4-aa34-539ae1bc8b0e-path-group"  >
<g style=""  paint-order="stroke"   >
		<g transform="matrix(1 0 0 1 0 0)" id="c348ce28-8150-4d7c-a6a5-2887d2782392-path-0"  >
<path style="stroke: none; stroke-width: 0; stroke-dasharray: none; stroke-linecap: butt; stroke-dashoffset: 0; stroke-linejoin: miter; stroke-miterlimit: 4; fill: rgb(35,31,32); fill-rule: nonzero; opacity: 1;"  paint-order="stroke"  transform=" translate(-8.265, 9.378212111948521)" d="M 16.32 0 L 12.39 -18.6 L 8.16 -18.75 C 5.46 -18.84 4.68 -18 4.02 -15.24 L 0.21 0 L 4.26 0 L 5.19 -4.14 L 11.19 -4.14 L 12 0 Z M 7.56 -14.46 C 7.62 -14.76 7.68 -14.88 7.98 -14.88 L 9.09 -14.88 L 10.47 -7.86 L 6.03 -7.86 Z" stroke-linecap="round" />
</g>
</g>
</g>
<g transform="matrix(0.9041512052322306 1.6950937138308373 -1.6950937138308373 0.9041512052322307 269.2400600214026 710.897067624205)" id="ac4e14d6-027f-4877-ba71-f33cc5409829-path-group"  >
<g style=""  paint-order="stroke"   >
		<g transform="matrix(1 0 0 1 0 0)" id="a53285c7-ff5b-4336-a3c6-96a06dbfed20-path-0"  >
<path style="stroke: none; stroke-width: 0; stroke-dasharray: none; stroke-linecap: butt; stroke-dashoffset: 0; stroke-linejoin: miter; stroke-miterlimit: 4; fill: rgb(35,31,32); fill-rule: nonzero; opacity: 1;"  paint-order="stroke"  transform=" translate(-9, 9.3)" d="M 11.79 0 L 16.11 0 L 16.11 -18.6 L 11.79 -18.6 L 11.79 -11.34 L 6.24 -11.34 L 6.24 -18.6 L 1.89 -18.6 L 1.89 0 L 6.24 0 L 6.24 -7.56 L 11.79 -7.56 Z" stroke-linecap="round" />
</g>
</g>
</g>
<g transform="matrix(0.771357773472815 1.759499726028617 -1.7594997260286172 0.7713577734728151 255.61202458064844 682.9096479782218)" id="86c24294-0f35-4b7e-9ea1-e5051e73b8f4-path-group"  >
<g style=""  paint-order="stroke"   >
		<g transform="matrix(1 0 0 1 0 0)" id="68d80f21-2414-441a-829d-1eba9a190f6d-path-0"  >
<path style="stroke: none; stroke-width: 0; stroke-dasharray: none; stroke-linecap: butt; stroke-dashoffset: 0; stroke-linejoin: miter; stroke-miterlimit: 4; fill: rgb(35,31,32); fill-rule: nonzero; opacity: 1;"  paint-order="stroke"  transform=" translate(-7.154999999999999, 9.3)" d="M 12.75 -3.9 L 6.36 -3.9 C 6.09 -3.9 5.94 -4.02 5.94 -4.32 L 5.94 -14.31 C 5.94 -14.61 6.09 -14.7 6.36 -14.7 L 12.75 -14.7 L 12.75 -18.6 L 6.84 -18.6 C 3.33 -18.6 1.56 -17.01 1.56 -13.92 L 1.56 -4.68 C 1.56 -1.59 3.33 0 6.84 0 L 12.75 0 Z" stroke-linecap="round" />
</g>
</g>
</g>
<g transform="matrix(0.6400673185151295 1.8113933665442656 -1.8113933665442659 0.6400673185151297 244.40813806660782 654.8809458275215)" id="933a32a4-e05a-413a-82a6-2bdfc59d6307-path-group"  >
<g style=""  paint-order="stroke"   >
		<g transform="matrix(1 0 0 1 0 0)" id="e6096a02-76dd-454d-9fa8-440046816cee-path-0"  >
<path style="stroke: none; stroke-width: 0; stroke-dasharray: none; stroke-linecap: butt; stroke-dashoffset: 0; stroke-linejoin: miter; stroke-miterlimit: 4; fill: rgb(35,31,32); fill-rule: nonzero; opacity: 1;"  paint-order="stroke"  transform=" translate(-9.645, 9.3)" d="M 9.12 -7.47 C 9.42 -7.47 9.42 -7.35 9.54 -7.05 L 12.69 0 L 17.25 0 L 14.28 -6.57 C 13.56 -8.16 13.05 -8.97 12.06 -9.36 C 12.87 -9.78 13.32 -10.56 13.95 -12.12 L 16.62 -18.6 L 12.3 -18.6 L 9.51 -11.67 C 9.39 -11.37 9.39 -11.25 9.09 -11.25 L 6.39 -11.25 L 6.39 -18.6 L 2.04 -18.6 L 2.04 0 L 6.39 0 L 6.39 -7.47 Z" stroke-linecap="round" />
</g>
</g>
</g>
<g transform="matrix(0.5025678098787065 1.8542539462181105 -1.8542539462181107 0.5025678098787065 234.6813699551592 624.0737294851912)" id="3df6b046-a7e0-4574-8a85-03f75a023fae-path-group"  >
<g style=""  paint-order="stroke"   >
		<g transform="matrix(1 0 0 1 0 0)" id="ea66ebad-2e30-44bd-9016-ff38c8b54f61-path-0"  >
<path style="stroke: none; stroke-width: 0; stroke-dasharray: none; stroke-linecap: butt; stroke-dashoffset: 0; stroke-linejoin: miter; stroke-miterlimit: 4; fill: rgb(35,31,32); fill-rule: nonzero; opacity: 1;"  paint-order="stroke"  transform=" translate(-7.154999999999999, 9.3)" d="M 12.75 -3.9 L 6.36 -3.9 C 6.09 -3.9 5.94 -4.02 5.94 -4.32 L 5.94 -14.31 C 5.94 -14.61 6.09 -14.7 6.36 -14.7 L 12.75 -14.7 L 12.75 -18.6 L 6.84 -18.6 C 3.33 -18.6 1.56 -17.01 1.56 -13.92 L 1.56 -4.68 C 1.56 -1.59 3.33 0 6.84 0 L 12.75 0 Z" stroke-linecap="round" />
</g>
</g>
</g>
<g transform="matrix(0.3629441231207706 1.8865586829154855 -1.8865586829154855 0.3629441231207706 227.2934852994033 592.3392942530057)" id="d67ed3d3-915f-4485-a70f-f1a24d99d580-path-group"  >
<g style=""  paint-order="stroke"   >
		<g transform="matrix(1 0 0 1 0 0)" id="833e8f18-b892-44ea-8c6c-22269857299e-path-0"  >
<path style="stroke: none; stroke-width: 0; stroke-dasharray: none; stroke-linecap: butt; stroke-dashoffset: 0; stroke-linejoin: miter; stroke-miterlimit: 4; fill: rgb(35,31,32); fill-rule: nonzero; opacity: 1;"  paint-order="stroke"  transform=" translate(-8.79, 9.299999999999999)" d="M 11.16 -15 C 11.43 -15 11.58 -14.88 11.58 -14.58 L 11.58 -4.02 C 11.58 -3.72 11.43 -3.6 11.16 -3.6 L 6.42 -3.6 C 6.15 -3.6 6 -3.72 6 -4.02 L 6 -14.58 C 6 -14.88 6.15 -15 6.42 -15 Z M 1.62 -4.38 C 1.62 -1.29 3.36 0.3 6.87 0.3 L 10.68 0.3 C 14.19 0.3 15.96 -1.29 15.96 -4.38 L 15.96 -14.22 C 15.96 -17.31 14.19 -18.9 10.68 -18.9 L 6.87 -18.9 C 3.36 -18.9 1.62 -17.31 1.62 -14.22 Z" stroke-linecap="round" />
</g>
</g>
</g>
<g transform="matrix(0.220946550810071 1.908406330495906 -1.908406330495906 0.220946550810071 222.69910084569426 562.9011403096347)" id="79c006c2-0f6d-4c85-bce8-5a79a30c5bae-path-group"  >
<g style=""  paint-order="stroke"   >
		<g transform="matrix(1 0 0 1 0 0)" id="a14e2b73-f8d7-440f-868e-ff3fe073efc0-path-0"  >
<path style="stroke: none; stroke-width: 0; stroke-dasharray: none; stroke-linecap: butt; stroke-dashoffset: 0; stroke-linejoin: miter; stroke-miterlimit: 4; fill: rgb(35,31,32); fill-rule: nonzero; opacity: 1;"  paint-order="stroke"  transform=" translate(-7.2299999999999995, 9.3)" d="M 12.57 -3.78 L 6.24 -3.78 L 6.24 -18.6 L 1.89 -18.6 L 1.89 0 L 12.57 0 Z" stroke-linecap="round" />
</g>
</g>
</g>
<g transform="matrix(0.08056357877387595 1.9194638861845934 -1.9194638861845934 0.08056357877387595 220.1001817185611 530.9824410701295)" id="c04510cf-72dc-4756-ba26-f3c4af3cbcca-path-group"  >
<g style=""  paint-order="stroke"   >
		<g transform="matrix(0.999999999999995 0 -9.021e-17 1 0 0)" id="5223627e-2425-4542-a633-4a8fda9a2fa0-path-0"  >
<path style="stroke: none; stroke-width: 0; stroke-dasharray: none; stroke-linecap: butt; stroke-dashoffset: 0; stroke-linejoin: miter; stroke-miterlimit: 4; fill: rgb(35,31,32); fill-rule: nonzero; opacity: 1;"  paint-order="stroke"  transform=" translate(-8.76, 9.299999999999999)" d="M 15.63 -4.68 L 15.63 -5.79 C 15.63 -7.59 14.91 -8.79 13.44 -9.42 C 14.58 -10.08 15.21 -11.22 15.21 -12.78 L 15.21 -13.92 C 15.21 -17.01 13.29 -18.81 9.78 -18.75 L 1.89 -18.6 L 1.89 0 L 10.23 0.15 C 13.74 0.21 15.63 -1.59 15.63 -4.68 Z M 10.83 -7.68 C 11.1 -7.68 11.25 -7.56 11.25 -7.26 L 11.25 -3.96 C 11.25 -3.66 11.1 -3.54 10.83 -3.54 L 6.24 -3.54 L 6.24 -7.68 Z M 10.41 -15.06 C 10.68 -15.06 10.8 -14.94 10.8 -14.64 L 10.8 -11.61 C 10.8 -11.31 10.68 -11.19 10.41 -11.19 L 6.24 -11.19 L 6.24 -15.06 Z" stroke-linecap="round" />
</g>
</g>
</g>
<g transform="matrix(1.9211538461538462 0 0 1.9211538461538462 629.4016908464455 442.8009143404179)" id="tagline-c0ca30a5-9b1b-4a60-9473-5fedbc654057-logo-path-group"  >
<g style=""  paint-order="stroke"   >
		<g transform="matrix(1 0 0 1 0 0)" id="tagline-c0ca30a5-9b1b-4a60-9473-5fedbc654057-logo-path-0"  >
<path style="stroke: none; stroke-width: 0; stroke-dasharray: none; stroke-linecap: butt; stroke-dashoffset: 0; stroke-linejoin: miter; stroke-miterlimit: 4; fill: rgb(255,255,255); fill-rule: nonzero; opacity: 1;"  paint-order="stroke"  transform=" translate(-14.235, 9.3)" d="M 16.08 -18.6 L 14.79 -18.6 L 10.2 -9.69 L 6.06 -17.4 C 5.58 -18.24 5.28 -18.6 3.93 -18.6 L 1.62 -18.6 L 1.62 0 L 5.43 0 L 5.43 -11.64 L 8.58 -5.31 L 11.16 -5.31 L 14.55 -11.94 L 14.55 0 L 18.72 0 L 18.72 -16.11 C 18.72 -17.88 17.97 -18.6 16.08 -18.6 Z M 26.85 0 L 26.85 -18.6 L 22.5 -18.6 L 22.5 0 Z" stroke-linecap="round" />
</g>
</g>
</g>
</svg>